<svg xmlns="http://www.w3.org/2000/svg" viewBox="0 0 560.2 503" enable-background="new 0 0 560.2 503"><path fill="#F1627A" d="M136 313v-30h-40v40h50zM44 313v-30h40v40h-50z"/><path fill="#1D686C" d="M0 198h180v90h-180zM180.2 198c0 12.4-2.5 24.3-7.1 35s-11.1 20.5-19.3 28.6c-8.1 8.1-17.8 14.7-28.6 19.3-10.8 4.6-22.6 7.1-35 7.1s-24.3-2.5-35-7.1c-10.8-4.6-20.5-11.1-28.6-19.3s-14.7-17.8-19.3-28.6-7.1-22.6-7.1-35 2.5-24.3 7.1-35c4.6-10.8 11.1-20.5 19.3-28.6s17.8-14.7 28.6-19.3c10.8-4.6 22.6-7.1 35-7.1s24.3 2.5 35 7.1c10.8 4.6 20.5 11.1 28.6 19.3 8.1 8.1 14.7 17.8 19.3 28.6 4.6 10.7 7.1 22.6 7.1 35z"/><path fill="#E55B76" d="M158.4 179l-10-10-10 10v-40h20v20z"/><path fill="#F1627A" d="M90.2 183c30.3 0 56.3-17.9 68.2-43.7-1.5-1.7-3-3.3-4.5-4.9-8.1-8.1-17.8-14.7-28.6-19.3s-22.6-7.1-35-7.1-24.3 2.5-35 7.1-20.5 11.1-28.6 19.3c-1.6 1.6-3.1 3.2-4.5 4.9 11.7 25.8 37.8 43.7 68 43.7z"/><circle fill="#EDE0B7" cx="90.2" cy="108" r="60"/><path fill="#fff" d="M126.2 248l-36 10-36-10v-60l36 10 36-10v30z"/><path fill="#831D30" d="M130.2 252l-40 10-40-10v-60l40 10 40-10v30z"/><path fill="#671829" d="M90.2 262l-40-10v-60l40 10z"/><path fill="#EDE0B7" d="M56.8 216.6h-8.4v-.3h8.4v-2.5h-8.399999999999999v-.3h2.8v-2.5h-5.6v14h8.4v-2.8h-5.6v-.3h8.4v-2.5h-8.4v-.3h8.4v.3h2.8v-2.8z"/><path fill="#B2A58E" d="M48.4 213.5h2.8v.3h-2.8zM48.4 216.3h8.4v.3h-8.4zM48.4 219.1h8.4v.3h-8.4zM48.4 222.2h8.399999999999999v-.3h-8.4z"/><linearGradient id="a" gradientUnits="userSpaceOnUse" x1="45.625" y1="218" x2="10.25" y2="218"><stop offset="0" stop-color="#529547"/><stop offset="1" stop-color="#1D686C"/></linearGradient><path fill="url(#a)" d="M10.2 211h35.4v14h-35.4z"/><path fill="#EDE0B7" d="M129.3 211v2.5h2.8v.3h-8.399999999999999v2.5h8.4v.3h-11.2v2.8h2.8v-.3h8.4v.3h-8.4v2.5h8.4v.3h-5.6v2.8h8.4v-14z"/><path fill="#B2A58E" d="M129.3 213.5h2.8v.3h-2.8zM123.7 216.3h8.4v.3h-8.4zM123.7 219.1h8.4v.3h-8.4zM132.1 221.9h-8.4v.3h8.399999999999999z"/><linearGradient id="b" gradientUnits="userSpaceOnUse" x1="134.875" y1="218" x2="170.25" y2="218"><stop offset="0" stop-color="#529547"/><stop offset="1" stop-color="#1D686C"/></linearGradient><path fill="url(#b)" d="M134.9 211h35.4v14h-35.4z"/><g fill="#B2A58E"><path d="M97.8 114l.2-1.2.6-.9 1-.7 1.2-.2 1.1.2 1 .7.6.9.3 1.2v2h1v-2l-.4-1.6-.8-1.2-1.3-.9-1.5-.3-1.6.3-1.3.9-.8 1.2-.3 1.6v2h1v-2zM76.8 114l.2-1.2.6-.9 1-.7 1.2-.2 1.1.2 1 .7.6.9.3 1.2v2h1v-2l-.4-1.6-.8-1.2-1.3-.9-1.5-.3-1.6.3-1.3.9-.8 1.2-.3 1.6v2h1v-2z"/></g><path fill="#B2A58E" d="M94.2 120h-8l4-12z"/><g fill="#F598AD"><circle cx="73.8" cy="126" r="6"/><circle cx="106.8" cy="126" r="6"/></g><circle fill="#F1627A" cx="90.2" cy="126" r="4"/><path fill="#1D686C" d="M30.2 108v-12c0-33 27-60 60-60s60 27 60 60v12h-120z"/><path fill="#fff" d="M83.8 48l-11.2-6.4-6.4-11.2v-12.8l6.4-11.2 11.2-6.4h12.8l11.2 6.4 6.4 11.2v12.8l-6.4 11.2-11.2 6.4z"/><path fill="#F1627A" d="M326 313v-30h-40v40h50zM234 313v-30h40v40h-50z"/><path fill="#365D7E" d="M190 198h180v90h-180zM370.2 198c0 12.4-2.5 24.3-7.1 35-4.6 10.8-11.1 20.5-19.3 28.6s-17.8 14.7-28.6 19.3c-10.8 4.6-22.6 7.1-35 7.1-12.4 0-24.3-2.5-35-7.1-10.8-4.6-20.5-11.1-28.6-19.3-8.1-8.1-14.7-17.8-19.3-28.6s-7.1-22.6-7.1-35 2.5-24.3 7.1-35c4.6-10.8 11.1-20.5 19.3-28.6 8.1-8.1 17.8-14.7 28.6-19.3 10.8-4.6 22.6-7.1 35-7.1 12.4 0 24.3 2.5 35 7.1 10.8 4.6 20.5 11.1 28.6 19.3s14.7 17.8 19.3 28.6c4.6 10.7 7.1 22.6 7.1 35z"/><path fill="#E55B76" d="M348.4 179l-10-10-10 10v-40h20v20z"/><path fill="#F1627A" d="M280.2 183c30.3 0 56.3-17.9 68.2-43.7-1.5-1.7-3-3.3-4.5-4.9-8.1-8.1-17.8-14.7-28.6-19.3s-22.6-7.1-35-7.1-24.3 2.5-35 7.1-20.5 11.1-28.6 19.3c-1.6 1.6-3.1 3.2-4.5 4.9 11.7 25.8 37.8 43.7 68 43.7z"/><circle fill="#EDE0B7" cx="280.2" cy="108" r="60"/><path fill="#fff" d="M316.2 248l-36 10-36-10v-60l36 10 36-10v30z"/><path fill="#831D30" d="M320.2 252l-40 10-40-10v-60l40 10 40-10v30z"/><path fill="#671829" d="M280.2 262l-40-10v-60l40 10z"/><path fill="#EDE0B7" d="M246.8 216.6h-8.4v-.3h8.4v-2.5h-8.399999999999999v-.3h2.8v-2.5h-5.6v14h8.4v-2.8h-5.6v-.3h8.4v-2.5h-8.4v-.3h8.4v.3h2.8v-2.8z"/><path fill="#B2A58E" d="M238.4 213.5h2.8v.3h-2.8zM238.4 216.3h8.4v.3h-8.4zM238.4 219.1h8.4v.3h-8.4zM238.4 222.2h8.399999999999999v-.3h-8.4z"/><linearGradient id="c" gradientUnits="userSpaceOnUse" x1="235.625" y1="218" x2="200.25" y2="218"><stop offset="0" stop-color="#C06C84"/><stop offset="1" stop-color="#365D7E"/></linearGradient><path fill="url(#c)" d="M235.6 219.4v-8.399999999999999h-35.4v14h35.4v-2.8z"/><path fill="#EDE0B7" d="M324.9 219.4v-8.399999999999999h-5.6v2.5h2.8v.3h-8.399999999999999v2.5h8.4v.3h-11.2v2.8h2.8v-.3h8.4v.3h-8.4v2.5h8.4v.3h-5.6v2.8h8.4v-2.8z"/><path fill="#B2A58E" d="M319.3 213.5h2.8v.3h-2.8zM313.7 216.3h8.4v.3h-8.4zM313.7 219.1h8.4v.3h-8.4zM322.1 221.9h-8.4v.3h8.399999999999999z"/><linearGradient id="d" gradientUnits="userSpaceOnUse" x1="324.875" y1="218" x2="360.25" y2="218"><stop offset="0" stop-color="#C06C84"/><stop offset="1" stop-color="#365D7E"/></linearGradient><path fill="url(#d)" d="M324.9 211v14h35.3v-14z"/><g fill="#B2A58E"><path d="M287.8 114l.2-1.2.6-.9 1-.7 1.2-.2 1.1.2 1 .7.6.9.3 1.2v2h1v-2l-.4-1.6-.8-1.2-1.3-.9-1.5-.3-1.6.3-1.3.9-.8 1.2-.3 1.6v2h1v-2zM266.8 114l.2-1.2.6-.9 1-.7 1.2-.2 1.1.2 1 .7.6.9.3 1.2v2h1v-2l-.4-1.6-.8-1.2-1.3-.9-1.5-.3-1.6.3-1.3.9-.8 1.2-.3 1.6v2h1v-2z"/></g><path fill="#B2A58E" d="M284.2 120h-8l4-12z"/><g fill="#F598AD"><circle cx="263.8" cy="126" r="6"/><circle cx="296.8" cy="126" r="6"/></g><circle fill="#F1627A" cx="280.2" cy="126" r="4"/><path fill="#365D7E" d="M220.2 108v-12c0-33 27-60 60-60s60 27 60 60v12h-120z"/><path fill="#fff" d="M273.8 48l-11.2-6.4-6.4-11.2v-12.8l6.4-11.2 11.2-6.4h12.8l11.2 6.4 6.4 11.2v12.8l-6.4 11.2-11.2 6.4z"/><path fill="#F1627A" d="M516 313v-30h-40v40h50zM424 313v-30h40v40h-50z"/><path fill="#611948" d="M380 198h180v90h-180zM560.2 198c0 12.4-2.5 24.3-7.1 35s-11.1 20.5-19.3 28.6c-8.1 8.1-17.8 14.7-28.6 19.3-10.8 4.6-22.6 7.1-35 7.1-12.4 0-24.3-2.5-35-7.1-10.8-4.6-20.5-11.1-28.6-19.3s-14.7-17.8-19.3-28.6c-4.6-10.8-7.1-22.6-7.1-35s2.5-24.3 7.1-35c4.6-10.8 11.1-20.5 19.3-28.6s17.8-14.7 28.6-19.3c10.8-4.6 22.6-7.1 35-7.1 12.4 0 24.3 2.5 35 7.1 10.8 4.6 20.5 11.1 28.6 19.3 8.1 8.1 14.7 17.8 19.3 28.6 4.6 10.7 7.1 22.6 7.1 35z"/><path fill="#E55B76" d="M538.4 179l-10-10-10 10v-40h20v20z"/><path fill="#F1627A" d="M470.2 183c30.3 0 56.3-17.9 68.2-43.7-1.5-1.7-3-3.3-4.5-4.9-8.1-8.1-17.8-14.7-28.6-19.3s-22.6-7.1-35-7.1-24.3 2.5-35 7.1-20.5 11.1-28.6 19.3c-1.6 1.6-3.1 3.2-4.5 4.9 11.7 25.8 37.8 43.7 68 43.7z"/><circle fill="#EDE0B7" cx="470.2" cy="108" r="60"/><path fill="#fff" d="M506.2 248l-36 10-36-10v-60l36 10 36-10v30z"/><path fill="#831D30" d="M510.2 252l-40 10-40-10v-60l40 10 40-10v30z"/><path fill="#671829" d="M470.2 262l-40-10v-60l40 10z"/><path fill="#EDE0B7" d="M436.8 216.6h-8.4v-.3h8.4v-2.5h-8.399999999999999v-.3h2.8v-2.5h-5.6v14h8.4v-2.8h-5.6v-.3h8.4v-2.5h-8.4v-.3h8.4v.3h2.8v-2.8z"/><path fill="#B2A58E" d="M428.4 213.5h2.8v.3h-2.8zM428.4 216.3h8.4v.3h-8.4zM428.4 219.1h8.4v.3h-8.4zM428.4 222.2h8.399999999999999v-.3h-8.4z"/><linearGradient id="e" gradientUnits="userSpaceOnUse" x1="425.625" y1="218" x2="390.25" y2="218"><stop offset="0" stop-color="#C14A49"/><stop offset="1" stop-color="#611948"/></linearGradient><path fill="url(#e)" d="M425.6 219.4v-8.399999999999999h-35.4v14h35.4v-2.8z"/><path fill="#EDE0B7" d="M514.9 219.4v-8.399999999999999h-5.6v2.5h2.8v.3h-8.399999999999999v2.5h8.4v.3h-11.2v2.8h2.8v-.3h8.4v.3h-8.4v2.5h8.4v.3h-5.6v2.8h8.4v-2.8z"/><path fill="#B2A58E" d="M509.3 213.5h2.8v.3h-2.8zM503.7 216.3h8.4v.3h-8.4zM503.7 219.1h8.4v.3h-8.4zM512.1 221.9h-8.4v.3h8.399999999999999z"/><linearGradient id="f" gradientUnits="userSpaceOnUse" x1="514.875" y1="218" x2="550.25" y2="218"><stop offset="0" stop-color="#C14A49"/><stop offset="1" stop-color="#611948"/></linearGradient><path fill="url(#f)" d="M514.9 211v14h35.3v-14z"/><g fill="#B2A58E"><path d="M477.8 114l.2-1.2.6-.9 1-.7 1.2-.2 1.1.2 1 .7.6.9.3 1.2v2h1v-2l-.4-1.6-.8-1.2-1.3-.9-1.5-.3-1.6.3-1.3.9-.8 1.2-.3 1.6v2h1v-2zM456.8 114l.2-1.2.6-.9 1-.7 1.2-.2 1.1.2 1 .7.6.9.3 1.2v2h1v-2l-.4-1.6-.8-1.2-1.3-.9-1.5-.3-1.6.3-1.3.9-.8 1.2-.3 1.6v2h1v-2z"/></g><path fill="#B2A58E" d="M474.2 120h-8l4-12z"/><g fill="#F598AD"><circle cx="453.8" cy="126" r="6"/><circle cx="486.8" cy="126" r="6"/></g><circle fill="#F1627A" cx="470.2" cy="126" r="4"/><path fill="#611948" d="M410.2 108v-12c0-33 27-60 60-60s60 27 60 60v12h-120z"/><path fill="#fff" d="M463.8 48l-11.2-6.4-6.4-11.2v-12.8l6.4-11.2 11.2-6.4h12.8l11.2 6.4 6.4 11.2v12.8l-6.4 11.2-11.2 6.4z"/><path fill="#F1627A" d="M215.1 422v-30h-24v40h34zM155.1 422v-30h24v40h-34z"/><path fill="#EBBA1E" d="M155.1 304.5h60v91.5h-60z"/><circle fill="#EDE0B7" cx="185.1" cy="276" r="50"/><path fill="#B2A58E" d="M189.1 288h-8l4-12z"/><circle fill="#F1627A" cx="184.6" cy="294" r="4"/><path fill="#fff" d="M184.6 290c-2.2 0-4 1.8-4 4h8c0-2.2-1.8-4-4-4z"/><path fill="#B2A58E" d="M192.6 282l.3-1.2.6-.9 1-.7 1.1-.2 1.2.2.9.7.7.9.2 1.2v2h1v-2l-.3-1.6-.8-1.2-1.3-.9-1.6-.3-1.5.3-1.3.9-.9 1.2-.3 1.6v2h1v-2zM171.6 282l.3-1.2.6-.9 1-.7 1.1-.2 1.2.2.9.7.7.9.2 1.2v2h1v-2l-.3-1.6-.8-1.2-1.3-.9-1.6-.3-1.5.3-1.3.9-.9 1.2-.3 1.6v2h1v-2z"/><circle fill="#F598AD" cx="168.6" cy="294" r="6"/><circle fill="#F598AD" cx="201.6" cy="294" r="6"/><circle cx="185.1" cy="276" r="50" fill="none"/><path fill="#fff" d="M221.1 377l-36 10-36-10v-60l36 10 36-10v30z"/><path fill="#831D30" d="M225.1 381l-40 10-40-10v-60l40 10 40-10v30z"/><path fill="#671829" d="M185.1 391l-40-10v-60l40 10z"/><path fill="#EDE0B7" d="M223.5 347v2.5h2.8v.3h-8.399999999999999v2.5h8.4v.3h-11.2v2.8h2.8v-.3h8.4v.3h-8.4v2.5h8.4v.3h-5.6v2.8h8.4v-14z"/><path fill="#B2A58E" d="M223.5 349.5h2.8v.3h-2.8zM217.9 352.3h8.4v.3h-8.4zM217.9 355.1h8.4v.3h-8.4zM226.3 357.9h-8.4v.3h8.399999999999999z"/><path fill="#EDE0B7" d="M152.3 352.6h-8.4v-.3h8.4v-2.5h-8.399999999999999v-.3h2.8v-2.5h-5.6v14h8.4v-2.8h-5.6v-.3h8.4v-2.5h-8.4v-.3h8.4v.3h2.8v-2.8z"/><path fill="#B2A58E" d="M143.9 349.5h2.8v.3h-2.8zM143.9 352.3h8.4v.3h-8.4zM143.9 355.1h8.4v.3h-8.4zM143.9 358.2h8.399999999999999v-.3h-8.4z"/><path fill="#EBBA1E" d="M135.1 276v-10c0-27.5 22.5-50 50-50s50 22.5 50 50v10h-100z"/><path fill="#fff" d="M179.8 226l-9.3-5.4-5.4-9.2v-10.8l5.4-9.2 9.3-5.4h10.7l9.3 5.4 5.3 9.2v10.8l-5.3 9.2-9.3 5.4z"/><path fill="#F1627A" d="M405.2 422.5v-30h-24v40h34zM345.2 422.5v-30h24v40h-34z"/><path fill="#EBBA1E" d="M345.3 305h60v91.5h-60z"/><circle fill="#EDE0B7" cx="375.3" cy="276.5" r="50"/><path fill="#B2A58E" d="M379.3 288.5h-8l4-12z"/><circle fill="#F1627A" cx="374.8" cy="294.5" r="4"/><path fill="#fff" d="M374.8 290.5c-2.2 0-4 1.8-4 4h8c0-2.2-1.8-4-4-4z"/><path fill="#B2A58E" d="M382.8 282.5l.2-1.2.6-.9 1-.7 1.2-.2 1.1.2 1 .7.6.9.3 1.2v2h1v-2l-.4-1.6-.8-1.2-1.3-.9-1.5-.3-1.6.3-1.3.9-.8 1.2-.3 1.6v2h1v-2zM361.8 282.5l.2-1.2.6-.9 1-.7 1.2-.2 1.1.2 1 .7.6.9.3 1.2v2h1v-2l-.4-1.6-.8-1.2-1.3-.9-1.5-.3-1.6.3-1.3.9-.8 1.2-.3 1.6v2h1v-2z"/><circle fill="#F598AD" cx="358.8" cy="294.5" r="6"/><circle fill="#F598AD" cx="391.8" cy="294.5" r="6"/><circle cx="375.3" cy="276.5" r="50" fill="none"/><path fill="#fff" d="M411.2 377.5l-36 10-36-10v-60l36 10 36-10v30z"/><path fill="#831D30" d="M415.2 381.5l-40 10-40-10v-60l40 10 40-10v30z"/><path fill="#671829" d="M375.2 391.5l-40-10v-60l40 10z"/><path fill="#EDE0B7" d="M413.7 347.5v2.5h2.8v.3h-8.5v2.5h8.5v.3h-11.3v2.8h2.8v-.3h8.5v.3h-8.5v2.5h8.5v.3h-5.7v2.8h8.4v-14z"/><path fill="#B2A58E" d="M413.7 350h2.8v.3h-2.8zM408 352.8h8.4v.3h-8.4zM408 355.6h8.4v.3h-8.4zM416.5 358.4h-8.5v.3h8.5z"/><path fill="#EDE0B7" d="M342.5 353.1h-8.5v-.3h8.5v-2.5h-8.5v-.3h2.8v-2.5h-5.6v14h8.5v-2.8h-5.7v-.3h8.5v-2.5h-8.5v-.3h8.5v.3h2.7v-2.8z"/><path fill="#B2A58E" d="M334 350h2.8v.3h-2.8zM334 352.8h8.4v.3h-8.4zM334 355.6h8.4v.3h-8.4zM334 358.7h8.5v-.3h-8.5z"/><path fill="#EBBA1E" d="M325.2 276.5v-10c0-27.5 22.5-50 50-50s50 22.5 50 50v10h-100z"/><path fill="#fff" d="M369.9 226.5l-9.3-5.4-5.4-9.3v-10.7l5.4-9.3 9.3-5.3h10.7l9.3 5.3 5.3 9.3v10.7l-5.3 9.3-9.3 5.4z"/><path fill="#644F43" d="M442.7 503h24l-24.6-31.3z"/><path fill="#9A6C3D" d="M446.4 452l20.3 51-24.6-21.6z"/><path fill="#C58D4D" d="M442.7 503h-337.4l3.7-51h337.4z"/></svg>