<svg xmlns="http://www.w3.org/2000/svg" xmlns:xlink="http://www.w3.org/1999/xlink" viewBox="0 0 158 32.3" enable-background="new 0 0 158 32.3"><path fill="#B2A58E" d="M0 32.3h144.8l2.7-2.1 8.1-13-10.8-15-142.1-2.2-2.7 2.2z"/><path fill="#EDE0B7" d="M2.7 30.2h144.8l10.8-15.1-10.8-15.1h-144.8z"/><defs><path id="a" d="M2.7 30.2h144.8l10.8-15.1-10.8-15.1h-144.8z"/></defs><clipPath id="b"><use xlink:href="#a" overflow="visible"/></clipPath><g opacity=".3" clip-path="url(#b)" fill="#B2A58E"><path d="M-13.9 10.3s30 .6 43.6-1.6 32.2-6.7 45.9-4.8 26.6 3.7 45.6 3.4c18.9-.3 110-3.9 110-3.9l-.7 2.9s-75 1.4-93.4 2-35 1.4-41.8.1-20.3-3.9-28-3.4-24.6 3.6-35.1 4.9l-45.3 2-.8-1.6zM41.6 3.6s-10.7 3.9-25.8 4.2c-15.1.2-30.5 0-30.5 0l.3-1.1s13.5.9 20 .7 16.5 0 22.9-1.7l13.1-2.1zM-12.5 1.8s16.7 1.6 22 1.9l22.7-2s-12.5 4.6-19.5 4l-25.6-2.9.4-1zM70.8 7.6s-.8 0-2.2.1c-.7 0-1.6.1-2.6.2s-2.1.2-3.3.4c-1.2.2-2.5.4-3.8.8-.6.2-1.1.5-1.6 1s-.8 1.1-1 1.6c-.1.6 0 1 .4 1.3.4.3 1.1.6 1.8.7l2.2.3h2.5c1.6 0 3.2-.1 4.7-.2 1.6-.1 3.1-.3 4.6-.5 1.5-.3 2.9-.6 4.2-1 .6-.2 1.3-.5 1.7-.9l.1-.1.1-.1c0-.1.1-.2 0-.3 0-.2-.2-.5-.4-.7-.8-.8-1.9-1.2-2.8-1.6-.8-.3-1.7-.6-2.4-.7-.7-.2-1.3-.2-1.6-.3h-.6zm0 0s.8 0 2.2.3c.7.1 1.5.3 2.5.6.9.3 2 .7 3.1 1.4.2.2.5.5.6.9.1.2 0 .4 0 .6 0 .1-.1.2-.2.3v.1l-.1.1c-.5.5-1.1.9-1.8 1.2-1.3.6-2.7 1.1-4.2 1.6-1.5.4-3.1.8-4.7 1-1.6.2-3.3.3-5 .3h-1.3l-1.2-.1c-.9-.1-1.7-.2-2.5-.4s-1.7-.5-2.5-1.3c-.4-.4-.7-.8-.8-1.4-.1-.5 0-1.1.1-1.5.3-.9.9-1.5 1.5-2s1.4-.9 2.1-1c1.4-.2 2.8-.3 4-.4 1.3-.1 2.4-.2 3.4-.2s1.9-.1 2.6-.1h2.2zM69.3 10.5s-5.7-1.1-6.1 0l2.5.8c3.5.7 3.6-.8 3.6-.8zM-14.7 15.3s32.8-1.7 40.7-2.2 16.1-1 20.1-2.6l7.8-2.9s-5.6 1.4-5.3 4l11.4 5.6s-7.5-.3-11.7-2.3-10.1-.9-16.1-.9l-46.2 3.4-.7-2.1zM-14.2 19.7s21.5-2.8 30.9-3.4c9.4-.6 21.6-2.7 27.2-.9s13 4.4 22.3 3.4c9.4-1 15.4-6.3 18.8-7.2 3.4-.8 16.7-.3 23.8-.3s48.1-1.8 56.2-1.6c8.1.2 23.5 1.4 32.1 1.2 8.6-.1 34.1-2.3 34.1-2.3l.9 1.7s-30.3 2.3-36.2 2.6c-5.9.3-21.9-1.3-27.9-1.7-6-.4-16.8.1-26.7.3-9.9.2-40.1 1.7-44.3 1.5-4.2-.2-8.5-.2-11.8 1.3s-11.6 7.5-21.2 6.7c-9.6-.8-18-4.3-23.2-4.9-5.1-.5-33.8 2.7-42.6 3.5l-13 .9.6-.8zM190.1 8.7s10.8.6 14.8 0c4-.7 5 0 5 0s-15 1.9-17.4 1l-2.4-1zM-15.8 22.2s43.2-2.8 48.8-3.4 9.7-.2 13.4.5l6 1.7s-26.7-.3-34.9.2-31.4 2.6-31.4 2.6l-1.9-1.6zM50.7 2.4c1.9-.1 28.2-2.3 38-.1s25.5 3.1 31 2.6 52.9-3.1 63.7-3.4c10.8-.4 32.6.2 37.9-.6 5.3-.8 9.2-1.2 9.2-1.2l-.6 1.9s-21.4.6-28.2.6-43 1.6-49.7 1.6c-6.7 0-32.4 2.2-38.2 1.5-5.8-.7-23.4-1.7-28.4-2.6-5-.8-24.3.8-29 .1l-5.7-.4zM104.5 1.4s13.5 1.9 22.3 1.4l22.3-2.3s-17.1 1.1-23.1.9h-21.5zM159.1-.1s22.3-1.1 30.4-.8 22.2.2 26.3-.1l11.9-1.5v1.1s-24.4 1.9-33.7 1.1-20.8.3-24.9.6c-4 .5-10-.4-10-.4zM84.7 18.4c2.8-2 4.1-4.1 12.4-4.3s35.8.7 41.3-.1 18-2.7 24.6-1.6 17.3 2.4 19.7 2.3h3.5s-2.9.2-11.3.3c-8.4.1-10.7-1.5-17.4-1.6-6.7-.1-16.9 2.2-26.4 2.4s-22.3-1-26.4-.6c-4.1.3-6.5.2-12 1.8-5.6 1.7-8 1.4-8 1.4zM-14.6 26.8s18.3-4 27.4-4c9 0 23.3-.6 28.4-.1s31.2 1.9 37.1.5c5.9-1.3 12.3-4.1 24.5-5.4 12.2-1.2 28.6.1 34.7.4 6 .3 11.1.7 21.8-.1 10.7-.8 28.5-1.7 35.5-1.9 7-.2 35.9-.7 35.9-.7v1.7s-22.8.5-34.1.8c-11.3.3-30 .7-36.6 1.3-6.6.7-24 2.8-32.5 1.4s-6.7-2.9-18.2-1.4-21.3 5-34.3 5.6-24.7 0-32.6-.8c-7.9-.8-19-.2-25.5.1s-15.6 1-20.8 1.6l-9.9 1.8-.8-.8zM151.5 15.9s3.9-1.7 7.1-1.1 1.4.4-.6 1c-2.1.7-5.1 1.2-6.5.1zM-13.8 29.4s9.3-1.3 17.6-1.9c8.3-.6 21.8-2.3 29.2-1.8 7.4.5 16.5 2.2 24.7 2.5 8.2.3 27.1-1 27.5-1s-15.5 2.1-22.9 1.9c-7.3-.1-18.4-1.2-25.6-1.6s-11.5-.5-19.9.5c-8.4 1-31.4 2.7-31.4 2.7l.8-1.3zM.7 31.1s13.7-1.5 21.5-2.1c7.8-.6 20.5.7 25.9 1 5.4.3 8.9.5 8.9.5s-21.9-.6-29-.4-21.5.9-27.3 1zM89.4 25.5s11.7-4.9 18.6-4.5c6.9.4 15.1 3 22.1 3 6.9 0 23.6-.8 27.8-1.7 4.2-.9 11.9-3.6 21.7-1.1s26.8 1.3 33.7.1c7-1.2 15.7-1.3 15.7-1.3v1.2s-9.9.9-17.1 1.3-21.9 1.2-28.5.8c-6.5-.4-4.8-3.2-15.7-1s-29.9 3.8-38.3 3c-8.4-.7-17.4-3.4-22.9-2.9-5.5.7-17.1 3.1-17.1 3.1zM87.6 28.7c.4-.2 12.4-3.3 21.7-3.3s31.4 2.3 46.3 2.3c14.9 0 28.8-.2 35.8-.9 7-.8 25.9-1.2 30.3-1.7 4.4-.4 10.3 0 10.3 0v1.1s-9-.5-13.2 0c-4.2.6-12.8.4-17.1.8s-21.7 1.5-28.4 1.5c-6.7-.1-18.3.6-27.3.1s-26.3-2.8-37.4-2.1l-21 2.2zM104.6 28.1s3.8-.8 9.8-.3c6 .5 7.2 1 7.2 1s-12.2-.9-17-.7z"/></g></svg>