<svg xmlns="http://www.w3.org/2000/svg" xmlns:xlink="http://www.w3.org/1999/xlink" viewBox="0 0 36.1 251.9" enable-background="new 0 0 36.1 251.9"><path fill="#B2A58E" d="M4.3 15.1l-4.3 225.7 4.3 5.9h31.8v-231.6l-4.3-6.3z"/><path fill="#EDE0B7" d="M0 8.8h31.8v231.6h-31.8z"/><defs><path id="a" d="M0 8.8h31.8v231.6h-31.8z"/></defs><clipPath id="b"><use xlink:href="#a" overflow="visible"/></clipPath><g opacity=".3" clip-path="url(#b)" fill="#B2A58E"><path d="M24 9.2s-1.4 29.5.3 43 5.4 32 3.2 45.4-4.2 26.2-4.5 44.8c-.3 18.7.5 108.7.5 108.7l-2.7-.8s.8-74 .7-92.2c-.1-18.1-.4-34.6 1.1-41.2 1.4-6.6 4.4-19.9 4.1-27.5-.3-7.6-2.7-24.4-3.6-34.8l-.6-44.6 1.5-.8zM28.8 64.2s-3.4-10.7-3.2-25.6c.2-14.9.8-30.1.8-30.1l1 .3s-1.2 13.3-1.2 19.7-.5 16.2.9 22.6c1.5 6.5 1.7 13.1 1.7 13.1zM32 10.8s-2 16.4-2.4 21.6l1.2 22.6s-4-12.5-3.3-19.4l3.5-25.1 1 .3zM24.2 92.9v-2.2c0-.7 0-1.6-.1-2.5-.1-1-.1-2.1-.3-3.3-.1-1.2-.3-2.5-.6-3.8-.1-.6-.5-1.1-.9-1.6s-1-.9-1.5-1c-.5-.1-.9 0-1.3.4-.3.4-.6 1.1-.7 1.8-.2.7-.2 1.5-.3 2.2l-.2 1.1v1.2c-.1 1.6 0 3.1 0 4.7.1 1.6.2 3.1.4 4.5.2 1.5.4 2.9.8 4.2.2.6.4 1.3.8 1.7l.1.1.1.1.3.1c.2 0 .4-.2.6-.4.8-.8 1.2-1.9 1.6-2.7.4-.9.6-1.7.8-2.4.2-.7.3-1.2.3-1.6.1-.4.1-.6.1-.6zm0 0s0 .8-.3 2.2c-.1.7-.4 1.5-.7 2.4-.3.9-.7 2-1.4 3-.2.2-.4.5-.8.6-.2.1-.4 0-.6 0-.1 0-.2-.1-.3-.2l-.1-.1-.1-.1v-.1c-.5-.5-.8-1.2-1.1-1.8-.6-1.3-1-2.7-1.4-4.2-.4-1.5-.6-3.1-.8-4.7-.2-1.6-.2-3.2-.2-4.9l.1-1.3.1-1.2c.1-.8.2-1.7.5-2.5s.6-1.7 1.3-2.4c.3-.4.8-.7 1.3-.7.5-.1 1 0 1.4.2.8.4 1.4 1 1.9 1.6.5.6.8 1.4.9 2.1.2 1.4.2 2.7.3 3.9v8.2zM21.4 91.3s1.2-5.6.2-6c-1.1-.4-.8 2.4-.8 2.4-.7 3.4.6 3.6.6 3.6zM19.3 8.3s.7 32.4.9 40.2c.2 7.8.5 15.9 1.9 19.9l2.5 7.8s-1.2-5.6-3.6-5.3c-2.4.2-5.5 11-5.5 11s.5-7.3 2.5-11.5c1.9-4.1 1.2-10 1.3-15.8l-2-45.7 2-.6zM15.2 8.7s2.1 21.3 2.3 30.6 1.9 21.3 0 26.9-4.5 12.6-3.8 21.9 5.5 15.3 6.2 18.7c.7 3.4-.2 16.5-.4 23.5s.4 47.5 0 55.5-1.9 23.2-2 31.6l1.2 33.7-1.6.8s-1.3-30-1.5-35.8c-.2-5.8 1.8-21.6 2.4-27.5.6-5.9.4-16.6.5-26.4s-.5-39.6-.1-43.8c.3-4.2.4-8.3-.9-11.7s-6.8-11.5-5.9-20.9 4.6-17.6 5.2-22.7c.7-5.1-1.5-33.4-2-42.2-.5-8.7-.5-12.8-.5-12.8l.9.6zM19.7 210.5s-.9 10.6-.4 14.6-.1 4.9-.1 4.9-1.4-14.9-.4-17.2l.9-2.3zM12.8 7s1.4 42.7 1.8 48.2c.4 5.6 0 9.6-.9 13.2-.7 3.6-1.7 5.9-1.7 5.9s1-26.3.8-34.4l-1.6-31 1.6-1.9zM29.6 73.2c.1 1.9 1.4 27.9-1 37.5s-3.6 25-3.3 30.5c.3 5.4 1.4 52.3 1.4 63 0 10.7-1.1 32.2-.5 37.4.6 5.2.8 9.1.8 9.1l-1.8-.7s0-21.1.2-27.8-.3-42.4-.1-49-1.2-32-.4-37.7c.8-5.7 2.3-23.1 3.2-27.9.9-4.9 0-24 .7-28.6.9-4.8.8-5.8.8-5.8zM29.1 126.3s-2.1 13.3-2 21.9l1.5 22.1s-.6-16.9-.2-22.8c.4-6 .7-21.2.7-21.2zM28.9 180.2s.4 22.1-.2 30-.9 21.9-.7 26l1 11.8h-1s-1.1-24.2-.1-33.3.3-20.6.1-24.6c-.1-4.1.9-9.9.9-9.9zM13.5 106.2c1.8 2.8 3.7 4.2 3.7 12.4s-1.6 35.3-1.1 40.8 2.1 17.9.8 24.3c-1.3 6.5-2.7 17-2.8 19.3 0 2.3-.1 3.4-.1 3.4s-.1-2.9 0-11.2c.1-8.3 1.7-10.5 2-17.1.3-6.6-1.6-16.8-1.5-26.2s1.6-22 1.4-26.1c-.2-4.1 0-6.4-1.4-11.9l-1-7.7zM8.4 8s3.3 18.2 3 27.1c-.2 8.9-.1 23-.7 28s-2.6 30.7-1.6 36.6 3.6 12.2 4.4 24.3-.9 28.2-1.4 34.2c-.5 6-1 10.9-.6 21.5s.8 28.2.8 35.1c0 6.9-.4 35.5-.4 35.5h-1.6s.1-22.5.2-33.7c.1-11.2.2-29.6-.2-36.1s-2-23.7-.4-32.1c1.6-8.4 3-6.5 1.8-18s-4.1-21.1-4.3-34c0-12.9.9-24.4 1.8-32.2 1-7.8.7-18.7.7-25.2s-.4-15.3-.8-20.4c-.5-5.1-1.4-9.8-1.4-9.8l.7-.8zM14.1 172.2s1.5 3.9.8 7.1c-.7 3.2-.4 1.4-1-.7s-1-5 .2-6.4zM6 8.7s1 9.2 1.3 17.4 1.5 21.6.8 28.9-2.6 16.3-3.1 24.4.1 26.8.1 27.2c0 .4-1.5-15.4-1.1-22.6s1.8-18.2 2.4-25.3.8-11.5.1-19.7l-1.6-31.1 1.1.8zM3.9 23.1s1.1 13.6 1.4 21.2-1.2 20.2-1.6 25.5c-.4 5.3-.7 8.8-.7 8.8s1.2-21.6 1.2-28.7c0-7-.3-21.2-.3-26.8zM6.8 110.6s4.3 11.7 3.7 18.5c-.6 6.9-3.3 14.9-3.5 21.7-.2 6.8.1 23.3.8 27.5s3.1 11.8.5 21.4-2 26.4-1.1 33.3l.7 15.6h-1.2s-.5-9.8-.8-16.9-.4-21.7.2-28.1c.6-6.4 3.2-4.7 1.4-15.5-1.8-10.8-2.7-29.6-1.8-37.9.9-8.3 3.7-17 3.3-22.5-.3-5.5-2.2-17.1-2.2-17.1zM3.8 108.8c.2.4 2.8 12.3 2.5 21.5s-3 30.9-3.5 45.6c-.4 14.7-.7 28.4-.1 35.4.5 6.9.4 25.6.7 30l-.3 10.2h-1s.7-8.9.3-13c-.4-4.2 0-12.7-.3-16.8-.3-4.2-.8-21.4-.6-28 .3-6.6 0-18.1.7-26.9.7-8.8 3.4-25.8 3-36.9l-1.4-21.1zM3.8 125.6s.6 3.7 0 9.7c-.6 6-1.1 7.1-1.1 7.1s1.2-12 1.1-16.8z"/></g><path fill="#fff" d="M11.4 0c-6.2 0-11.3 3.9-11.3 8.8h22.5c0-4.9-5-8.8-11.2-8.8zM20.3 5c-3.5 0-6.4 1.7-6.4 3.7h12.8c0-2-2.9-3.7-6.4-3.7zM13.9 11.7c3.5 0 6.4-1.7 6.4-3.7h-12.7c0 2 2.8 3.7 6.3 3.7z"/></svg>