<svg xmlns="http://www.w3.org/2000/svg" xmlns:xlink="http://www.w3.org/1999/xlink" viewBox="0 0 199.2 41.1" enable-background="new 0 0 199.2 41.1"><path fill="#B2A58E" d="M199.2 40.7l-182.2.4-3.4-2.7-10.2-16.3 13.5-19 178.8-3.1 3.4 2.7z"/><path fill="#EDE0B7" d="M195.8 38l-182.2.4-13.6-19 13.5-19 182.2-.4z"/><defs><path id="a" d="M195.8 38l-182.2.4-13.6-19 13.5-19 182.2-.4z"/></defs><clipPath id="b"><use xlink:href="#a" overflow="visible"/></clipPath><g opacity=".3" clip-path="url(#b)" fill="#B2A58E"><path d="M-76.2 12.3s33.8 1.2 49.2-1 36.6-6.9 52-4.6 30 4.7 51.4 4.7l124.4-2.3-.9 3.3s-84.7.2-105.5.6c-20.8.4-39.6 1-47.2-.6s-22.9-5-31.6-4.6c-8.7.4-27.9 3.6-39.7 4.8l-51.2 1.5-.9-1.8zM-13.4 5.7s-12.1 4.2-29.2 4.2-34.5-.5-34.5-.5l.4-1.2s15.3 1.3 22.6 1.1c7.4-.2 18.6.3 25.9-1.5l14.8-2.1zM-74.5 2.7s18.8 2.1 24.8 2.6l25.7-1.9s-14.2 5-22.1 4.2l-28.8-3.8.4-1.1zM19.5 10.8h-2.5c-.8 0-1.8.1-2.9.2-1.1.1-2.4.2-3.7.4-1.4.1-2.9.4-4.4.8-.7.2-1.3.6-1.8 1.1-.5.5-1 1.2-1.1 1.8-.2.7 0 1.1.5 1.5.5.4 1.2.7 2 .8.8.2 1.7.3 2.5.3l1.4.1h1.3c1.8 0 3.6 0 5.4-.1 1.8-.1 3.5-.3 5.2-.5 1.7-.3 3.3-.6 4.7-1.1.7-.3 1.4-.5 1.9-.9h.1l.1-.1.1-.1.1-.3c0-.3-.2-.5-.4-.8-1-.9-2.2-1.4-3.3-1.9-1-.4-2-.7-2.8-.9-.8-.2-1.4-.3-1.8-.3h-.6zm0 0s.9 0 2.5.3c.8.2 1.7.4 2.8.8 1.1.4 2.3.8 3.4 1.7.3.2.6.5.7 1 .1.2 0 .5 0 .7-.1.1-.1.3-.2.3l-.1.1-.1.1-.1.1c-.6.6-1.3.9-2 1.3-1.5.7-3.1 1.2-4.8 1.7-1.7.4-3.5.8-5.3 1-1.8.2-3.7.3-5.6.3l-1.4-.1-1.4-.1c-1-.1-1.9-.2-2.9-.5-.9-.3-1.9-.7-2.8-1.5-.4-.4-.8-1-.9-1.6-.1-.6 0-1.2.2-1.7.4-1 1.1-1.7 1.8-2.3.7-.6 1.5-1 2.4-1.1 1.6-.3 3.1-.3 4.5-.4 1.4 0 2.7-.1 3.8-.1h2.9c1.7-.1 2.6 0 2.6 0zM17.8 14s-6.4-1.4-6.9-.1l2.8.9c3.9.9 4.1-.8 4.1-.8zM-77.2 17.9s37.1-1.4 46-1.7c8.9-.3 18.2-.8 22.8-2.5l8.8-3.1s-6.4 1.5-6 4.4l12.7 6.4s-8.4-.5-13.2-2.8-11.4-1.2-18.2-1.3l-52.3 3-.6-2.4zM-76.7 22.8s24.3-2.8 35-3.3 24.4-2.7 30.8-.5 14.6 5.2 25.2 4.3c10.6-1 17.5-6.9 21.3-7.7 3.9-.9 18.9 0 26.9.1s54.3-1.2 63.5-.8 26.6 2 36.2 2l38.5-2 1 1.9s-34.3 2-40.9 2.3-24.8-1.8-31.5-2.5c-6.8-.6-19-.2-30.2-.2s-45.3 1.2-50.1.8-9.5-.4-13.4 1.2-13.1 8.4-23.9 7.3-20.2-5.2-26.1-5.9c-5.8-.7-38.2 2.3-48.2 3.1-10 .8-14.6.8-14.6.8l.5-.9zM154.3 14.3s12.2.9 16.7.2 5.6.1 5.6.1-17 1.9-19.7.8l-2.6-1.1zM-78.6 25.7s48.8-2.4 55.2-2.9c6.3-.5 11-.1 15.1.8s6.8 2.1 6.8 2.1-30.1-.8-39.4-.5l-35.5 2.4-2.2-1.9zM-3.1 4.5c2.2-.1 31.9-2.1 42.9.6s28.7 3.9 35 3.5 59.8-2.5 72.1-2.7c12.2-.2 36.9.9 42.9 0l10.4-1.1-.8 2.2s-24.2.3-31.8.2c-7.7-.1-48.6 1.1-56.1.9-7.6-.1-36.6 1.9-43.2 1-6.6-.9-26.4-2.4-32-3.4-5.6-1-27.4.4-32.8-.4l-6.6-.8zM57.7 4.4s15.3 2.3 25.1 2c9.9-.3 25.3-2.2 25.3-2.2s-19.3 1-26.1.6l-24.3-.4zM119.4 3.7s25.3-.8 34.4-.3 25.1.7 29.8.4c4.6-.3 13.5-1.4 13.5-1.4v1.2s-27.6 1.6-38.1.7c-10.5-1-23.5-.1-28.2.2-4.7.3-11.4-.8-11.4-.8zM35 23.3c3.2-2.2 4.7-4.5 14.1-4.6 9.4-.1 40.5 1.4 46.7.6 6.2-.8 20.4-2.8 27.8-1.3s19.5 3 22.2 3l3.9.1s-3.3.2-12.8.2-12-1.9-19.6-2.1c-7.6-.2-19.2 2.2-29.9 2.2s-25.2-1.5-29.9-1.2-7.3.1-13.6 1.8c-6.2 1.6-8.9 1.3-8.9 1.3zM-77.4 30.9s20.8-4.2 31-4.1 26.3-.3 32 .4 35.2 2.7 41.9 1.3 14-4.4 27.8-5.6 32.3.6 39.1 1.1c6.8.5 12.5 1 24.6.3s32.2-1.4 40.1-1.5c7.9-.1 40.6-.1 40.6-.1v1.9s-25.7.2-38.5.3c-12.8.1-33.9.2-41.4.8-7.4.6-27.1 2.8-36.7 1-9.6-1.8-7.5-3.4-20.6-1.9-13.1 1.5-24.1 5.3-38.9 5.7s-27.7-.4-36.6-1.4-21.5-.6-28.8-.4-17.5.7-23.4 1.3c-5.9.7-11.2 1.8-11.2 1.8l-1-.9zM110.5 21.6s4.4-1.8 8.1-1.1c3.6.8 1.6.4-.7 1.2s-5.8 1.2-7.4-.1zM-76.5 33.9s10.5-1.3 19.9-1.8 24.7-2.2 33.1-1.5 18.6 2.8 27.9 3.3 30.6-.6 31.1-.6-17.6 2.1-25.9 1.7c-8.3-.4-20.8-1.8-29-2.5-8.2-.6-13-.8-22.5.2l-35.5 2.4.9-1.2zM-60.1 36.1s15.5-1.5 24.3-2 23.2 1.2 29.3 1.6c6.1.4 10 .7 10 .7s-24.7-1.1-32.8-1-24.3.6-30.8.7zM40.1 31.3s13.3-5.3 21.1-4.7 17 3.7 24.9 3.8 26.7-.5 31.5-1.4 13.5-3.8 24.5-.9c11.1 3 30.2 2 38.1.7 7.9-1.2 17.8-1.1 17.8-1.1v1.4s-11.2.8-19.3 1.2c-8.1.4-24.8.9-32.2.3-7.4-.6-5.4-3.7-17.7-1.5s-33.8 3.8-43.3 2.8-19.6-4.2-25.9-3.7c-6.3.6-19.5 3.1-19.5 3.1zM38.1 34.9c.5-.2 14.1-3.6 24.6-3.3s35.5 3.2 52.3 3.4 32.6.4 40.5-.4c7.9-.7 29.3-.9 34.3-1.4 5-.4 11.6.2 11.6.2v1.2s-10.2-.7-14.9-.2c-4.8.5-14.5.2-19.3.6-4.8.4-24.5 1.3-32.1 1.1-7.6-.2-20.7.3-30.9-.4s-29.6-3.6-42.3-3l-23.8 2.2zM57.3 34.6s4.3-.8 11.1-.2c6.8.6 8.2 1.2 8.2 1.2s-13.8-1.1-19.3-1z"/></g></svg>