<svg xmlns="http://www.w3.org/2000/svg" viewBox="0 0 394.4 151" enable-background="new 0 0 394.4 151"><path fill="#17B24B" d="M139.8 10.6s-.2 3.2-3.1 5.7c-3 2.5-3.6 3.6-3.6 3.6s5.9 1.9 4.9 5.6c-1 3.7-3.7 5.3-3.7 5.3s6.2-.2 6.6 3.2c.4 3.3-.5 6.2-.5 6.2s1.6-2.6 4.5-.7c2.9 1.9 3.3 5 3.3 5s-.6-3.1 1.5-5.1l3.1-3.1s-3.7-.3-4.3-4.1c-.6-3.8 3.1-6.5 3.1-6.5s-4.5-.7-5.1-3.8c-.6-3.1 2-7.2 2-7.2s-7.7-.7-8.7-4.1z"/><path fill="#0B7A3D" d="M140 11.1l8.2 32.7c-.1-1 .1-2.9 1.5-4.4l3.1-3.1s-3.7-.3-4.3-4.1l3.1-6.5s-4.5-.7-5.1-3.8c-.6-3.1 2-7.2 2-7.2s-6.9-.6-8.5-3.6z"/><path fill="#65C5B4" d="M370.4 19.2s1.1 12.3-3.5 21.9c-4.6 9.6-34.8 13.6-42 16.2-7.3 2.6-21.9-3.8-41-14.2-19.1-10.3-21.5-6.6-33.9.4s-23-9.6-43.1-14.7c-20-5.2-25.2 9.3-30.2 12.6-5 3.4-18.9 2.6-18.9 2.6-8.7-1.8-16.6-3.1-22.6-3.6-21.6-1.8-21.5-6.6-33.9.4-12.4 7-23-9.6-43.1-14.7s-25.2 9.3-30.2 12.6c-5 3.4-18.9 2.6-18.9 2.6l-9.1 12.4s6.8-.3 14.2 0c7.4.3 22.1-15 34.9-14.3 12.8.7 28.7 12.9 42.1 12.7s24.7-3.9 34.8-4.7c8.7-.7 19.3 6.5 22 8.5.4.3 1 .5 1.5.5 2-.1 7.5-.2 13.4 0 7.4.3 22.1-15 34.9-14.3 12.8.7 28.7 12.9 42.1 12.7 13.4-.3 24.7-3.9 34.8-4.7 10.1-.8 35.3 13.9 50 14.4 14.7.5 40.3-8 47.2-16 7-8.1-1.5-29.3-1.5-29.3zM372 116c-6.9-8.1-32.6-16.5-47.2-16-14.7.5-39.9 15.2-50 14.4s-21.3-4.4-34.8-4.7c-13.4-.3-29.3 12-42.1 12.7-12.8.7-27.5-14.6-34.9-14.3-7.4.3-14.2 0-14.2 0-12-1.1-13-3.9-26-2.6-28.4 3-28.3 21.1-49.2 13.6-8.9-3.2-11.9-4.5-25.5-11.5-5.4-2.8-17.3-2.4-17.3-2.4l-9.1 12.2s6.8-.3 14.2 0c7.4.3 25.1 5.2 35.8 13.5 13.7 10.7 27.9-13.3 41.2-15.1 26.1-3.6 34.8 4.7 44.9 4.5 0 0 13.9-.7 18.9 2.6s10.2 17.8 30.2 12.6 30.7-21.7 43.1-14.7c12.4 7 14.8 10.7 33.9.4 19.1-10.3 33.7-16.8 41-14.2 7.3 2.6 37.4 6.6 42 16.2 4.6 9.6 3.5 21.9 3.5 21.9s8.5-21.1 1.6-29.1z"/><path fill="#17B24B" d="M264.6 48.9s-2.3-3.9-7.6-5.1c-5.3-1.2-6.9-2.2-6.9-2.2s6.2-6.3 2.5-10.2l-8-4.3s7.9-3.8 6.3-8.3c-1.6-4.4-4.6-7.5-4.6-7.5s3.7 2.2 6-2.1l1-8.4s1.2 4.2 5.2 5.5l5.9 1.9s-4.4 2.7-2.7 7.9l8.1 6.1s-5.2 3.8-4 8.1c1.2 4.2 7.2 7.7 7.2 7.7s-9.3 5.9-8.4 10.9z"/><path fill="#C1D862" d="M264.6 48.1l-11-46.2c.6 1.3 2 3.6 4.8 4.5 4 1.2 5.9 1.9 5.9 1.9s-4.4 2.7-2.7 7.9l8.1 6.1s-5.2 3.8-4 8.1c1.2 4.2 7.2 7.7 7.2 7.7s-8.3 5.2-8.3 10z"/><path fill="#0B7A3D" d="M264.6 48.1l-11-46.2c.6 1.3 2 3.6 4.8 4.5 4 1.2 5.9 1.9 5.9 1.9s-4.4 2.7-2.7 7.9l8.1 6.1s-5.2 3.8-4 8.1c1.2 4.2 7.2 7.7 7.2 7.7s-8.3 5.2-8.3 10z"/><path fill="#17B24B" d="M260.9 44.3s-3.4.2-6 3.4l-3.7 3.9s-2.1-6.2-5.9-5.1l-5.5 3.9s.1-6.5-3.4-6.9l-6.5.6s2.7-1.7.6-4.7-5.3-3.5-5.3-3.5 3.2.6 5.4-1.6l3.2-3.3s.3 3.8 4.3 4.5c4 .6 6.8-3.4 6.8-3.4s.8 4.7 4 5.3c3.2.6 7.5-2.2 7.5-2.2s.9 8.1 4.5 9.1z"/><path fill="#C1D862" d="M260.4 44.1l-34.4-8.2c1.1 0 3.1-.1 4.6-1.7 2.1-2.2 3.2-3.3 3.2-3.3s.3 3.8 4.3 4.5c4 .6 6.8-3.4 6.8-3.4s.8 4.7 4 5.3c3.2.6 7.5-2.2 7.5-2.2s.8 7.3 4 9z"/><path fill="#0B7A3D" d="M260.4 44.1l-34.4-8.2c1.1 0 3.1-.1 4.6-1.7 2.1-2.2 3.2-3.3 3.2-3.3s.3 3.8 4.3 4.5c4 .6 6.8-3.4 6.8-3.4s.8 4.7 4 5.3c3.2.6 7.5-2.2 7.5-2.2s.8 7.3 4 9z"/><path fill="#17B24B" d="M345.9 112.8s3.4 3 3.5 8.4c.1 5.4.7 7.2.7 7.2s7.4-4.8 10.4-.5c3.1 4.3 2.6 8.7 2.6 8.7s5.3-6.9 9.3-4.5c4 2.5 6.4 6 6.4 6s-1.5-4 3.2-5.5c4.6-1.4 8.4.7 8.4.7s-3.9-2-4.3-6.1c-.4-4.1-.7-6.1-.7-6.1s-3.5 3.8-8.2 1.1l-4.3-9.1s-4.7 4.3-8.6 2.3c-3.9-2-6-8.5-6-8.5s-7.7 7.9-12.4 5.9z"/><path fill="#C1D862" d="M346.7 113.1l42.9 19.8c-1.2-.9-3.1-2.7-3.4-5.5-.4-4.1-.7-6.1-.7-6.1s-3.5 3.8-8.2 1.1l-4.3-9.1s-4.7 4.3-8.6 2.3c-3.9-2-6-8.5-6-8.5s-7 6.8-11.7 6z"/><path fill="#17B24B" d="M272.4 109.8s4.2 1 8.5-1.8 6-3.2 6-3.2.2 8.3 5.2 8.5c5.1.1 8.2-2.6 8.2-2.6s-2.6 7.9 1.5 9.7c4.1 1.8 8.1 1.8 8.1 1.8s-4 1-2.6 5.4 5.1 6.2 5.1 6.2-3.7-2-7.1-.1l-5.2 2.7s1.1-4.8-3.5-7.1-9.5 1.5-9.5 1.5.8-6-2.8-8c-3.7-2-9.9-.2-9.9-.2s2-10.2-2-12.8z"/><path fill="#C1D862" d="M273 110.3l38.5 23.1c-1.3-.5-3.8-1-6.2.3-3.4 1.9-5.2 2.7-5.2 2.7s1.1-4.8-3.5-7.1-9.5 1.5-9.5 1.5.8-6-2.8-8c-3.7-2-9.9-.2-9.9-.2s1.8-9.1-1.4-12.3z"/><path fill="#5BB95D" d="M208.1 7.9s-2 3.1-6.3 3.8c-4.3.8-5.6 1.5-5.6 1.5s4.7 5.2 1.7 8.2c-3.1 3-6.6 3.1-6.6 3.1s6.2 3.3 4.7 6.8c-1.4 3.5-3.9 5.9-3.9 5.9s3-1.7 4.7 1.8l.5 6.8s1.1-3.4 4.3-4.2l4.8-1.3s-3.4-2.3-1.9-6.4c1.5-4.1 6.7-4.6 6.7-4.6s-4-3.2-2.9-6.6c1.1-3.4 6-5.9 6-5.9s-7.1-5-6.2-8.9z"/><path fill="#0B7A3D" d="M208 8.5l-10.3 36.6c.5-1 1.7-2.8 4-3.4 3.2-.8 4.8-1.3 4.8-1.3s-3.4-2.3-1.9-6.4c1.5-4.1 6.7-4.6 6.7-4.6s-4-3.2-2.9-6.6c1.1-3.4 6-5.9 6-5.9s-6.5-4.5-6.4-8.4z"/><path fill="#17B24B" d="M275.5 111.3s-3 3-8.2 2.8c-5.1-.2-6.8.3-6.8.3s4.1 7.2-.2 9.9-8.3 1.9-8.3 1.9 6.2 5.4 3.7 9c-2.6 3.6-6 5.7-6 5.7s3.9-1.1 4.9 3.3c1 4.5-1.2 7.9-1.2 7.9s2.1-3.6 6-3.7c3.9-.1 5.8-.3 5.8-.3s-3.3-3.5-.5-7.8l8.9-3.5s-3.7-4.7-1.6-8.3l8.4-5.2s-7-7.8-4.9-12z"/><path fill="#C1D862" d="M275.2 112l-21.3 39.2c.9-1.1 2.7-2.8 5.4-2.9 3.9-.1 5.8-.3 5.8-.3s-3.3-3.5-.5-7.8 8.9-3.5 8.9-3.5-3.7-4.7-1.6-8.3c2.1-3.6 8.4-5.2 8.4-5.2s-6.2-6.9-5.1-11.2z"/><path fill="#17B24B" d="M332.3 50.7s.8-3.5-1.7-7.2l-2.9-5s7-.3 7.1-4.6c0-4.3-2.4-6.9-2.4-6.9s6.7 2.1 8.2-1.4l1.4-6.9s.9 3.3 4.6 2.1l5.2-4.4s-1.6 3.1 0 6l2.4 4.3s-4-.8-5.9 3.1l1.4 8s-5.1-.6-6.7 2.5c-1.6 3.1 0 8.4 0 8.4s-8.6-1.4-10.7 2z"/><path fill="#0B7A3D" d="M332.7 50.2l18.8-33c-.4 1.1-.8 3.2.3 5.2 1.7 2.9 2.4 4.3 2.4 4.3s-4-.8-5.9 3.1l1.4 8s-5.1-.6-6.7 2.5c-1.6 3.1 0 8.4 0 8.4s-7.7-1.3-10.3 1.5zM346.7 113.1l42.9 19.8c-1.2-.9-3.1-2.7-3.4-5.5-.4-4.1-.7-6.1-.7-6.1s-3.5 3.8-8.2 1.1l-4.3-9.1s-4.7 4.3-8.6 2.3c-3.9-2-6-8.5-6-8.5s-7 6.8-11.7 6z"/><path fill="#17B24B" d="M338.3 55.3s4.2 1.7 6.1 6.8c1.9 5.1 3 6.5 3 6.5s5.4-6.9 9.7-3.8c4.3 3.1 5.3 7.3 5.3 7.3s2.7-8.3 7.3-7.3c4.6 1 8 3.6 8 3.6s-2.7-3.4 1.3-6.2l8.2-2.1s-4.3-.6-6.1-4.4c-1.7-3.7-2.6-5.5-2.6-5.5s-2.2 4.8-7.5 3.8l-7.1-7.2s-3.1 5.6-7.4 5c-4.3-.6-8.5-6.1-8.5-6.1s-4.7 9.8-9.7 9.6z"/><path fill="#0B7A3D" d="M339.1 55.2l47 4.7c-1.4-.4-3.8-1.5-5-4.1-1.7-3.7-2.6-5.5-2.6-5.5s-2.2 4.7-7.5 3.7c-5.4-1-7.1-7.2-7.1-7.2s-3.1 5.6-7.4 5c-4.3-.6-8.5-6.1-8.5-6.1s-4.2 8.8-8.9 9.5zM273 110.8l38.5 23.1c-1.3-.5-3.8-1-6.2.3-3.4 1.9-5.2 2.7-5.2 2.7s1.1-4.8-3.5-7.1-9.5 1.5-9.5 1.5.8-6-2.8-8c-3.7-2-9.9-.2-9.9-.2s1.8-9.1-1.4-12.3z"/><path fill="#17B24B" d="M266.2 111.5s-5 .5-9.7-3.5c-4.6-4-6.5-4.8-6.5-4.8s-1.6 9.7-7.6 9l-9.1-4.5s1.7 9.7-3.4 11.1c-5.1 1.5-9.8.8-9.8.8s4.5 1.9 2.1 6.8-7 6.4-7 6.4 4.6-1.7 8.3 1.1c3.7 2.8 5.6 4.1 5.6 4.1s-.5-5.8 5.4-7.7c5.8-1.9 10.9 3.3 10.9 3.3s.1-7.2 4.7-8.9c4.6-1.7 11.7 1.5 11.7 1.5s-.7-12.2 4.4-14.7z"/><path fill="#C1D862" d="M265.4 112l-49.1 20.4c1.6-.3 4.6-.6 7.2 1.4 3.7 2.8 5.6 4.1 5.6 4.1s-.5-5.8 5.4-7.7c5.8-1.9 10.9 3.3 10.9 3.3s.1-7.2 4.7-8.9c4.6-1.7 11.7 1.5 11.7 1.5s-.7-10.9 3.6-14.1z"/><path fill="#0B7A3D" d="M265.4 112l-49.1 20.4c1.6-.3 4.6-.6 7.2 1.4 3.7 2.8 5.6 4.1 5.6 4.1s-.5-5.8 5.4-7.7c5.8-1.9 10.9 3.3 10.9 3.3s.1-7.2 4.7-8.9c4.6-1.7 11.7 1.5 11.7 1.5s-.7-10.9 3.6-14.1z"/><path fill="#17B24B" d="M204.5 106.1s-2.1 3-6.5 3.7c-4.4.6-5.7 1.3-5.7 1.3s4.6 5.5 1.4 8.4c-3.2 2.9-6.8 2.9-6.8 2.9s6.1 3.6 4.5 7.1c-1.6 3.5-4.2 5.8-4.2 5.8s3.1-1.6 4.7 2 .2 6.9.2 6.9 1.2-3.4 4.5-4.1c3.3-.7 4.9-1.1 4.9-1.1s-3.4-2.5-1.7-6.6 7-4.4 7-4.4-3.9-3.4-2.7-6.8c1.2-3.4 6.3-5.7 6.3-5.7s-7-5.4-5.9-9.4z"/><path fill="#0B7A3D" d="M204.4 106.7l-11.9 36.7c.6-1 1.9-2.8 4.2-3.3 3.3-.7 4.9-1.1 4.9-1.1s-3.4-2.5-1.7-6.6 7-4.4 7-4.4-3.9-3.4-2.7-6.8c1.2-3.4 6.3-5.7 6.3-5.7s-6.4-4.9-6.1-8.8zM275.2 111.8l-21.3 39.2c.9-1.1 2.7-2.8 5.4-2.9 3.9-.1 5.8-.3 5.8-.3s-3.3-3.5-.5-7.8 8.9-3.5 8.9-3.5-3.7-4.7-1.6-8.3c2.1-3.6 8.4-5.2 8.4-5.2s-6.2-6.9-5.1-11.2z"/><path fill="#17B24B" d="M262.7 46.6s4.5-.3 8.5 3.4c4 3.7 5.7 4.4 5.7 4.4s1.7-8.6 6.9-7.8c5.3.8 8 4.2 8 4.2s-1.3-8.6 3.2-9.8c4.6-1.2 8.8-.5 8.8-.5s-3.9-1.8-1.7-6.1l6.3-5.5s-4.1 1.4-7.4-1.1l-4.9-3.7s.3 5.1-4.9 6.7c-5.2 1.6-9.6-3.2-9.6-3.2s-.2 6.4-4.4 7.8c-4.1 1.4-10.3-1.6-10.3-1.6s.4 10.8-4.2 12.8z"/><path fill="#C1D862" d="M263.3 46.2l44-17.1c-1.4.3-4.1.4-6.4-1.4-3.2-2.6-4.9-3.7-4.9-3.7s.3 5.1-4.9 6.7c-5.2 1.6-9.6-3.2-9.6-3.2s-.2 6.4-4.4 7.8c-4.1 1.4-10.3-1.6-10.3-1.6s.4 9.8-3.5 12.5z"/><path fill="#0B7A3D" d="M263.3 46.2l44-17.1c-1.4.3-4.1.4-6.4-1.4-3.2-2.6-4.9-3.7-4.9-3.7s.3 5.1-4.9 6.7c-5.2 1.6-9.6-3.2-9.6-3.2s-.2 6.4-4.4 7.8c-4.1 1.4-10.3-1.6-10.3-1.6s.4 9.8-3.5 12.5z"/><circle fill="#F1627A" cx="262.5" cy="42.8" r="8.2"/><path fill="#ED4855" d="M262.5 34.7c-2.9 0-5.4 1.5-6.9 3.8 1.3-.8 2.8-1.3 4.4-1.3 4.5 0 8.2 3.7 8.2 8.2 0 1.6-.5 3.1-1.3 4.4 2.3-1.5 3.8-4 3.8-6.9 0-4.6-3.7-8.2-8.2-8.2z"/><circle fill="#F1627A" cx="262.2" cy="112.8" r="7.7"/><path fill="#ED4855" d="M261.4 120.5c2.7.3 5.2-.9 6.8-2.9-1.3.6-2.7 1-4.3.8-4.2-.4-7.3-4.2-6.9-8.5.2-1.5.7-2.9 1.6-4-2.3 1.1-3.9 3.4-4.2 6.1-.3 4.3 2.8 8.1 7 8.5z"/><circle fill="#F1627A" cx="273.9" cy="113.3" r="7.7"/><path fill="#ED4855" d="M273.1 120.9c2.7.3 5.2-.9 6.8-2.9-1.3.6-2.7 1-4.3.8-4.2-.4-7.3-4.2-6.9-8.5.2-1.5.7-2.9 1.6-4-2.3 1.1-3.9 3.4-4.2 6.1-.3 4.3 2.8 8.1 7 8.5z"/><circle fill="#F1627A" cx="332.2" cy="52.8" r="7.7"/><path fill="#ED4855" d="M331.4 60.5c2.7.3 5.2-.9 6.8-2.9-1.3.6-2.7 1-4.3.8-4.2-.4-7.3-4.2-6.9-8.5.2-1.5.7-2.9 1.6-4-2.3 1.1-3.9 3.4-4.2 6.1-.3 4.3 2.8 8 7 8.5z"/><path fill="#17B24B" d="M173.3 14.3s1.4 3.3-.3 7.3c-1.8 4-1.9 5.5-1.9 5.5s7-1 7.8 3.2l-1.1 7.2s6.2-3.3 8.3-.1c2.1 3.2 2.6 6.6 2.6 6.6s.3-3.4 4.2-2.9c3.9.6 5.9 3.4 5.9 3.4s-2.2-2.8-1-5.9c1.1-3.1 1.6-4.7 1.6-4.7s-3.8 1.6-6.4-2c-2.5-3.6 0-8.1 0-8.1s-4.9 1.5-7.1-1.3c-2.2-2.8-1.5-8.3-1.5-8.3s-8.3 3.1-11.1.1z"/><path fill="#0B7A3D" d="M173.8 14.7l24.5 29.1c-.6-1-1.4-3-.6-5.2 1.1-3.1 1.6-4.7 1.6-4.7s-3.8 1.6-6.4-2v-8.1s-4.9 1.5-7.1-1.3c-2.2-2.8-1.5-8.3-1.5-8.3s-7.4 2.7-10.5.5z"/><path fill="#17B24B" d="M346.4 115.3s4.5.4 7.9 4.7c3.4 4.3 4.9 5.3 4.9 5.3s3-8.2 8.1-6.6c5.1 1.6 7.3 5.4 7.3 5.4s.1-8.7 4.7-9.1c4.7-.4 8.7.9 8.7.9s-3.6-2.4-.7-6.3c2.9-3.9 7.1-4.4 7.1-4.4s-4.3.7-7.1-2.3l-4.2-4.5s-.5 5.1-5.9 5.8c-5.4.7-8.9-4.7-8.9-4.7s-1.2 6.3-5.6 7c-4.3.7-9.9-3.2-9.9-3.2s-1.5 10.7-6.4 12z"/><path fill="#C1D862" d="M347.2 115l46.2-9.8c-1.5 0-4.1-.3-6.1-2.4l-4.2-4.5s-.5 5.1-5.9 5.8c-5.4.7-8.9-4.7-8.9-4.7s-1.2 6.3-5.6 7c-4.3.7-9.9-3.2-9.9-3.2s-1.3 9.7-5.6 11.8z"/><path fill="#0B7A3D" d="M347.2 115l46.2-9.8c-1.5 0-4.1-.3-6.1-2.4l-4.2-4.5s-.5 5.1-5.9 5.8c-5.4.7-8.9-4.7-8.9-4.7s-1.2 6.3-5.6 7c-4.3.7-9.9-3.2-9.9-3.2s-1.3 9.7-5.6 11.8z"/><path fill="#17B24B" d="M334.2 63s2.8 3.5 2 8.9c-.8 5.4-.5 7.2-.5 7.2s8.1-3.5 10.4 1.3c2.3 4.8 1.1 9 1.1 9s6.4-5.9 9.9-2.8c3.5 3.1 5.3 7 5.3 7s-.8-4.2 4.1-4.8c4.8-.6 8.1 2.1 8.1 2.1s-3.5-2.6-3.2-6.7c.3-4.1.4-6.1.4-6.1s-4.1 3.1-8.3-.3c-4.2-3.4-2.7-9.7-2.7-9.7s-5.4 3.4-8.9.8c-3.5-2.6-4.5-9.4-4.5-9.4s-8.9 6.2-13.2 3.5z"/><path fill="#0B7A3D" d="M334.9 63.4l38.9 26.8c-1-1-2.6-3.2-2.4-6 .3-4.1.4-6.1.4-6.1s-4.1 3.1-8.3-.3c-4.2-3.4-2.7-9.7-2.7-9.7s-5.4 3.4-8.9.8c-3.5-2.6-4.5-9.4-4.5-9.4s-8 5.6-12.5 3.9z"/><circle fill="#F1627A" cx="336.6" cy="65.9" r="7.7"/><path fill="#ED4855" d="M334.5 73.3c2.6.7 5.3 0 7.2-1.7-1.4.4-2.9.5-4.3.1-4.1-1.1-6.5-5.4-5.4-9.5.4-1.5 1.2-2.7 2.3-3.7-2.4.7-4.4 2.7-5.2 5.3-1.1 4.1 1.3 8.4 5.4 9.5z"/><circle fill="#F1627A" cx="348.7" cy="115.3" r="7.7"/><path fill="#ED4855" d="M347.9 122.9c2.7.3 5.2-.9 6.8-2.9-1.3.6-2.7 1-4.3.8-4.2-.4-7.3-4.2-6.9-8.5.2-1.5.7-2.9 1.6-4-2.3 1.1-3.9 3.4-4.2 6.1-.3 4.3 2.8 8.1 7 8.5z"/><path fill="#C1D862" d="M202.9 107.8l-52 21.7c1.7-.3 4.9-.6 7.6 1.5 3.9 3 5.9 4.3 5.9 4.3s-.5-6.1 5.7-8.1 11.5 3.5 11.5 3.5.1-7.6 5-9.4c4.9-1.8 12.4 1.6 12.4 1.6s-.6-11.7 3.9-15.1z"/><path fill="#17B24B" d="M203.7 107.3s-5.3.5-10.2-3.7l-6.9-5.1s-1.7 10.3-8 9.5c-6.3-.8-9.7-4.7-9.7-4.7s1.8 10.2-3.6 11.8c-5.4 1.5-10.4.8-10.4.8s4.7 2 2.2 7.2-7.4 6.8-7.4 6.8 4.9-1.8 8.8 1.1c3.9 3 5.9 4.3 5.9 4.3s-.5-6.1 5.7-8.1 11.5 3.5 11.5 3.5.1-7.6 5-9.4l12.4 1.6s-.7-13.1 4.7-15.6z"/><path fill="#0B7A3D" d="M202.9 107.8l-52 21.7c1.7-.3 4.9-.6 7.6 1.5 3.9 3 5.9 4.3 5.9 4.3s-.5-6.1 5.7-8.1 11.5 3.5 11.5 3.5.1-7.6 5-9.4c4.9-1.8 12.4 1.6 12.4 1.6s-.6-11.7 3.9-15.1z"/><path fill="#17B24B" d="M114.5 70.9s3.7-1.5 8.1.5c4.4 2 6 2.2 6 2.2s-1-7.7 3.7-8.5c4.7-.8 7.9 1.3 7.9 1.3s-3.5-6.9 0-9.2c3.5-2.2 7.3-2.8 7.3-2.8s-3.8-.4-3.1-4.7c.7-4.3 3.8-6.4 3.8-6.4s-3.1 2.3-6.5 1.1c-3.4-1.3-5.1-1.8-5.1-1.8s1.7 4.3-2.3 7l-9-.1s1.6 5.4-1.6 7.8l-9.2 1.5s3.4 9.1 0 12.1z"/><path fill="#0B7A3D" d="M115 70.4l32.5-26.5c-1.1.6-3.4 1.5-5.8.6-3.4-1.3-5.1-1.8-5.1-1.8s1.7 4.3-2.3 7c-4 2.8-9-.1-9-.1s1.6 5.4-1.6 7.8c-3.1 2.3-9.2 1.5-9.2 1.5s3 8.1.5 11.5z"/><path fill="#C1D862" d="M115 70.4l32.5-26.5c-1.1.6-3.4 1.5-5.8.6-3.4-1.3-5.1-1.8-5.1-1.8s1.7 4.3-2.3 7c-4 2.8-9-.1-9-.1s1.6 5.4-1.6 7.8c-3.1 2.3-9.2 1.5-9.2 1.5s3 8.1.5 11.5z"/><path fill="#17B24B" d="M175.6 80.3s-1.9-3.9-.1-8.8c1.8-4.9 1.9-6.6 1.9-6.6s-8.3 1.6-9.5-3.4c-1.2-5 .8-8.7.8-8.7s-7.2 4.3-9.9.6c-2.7-3.6-3.6-7.7-3.6-7.7s-.2 4.1-4.8 3.7c-4.7-.4-7.2-3.7-7.2-3.7s2.8 3.2 1.6 7c-1.1 3.8-1.6 5.7-1.6 5.7s4.5-2.1 7.7 2c3.3 4.1.6 9.7.6 9.7s5.8-2.1 8.5 1.1c2.8 3.2 2.3 9.8 2.3 9.8s9.9-4.1 13.3-.7z"/><path fill="#0B7A3D" d="M175 79.9l-31.1-33.2c.7 1.2 1.8 3.5 1 6.2-1.1 3.8-1.6 5.7-1.6 5.7s4.5-2.1 7.7 2l.6 9.7s5.8-2.1 8.5 1.1c2.8 3.2 2.3 9.8 2.3 9.8s8.8-3.8 12.6-1.3z"/><circle fill="#F1627A" cx="142.7" cy="46.2" r="7.7"/><path fill="#ED4855" d="M141.9 53.9c2.7.3 5.2-.9 6.8-2.9-1.3.6-2.7 1-4.3.8-4.2-.4-7.3-4.2-6.9-8.5.2-1.5.7-2.9 1.6-4-2.3 1.1-3.9 3.4-4.2 6.1-.3 4.3 2.8 8.1 7 8.5z"/><circle fill="#F1627A" cx="151.3" cy="46.6" r="7.7"/><path fill="#ED4855" d="M150.5 54.3c2.7.3 5.2-.9 6.8-2.9-1.3.6-2.7 1-4.3.8-4.2-.4-7.3-4.2-6.9-8.5.2-1.5.7-2.9 1.6-4-2.3 1.1-3.9 3.4-4.2 6.1-.3 4.3 2.7 8.1 7 8.5z"/><path fill="#17B24B" d="M109.1 112.6s1.7 4.2-.6 9.2c-2.3 5-2.5 6.8-2.5 6.8s8.8-1.1 9.7 4.2c.9 5.3-1.5 9-1.5 9s7.9-3.9 10.4.1l3.2 8.3s.5-4.3 5.3-3.5c4.8.8 7.3 4.4 7.3 4.4s-2.6-3.5-1.2-7.4l2.1-5.8s-4.8 1.9-7.9-2.7c-3.1-4.5.1-10.2.1-10.2s-6.2 1.8-8.8-1.8c-2.6-3.5-1.7-10.4-1.7-10.4s-10.5 3.6-13.9-.2z"/><path fill="#C1D862" d="M109.7 113.1l30 37c-.7-1.3-1.6-3.8-.6-6.5 1.5-3.9 2.1-5.8 2.1-5.8s-4.8 1.9-7.9-2.7c-3.1-4.5.1-10.2.1-10.2s-6.2 1.8-8.8-1.8c-2.6-3.5-1.7-10.4-1.7-10.4s-9.3 3.3-13.2.4z"/><path fill="#0B7A3D" d="M109.7 113.1l30 37c-.7-1.3-1.6-3.8-.6-6.5 1.5-3.9 2.1-5.8 2.1-5.8s-4.8 1.9-7.9-2.7c-3.1-4.5.1-10.2.1-10.2s-6.2 1.8-8.8-1.8c-2.6-3.5-1.7-10.4-1.7-10.4s-9.3 3.3-13.2.4z"/><path fill="#17B24B" d="M106.9 112.7s-2.2 2.5-6.2 2.8c-4 .2-5.3.7-5.3.7s3.7 5.4.5 7.7c-3.2 2.4-6.4 2.1-6.4 2.1s5.2 3.8 3.5 6.8c-1.7 3-4.3 4.9-4.3 4.9s3-1.2 4.1 2.3c1.1 3.4-.4 6.2-.4 6.2s1.4-2.9 4.4-3.3l4.5-.6s-2.9-2.5-1-6.1c1.9-3.6 6.7-3.4 6.7-3.4s-3.3-3.4-1.8-6.4c1.4-2.9 6.2-4.6 6.2-4.6s-5.8-5.6-4.5-9.1z"/><path fill="#C1D862" d="M106.8 113.3l-13.9 32.2c.6-.9 1.9-2.4 4-2.6l4.5-.6s-2.9-2.5-1-6.1c1.9-3.6 6.7-3.4 6.7-3.4s-3.3-3.4-1.8-6.4c1.4-2.9 6.2-4.6 6.2-4.6s-5.3-5.1-4.7-8.5z"/><path fill="#0B7A3D" d="M106.8 113.3l-13.9 32.2c.6-.9 1.9-2.4 4-2.6l4.5-.6s-2.9-2.5-1-6.1c1.9-3.6 6.7-3.4 6.7-3.4s-3.3-3.4-1.8-6.4c1.4-2.9 6.2-4.6 6.2-4.6s-5.3-5.1-4.7-8.5z"/><circle fill="#F1627A" cx="104" cy="116.9" r="5.8"/><path fill="#ED4855" d="M103.4 122.7c2.1.2 4-.7 5.2-2.2-1 .5-2.1.7-3.2.6-3.2-.3-5.5-3.2-5.2-6.4.1-1.2.6-2.2 1.2-3-1.7.9-3 2.6-3.2 4.6-.4 3.2 2 6 5.2 6.4z"/><circle fill="#F1627A" cx="110.7" cy="113.7" r="5.8"/><path fill="#ED4855" d="M110.1 119.5c2.1.2 4-.7 5.2-2.2-1 .5-2.1.7-3.2.6-3.2-.3-5.5-3.2-5.2-6.4.1-1.2.6-2.2 1.2-3-1.7.9-3 2.6-3.2 4.6-.3 3.2 2 6 5.2 6.4z"/><path fill="#17B24B" d="M84.1 45.4s-.5-4.5 3.1-8.7l4.3-5.9s-8.7-1.4-8.1-6.7c.6-5.3 3.9-8.2 3.9-8.2s-8.6 1.6-10-2.9l-.8-8.8s-1.6 4-6.1 1.9c-4.5-2-5.8-6.1-5.8-6.1s1.6 4.1-.9 7.5c-2.5 3.3-3.6 5-3.6 5s5.2-.5 6.9 4.7c1.8 5.2-2.9 9.8-2.9 9.8s6.4 0 8 4.1c1.6 4.1-1.2 10.5-1.2 10.5s11-.7 13.2 3.8z"/><path fill="#C1D862" d="M83.6 44.8l-18.8-43.8c.3 1.4.5 4.1-1.2 6.5-2.5 3.3-3.6 5-3.6 5s5.2-.5 6.9 4.7c1.8 5.2-2.9 9.8-2.9 9.8s6.4 0 8 4.1c1.6 4.1-1.2 10.5-1.2 10.5s9.9-.6 12.8 3.2z"/><path fill="#0B7A3D" d="M83.6 44.8l-18.8-43.8c.3 1.4.5 4.1-1.2 6.5-2.5 3.3-3.6 5-3.6 5s5.2-.5 6.9 4.7c1.8 5.2-2.9 9.8-2.9 9.8s6.4 0 8 4.1c1.6 4.1-1.2 10.5-1.2 10.5s9.9-.6 12.8 3.2z"/><path fill="#17B24B" d="M86.3 45.9s2.8-1.9 6.7-1c3.9.9 5.3.8 5.3.8s-2.1-6.2 1.6-7.6l6.7-.3s-4-5.1-1.5-7.5c2.5-2.4 5.5-3.5 5.5-3.5s-3.2.3-3.3-3.3l2.1-5.9s-2.1 2.4-5.2 2c-3-.5-4.5-.6-4.5-.6s2.1 3.2-.7 6.1l-7.3 1.4s2.2 4.2 0 6.6c-2.1 2.4-7.2 2.8-7.2 2.8s4 7 1.8 10z"/><path fill="#C1D862" d="M86.5 45.4l22.1-27.2c-.8.7-2.5 1.8-4.6 1.4-3-.5-4.5-.6-4.5-.6s2.1 3.2-.7 6.1c-2.8 2.9-7.3 1.4-7.3 1.4s2.2 4.2 0 6.6c-2.1 2.4-7.2 2.8-7.2 2.8s3.7 6.3 2.2 9.5z"/><path fill="#0B7A3D" d="M86.5 45.4l22.1-27.2c-.8.7-2.5 1.8-4.6 1.4-3-.5-4.5-.6-4.5-.6s2.1 3.2-.7 6.1c-2.8 2.9-7.3 1.4-7.3 1.4s2.2 4.2 0 6.6c-2.1 2.4-7.2 2.8-7.2 2.8s3.7 6.3 2.2 9.5z"/><circle fill="#F1627A" cx="90.2" cy="42.7" r="5.8"/><path fill="#ED4855" d="M92.4 37.3c-1.9-.8-4-.4-5.6.7 1.1-.2 2.2-.1 3.3.3 3 1.2 4.5 4.6 3.3 7.6-.4 1.1-1.1 2-2 2.6 1.9-.4 3.5-1.7 4.3-3.6 1.1-3-.3-6.4-3.3-7.6z"/><circle fill="#F1627A" cx="82.8" cy="44" r="5.8"/><path fill="#ED4855" d="M85 38.5c-1.9-.8-4-.4-5.6.7 1.1-.2 2.2-.1 3.3.3 3 1.2 4.5 4.6 3.3 7.6-.4 1.1-1.1 2-2 2.6 1.9-.4 3.5-1.7 4.3-3.6 1.1-3-.3-6.4-3.3-7.6z"/><path fill="#17B24B" d="M74.6 90.3s-2.7 2-6.7 1.2l-5.2-.5s2.4 6.1-1.3 7.6c-3.6 1.6-6.7.5-6.7.5s4.2 4.9 1.8 7.4c-2.4 2.5-5.3 3.7-5.3 3.7s3.2-.4 3.5 3.1c.3 3.6-1.8 6-1.8 6s2-2.5 5.1-2.2l4.5.4s-2.2-3.1.5-6.1c2.7-3 7.3-1.7 7.3-1.7s-2.4-4.1-.3-6.6c2-2.5 7.1-3.1 7.1-3.1s-4.6-6.6-2.5-9.7z"/><path fill="#C1D862" d="M74.4 90.8l-21 28.1c.8-.7 2.4-1.9 4.5-1.6 3 .3 4.5.4 4.5.4s-2.2-3.1.5-6.1c2.7-3 7.3-1.7 7.3-1.7s-2.4-4.1-.3-6.6c2-2.5 7.1-3.1 7.1-3.1s-4-6.1-2.6-9.4z"/><path fill="#0B7A3D" d="M74.4 90.8l-21 28.1c.8-.7 2.4-1.9 4.5-1.6 3 .3 4.5.4 4.5.4s-2.2-3.1.5-6.1c2.7-3 7.3-1.7 7.3-1.7s-2.4-4.1-.3-6.6c2-2.5 7.1-3.1 7.1-3.1s-4-6.1-2.6-9.4z"/></svg>