<svg xmlns="http://www.w3.org/2000/svg" viewBox="0 0 325.5 115" enable-background="new 0 0 325.5 115"><path stroke="#9A6C3D" stroke-width="1.147" stroke-linecap="round" stroke-linejoin="round" stroke-miterlimit="10" d="M206.5 4.2c4-1.9 8.1 2.3 4.9 5.4-3.2 3.1-18.3 15-3.5 26.6s22.7-14.7 41.3-19.5 44.6-2.3 45.6 13.6c1 15.9-15.5 31.6-9.7 40.4l39.9-6.2M217.1 39s-9.8 9.2-2 13.3c7.1 3.7 3.8-5.7 3.8-5.7" fill="none"/><path fill="#EDE0B7" d="M181.3 26.6c0-.3-.1-.7-.3-1-.2-.4-.5-.8-.9-1.1.9.1 1.7-.2 2.5-.7l.1-.1c.3-.2.5-.4.8-.7l3.8-3.5v-1.5l-4.2-1c-.1-.1-.2-.1-.2-.2-.1-.1-.2-.1-.3-.1l-.1-.1c-.5-.2-1.1-.3-1.6-.3.6-1.1.7-2.2.6-3.3v-.1l-.1-.6-1-4.3-4.1 1.2-1.1.3c-1 .4-1.8 1.1-2.5 2.1-.2-.6-.6-1.1-1.2-1.5l-4.9-2.9-1.1 4.9c-.2.5-.3 1-.3 1.6v.1c0 .8.2 1.6.6 2.2h-.5c-.3 0-.7.1-1 .2l-4.4-.5v1.5l1.9 3.6c.2.8.7 1.6 1.5 2l.7.3c.2 1.7.9 3.3 2.1 4.6 2.3-2.1 5.5-5 5.5-5l-1.3 7.4c1.5.2 3.3 0 4.7-.5.3.4.6.8 1.1 1.1.8.5 1.7.5 2.5.3h4.1v-1.5l-1.4-2.9zM130.9 31.1c0-.3-.1-.7-.3-1-.2-.4-.5-.8-.9-1.1.9.1 1.7-.2 2.5-.7l.1-.1c.3-.2.5-.4.8-.7l3.8-3.5v-1.5l-4.2-1c-.1-.1-.2-.1-.2-.2-.1-.1-.2-.1-.3-.1l-.1-.1c-.5-.2-1.1-.3-1.6-.3.6-1.1.7-2.2.6-3.3v-.1l-.1-.6-1-4.3-4.1 1.2-1.1.3c-1 .4-1.8 1.1-2.5 2.1-.2-.6-.6-1.1-1.2-1.5l-4.9-2.9-1.1 4.9c-.2.5-.3 1-.3 1.6v.1c0 .8.2 1.6.6 2.2h-.5c-.3 0-.7.1-1 .2l-4.4-.5v1.5l1.9 3.6c.2.8.7 1.6 1.5 2l.7.3c.2 1.7.9 3.3 2.1 4.6 2.3-2.1 5.5-5 5.5-5l-1.3 7.4c1.5.2 3.3 0 4.7-.5.3.4.6.8 1.1 1.1.8.5 1.7.5 2.5.3h4.1v-1.5l-1.4-2.9zM93.3 12.3h-1c-.5.1-.9.3-1.3.6.2-.8.2-1.7-.1-2.6v-.1c-.1-.3-.3-.6-.5-.9l-2.5-4.5-1.5-.3-1.9 3.9c-.1.1-.2.1-.2.2l-.2.3-.2.1c-.3.5-.5 1-.6 1.5-.9-.8-2-1.2-3.1-1.3h-5.1000000000000005l.2 4.3c0 .4 0 .7.1 1.1.2 1 .7 2 1.5 2.9-.6.1-1.2.4-1.8.8l-4 4.1 4.5 2.2c.5.3.9.6 1.5.7h.1c.8.2 1.6.2 2.3-.1-.1.2-.1.3-.1.5-.1.3-.1.7 0 1l-1.5 4.1 1.5.3 4-1.1c.9 0 1.7-.3 2.3-1l.5-.6c1.7.2 3.4-.2 4.9-1-1.5-2.7-3.6-6.5-3.6-6.5l6.9 2.9c.6-1.4.8-3.2.5-4.7.5-.2 1-.4 1.3-.8.6-.6.9-1.5.9-2.4l.9-4-1.5-.3-3.2.7zM24.3 76.1l.3 1c.2.4.5.8.9 1-.9 0-1.7.3-2.4.9l-.1.1c-.3.2-.5.5-.7.7l-3.6 3.7.1 1.5 4.3.7.3.2c.1.1.2.1.3.1l.2.1c.5.2 1.1.2 1.6.2-.5 1.1-.6 2.3-.4 3.3v.1c0 .2.1.4.2.6l1.2 4.3 4-1.4c.4-.1.7-.2 1.1-.4.9-.5 1.8-1.2 2.3-2.2.3.6.7 1.1 1.3 1.5l5.1 2.6.8-5c.2-.5.3-1.1.2-1.6v-.1c0-.8-.3-1.6-.8-2.2h.5c.3 0 .7-.1 1-.3l4.4.3-.1-1.5-2.1-3.5c-.3-.8-.8-1.5-1.6-1.9-.2-.1-.5-.2-.8-.3-.3-1.7-1.1-3.3-2.4-4.4-2.2 2.2-5.2 5.3-5.2 5.3l.8-7.4c-1.5-.1-3.3.2-4.6.8-.3-.4-.7-.8-1.2-1-.8-.4-1.7-.4-2.5-.2l-4.1.3.1 1.5 1.6 2.6zM181.5 77.2l.3 1c.2.4.5.8.9 1-.9 0-1.7.3-2.4.9l-.1.1c-.3.2-.5.5-.7.7l-3.6 3.7.1 1.5 4.3.7.3.2c.1.1.2.1.3.1l.2.1c.5.2 1.1.2 1.6.2-.5 1.1-.6 2.3-.4 3.3v.1c0 .2.1.4.2.6l1.2 4.3 4-1.4c.4-.1.7-.2 1.1-.4.9-.5 1.8-1.2 2.3-2.2.3.6.7 1.1 1.3 1.5l5.1 2.6.8-5c.2-.5.3-1.1.2-1.6v-.1c0-.8-.3-1.6-.8-2.2h.5c.3 0 .7-.1 1-.3l4.4.3-.1-1.5-2.1-3.5c-.3-.8-.8-1.5-1.6-1.9-.2-.1-.5-.2-.8-.3-.3-1.7-1.1-3.3-2.4-4.4-2.2 2.2-5.2 5.3-5.2 5.3l.8-7.4c-1.5-.1-3.3.2-4.6.8-.3-.4-.7-.8-1.2-1-.8-.4-1.7-.4-2.5-.2l-3.9.2.1 1.5 1.4 2.7zM300.9 16.2c-.3-.2-.6-.4-.9-.5-.4-.2-.9-.2-1.4-.2.7-.6 1.1-1.4 1.3-2.3v-.1c.1-.3.1-.7.1-1l.3-5.1-1.1-1-3.7 2.3h-.3l-.3.1h-.2c-.5.2-1 .5-1.3.9-.3-1.1-1-2.1-1.9-2.8h-.1l-.5-.3-3.7-2.4-2.1 3.7c-.2.3-.4.6-.6 1-.4 1-.5 2.1-.3 3.2-.6-.3-1.2-.4-1.9-.3l-5.6 1.3 2.7 4.3c.2.5.5 1 .9 1.4.6.6 1.2 1 2 1.1-.1.1-.3.2-.4.4-.2.3-.4.5-.6.9l-3.5 2.7 1.1 1.1 3.9 1.2c.7.5 1.6.6 2.5.4.3-.1.5-.2.7-.3 1.4 1.1 3 1.7 4.7 1.8.2-3.1.5-7.4.5-7.4l4.2 6.2c1.2-.9 2.4-2.3 3-3.7.5.1 1 .2 1.6 0 .9-.2 1.6-.8 2-1.5l2.9-2.9-1.1-1.1-2.9-1.1zM294.6 71.4c-.4-.3-.8-.6-1.3-.7-.6-.2-1.3-.3-2-.3.9-.8 1.6-1.9 1.8-3.2v-.1c.1-.5.1-1 .1-1.4l.4-7.3-1.5-1.5-5.2 3.2c-.1 0-.3 0-.4.1-.2 0-.3.1-.5.2l-.2.1c-.7.3-1.4.8-1.9 1.3-.5-1.6-1.5-3-2.7-3.9l-.1-.1c-.2-.2-.5-.3-.8-.5l-5.3-3.5-3 5.3c-.3.4-.6.9-.8 1.4-.6 1.4-.8 2.9-.4 4.5-.8-.4-1.8-.5-2.7-.4v-.1l-7.9 1.9 3.8 6.1c.3.7.7 1.4 1.2 1.9v.1c.8.8 1.8 1.4 2.8 1.6-.2.2-.4.3-.5.5-.3.4-.6.8-.8 1.2l-5 3.8 1.5 1.5 5.5 1.8c1 .6 2.3.9 3.5.6.4-.1.7-.2 1.1-.4 1.9 1.5 4.2 2.5 6.7 2.6.3-4.4.7-10.5.7-10.5l6 8.8c1.7-1.2 3.4-3.2 4.2-5.2.7.2 1.5.2 2.2 0 1.2-.3 2.2-1.1 2.9-2.1l4.1-4.1-1.5-1.5-4-1.7z"/><path stroke="#9A6C3D" stroke-width="1.147" stroke-linecap="round" stroke-linejoin="round" stroke-miterlimit="10" d="M22.4 92.5c0 4.6 2.3 6.5 5.4 6.5s5-2.4 4.6-6.8c-.5-4.7-10.6-15.4-7.2-27.7s20.7-28.1 13.3-32.5-11.6-5.4-9.8-9.7c2.1-5.1 7.5-.2 7.5-.2M74.3 95.9s-2.2-9.4 5.5-10.4 4.1 12.4 10.2 11.6c6.1-.8-6.6-12 2.3-13.2s9.7 5.1 20.5 6.1c10.7 1 14.5-11.6 25.6-12.2s28.6 17.8 38.3 14.4c9.8-3.4 20-19 11.3-24-8.8-5-11.6 3.8-9.8 6.7 1.8 2.8 6.4 1.2 6.8-.9" fill="none"/><path fill="#C1D862" d="M69.3 28.1c-.3-.2-.6-.4-1-.5-.5-.2-1-.2-1.5-.2.7-.6 1.2-1.5 1.3-2.5v-.1c.1-.4.1-.7 0-1.1l.2-5.5-1.1-1.1-3.9 2.5h-.3l-.3.1h-.2c-.6.2-1 .6-1.4 1-.4-1.2-1.1-2.2-2.1-2.9h-.1l-.6-.4-4-2.5-2.2 4c-.2.3-.4.7-.6 1.1-.4 1-.5 2.2-.3 3.4-.6-.3-1.3-.4-2-.3l-5.9 1.5 2.9 4.5c.2.6.5 1 .9 1.5v.1c.6.6 1.3 1 2.2 1.2l-.4.4-.6.9-3.7 2.9 1.1 1.1 4.2 1.3c.8.5 1.7.7 2.7.4l.8-.3c1.5 1.1 3.2 1.8 5.1 1.9.2-3.4.4-7.9.4-7.9l4.6 6.5c1.3-.9 2.5-2.5 3.1-4 .5.1 1.1.2 1.7 0 .9-.2 1.7-.8 2.1-1.6l3.1-3.1-1.1-1.1-3.1-1.2z"/><path fill="#6BC6B5" d="M68.2 26.9c-.3-.2-.6-.4-1-.5-.5-.2-1-.2-1.5-.2.7-.6 1.2-1.5 1.3-2.5v-.1c.1-.4.1-.7 0-1.1l.2-5.5-5.1 1.3h-.3l-.3.1h-.2c-.6.2-1 .6-1.4 1-.4-1.2-1.1-2.2-2.1-2.9h-.1l-.6-.4-4-2.5-2.2 4c-.2.3-.4.7-.6 1.1-.4 1-.5 2.2-.3 3.4-.6-.3-1.3-.4-2-.3l-5.9 1.5 2.9 4.5c.2.6.5 1 .9 1.5v.1c.6.6 1.3 1 2.2 1.2l-.4.4-.6.9-2.6 4 4.2 1.3c.8.5 1.7.7 2.7.4l.8-.3c1.5 1.1 3.2 1.8 5.1 1.9.2-3.4.4-7.9.4-7.9l4.8 6.4c1.3-.9 2.3-2.3 2.9-3.8.5.1 1.1.2 1.7 0 .9-.2 1.7-.8 2.1-1.6l3.1-3.1-4.1-2.3z"/><path opacity=".69" fill="#F6D86C" d="M46.7 25l7.2 3.1-3.6 6 5.2-4.9-.9 6.5 2.7-7.5 8.8 1.4-6.9-3.2 5.1-5.2-7.4 2.8-2.9-4.9s1 5.4 1 5.9h-8.3z"/><path fill="#C1D862" d="M115.9 25.7l-.4-.5c-.2-.2-.5-.3-.8-.4.5-.2.9-.6 1.2-1.1.1-.2.2-.4.2-.6l1.2-2.9-.4-.8-2.6.6h-.5c-.3 0-.7.1-1 .3 0-.7-.2-1.4-.6-2-.1-.1-.2-.2-.2-.3l-1.7-2.2-2 1.8c-.2.1-.4.3-.5.5-.4.5-.7 1.1-.8 1.8-.3-.3-.7-.5-1.1-.5l-3.5-.3.7 3c0 .3.1.7.2 1 .2.5.5.8.9 1.1l-.3.1c-.2.1-.4.2-.5.4l-2.6.9.4.8 2 1.5c.3.4.8.7 1.4.7h.5c.6.9 1.4 1.6 2.4 2 .7-1.8 1.8-4.2 1.8-4.2l1.2 4.5c.9-.3 1.8-.9 2.5-1.6.3.2.6.3.9.3.6.1 1.1-.1 1.5-.5l2.3-1.1-.4-.8-1.4-1.5z"/><path fill="#6BC6B5" d="M115.5 24.9l-.4-.5c-.2-.2-.5-.3-.8-.4.5-.2.9-.6 1.2-1.1.1-.2.2-.4.2-.6l1.2-2.9-3-.3h-.5c-.3 0-.7.1-1 .3 0-.7-.2-1.4-.6-2-.1-.1-.2-.2-.2-.3l-1.7-2.2-2 1.8c-.2.1-.4.3-.5.5-.4.5-.7 1.1-.8 1.8-.3-.3-.7-.5-1.1-.5l-3.5-.5.7 3c0 .3.1.7.2 1 .2.5.5.8.9 1.1l-.3.1c-.2.1-.4.2-.5.4l-2.2 1.7 2 1.5c.3.4.8.7 1.4.7h.5c.6.9 1.4 1.6 2.4 2 .7-1.8 1.8-4.2 1.8-4.2l1.4 4.4c.9-.3 1.7-.8 2.3-1.5.3.2.6.3.9.3.6.1 1.1-.1 1.5-.5l2.3-1.1-1.8-2z"/><path opacity=".69" fill="#F6D86C" d="M104.2 19.7l3.3 3.1-3.1 2.6 3.8-1.7-1.8 3.4 2.9-3.6 4.5 2.5-3.2-3.1 3.8-1.9-4.6.1-.6-3.2s-.5 3.2-.6 3.4l-4.4-1.6z"/><path fill="#C1D862" d="M194.7 28.2c0-.2.1-.4 0-.6 0-.3-.1-.6-.3-.8.5.2 1.1.2 1.6.1.2-.1.4-.1.6-.3l2.9-1.3.3-.9-2.3-1.4-.1-.2c0-.1-.1-.1-.2-.1l-.1-.1c-.3-.2-.6-.4-.9-.5.5-.5.9-1.2 1-1.8v-.4l.3-2.7-2.5-.2h-.7c-.6 0-1.3.3-1.8.7 0-.4-.2-.8-.4-1.1l-2.3-2.7-1.6 2.7c-.2.3-.4.6-.5.9-.2.5-.2 1-.1 1.4l-.3-.1c-.2-.1-.4-.1-.6-.1l-2.5-1.2-.3.9.4 2.5c0 .5.1 1.1.5 1.5.1.1.2.2.4.3-.2 1.1-.1 2.1.3 3.1 1.8-.8 4.2-1.8 4.2-1.8l-2.2 4.1c.8.4 1.9.7 2.9.6.1.3.2.6.4.9.4.4.9.6 1.4.7l2.4.8.3-.9-.2-2z"/><path fill="#6BC6B5" d="M195 27.3c0-.2.1-.4 0-.6 0-.3-.1-.6-.3-.8.5.2 1.1.2 1.6.1.2-.1.4-.1.6-.3l2.9-1.3-2-2.3-.1-.2c0-.1-.1-.1-.2-.1l-.1-.1c-.3-.2-.6-.4-.9-.5.5-.5.9-1.2 1-1.8v-.4l.3-2.7-2.6-.1h-.7c-.6 0-1.3.3-1.8.7 0-.4-.2-.8-.4-1.1l-2.3-2.7-1.6 2.7c-.2.3-.4.6-.5.9-.2.5-.2 1-.1 1.4l-.3-.1c-.2-.1-.4-.1-.6-.1l-2.8-.3.4 2.5c0 .5.1 1.1.5 1.5.1.1.2.2.4.3-.2 1.1-.1 2.1.3 3.1 1.8-.8 4.2-1.8 4.2-1.8l-2 4.1c.8.4 1.8.6 2.7.5.1.3.2.6.4.9.4.4.9.6 1.4.7l2.4.8.2-2.9z"/><path opacity=".69" fill="#F6D86C" d="M190.5 15.7l.3 4.5-4.1-.3 3.9 1.4-3.6 1.2 4.6-.6 1.5 4.9-.1-4.4 4 1.3-3.3-3.1 1.7-2.7s-2.6 1.9-2.8 2l-2.1-4.2z"/><path fill="#C1D862" d="M284.6 71.1l.1.6c.1.3.3.5.5.7-.5-.1-1.1.1-1.6.4-.2.1-.3.2-.5.4l-2.4 2v.9l2.6.7.1.1.2.1.1.1c.3.1.7.2 1 .2-.4.6-.5 1.4-.4 2 0 .1 0 .3.1.4l.5 2.7 2.6-.6c.2 0 .5-.1.7-.2.6-.2 1.2-.6 1.6-1.2.1.4.4.7.7 1l3 1.9.8-3c.1-.3.2-.6.3-1 0-.5-.1-1-.3-1.4h.3c.2 0 .4 0 .6-.1l2.7.5v-.9l-1.1-2.3c-.1-.5-.4-1-.9-1.3-.1-.1-.3-.2-.4-.2-.1-1.1-.5-2.1-1.2-2.9-1.5 1.2-3.5 2.9-3.5 2.9l1-4.5c-.9-.2-2-.1-2.9.2-.2-.3-.4-.5-.6-.7-.5-.3-1-.4-1.5-.3l-2.5-.1v.9l.3 2z"/><path fill="#6BC6B5" d="M284.6 72l.1.6c.1.3.3.5.5.7-.5-.1-1.1.1-1.6.4-.2.1-.3.2-.5.4l-2.4 2 2.5 1.6.1.1.2.1.1.1c.3.1.7.2 1 .2-.4.6-.5 1.4-.4 2 0 .1 0 .3.1.4l.5 2.7 2.6-.6c.2 0 .5-.1.7-.2.6-.2 1.2-.6 1.6-1.2.1.4.4.7.7 1l3 1.9.8-3c.1-.3.2-.6.3-1 0-.5-.1-1-.3-1.4h.3c.2 0 .4 0 .6-.1l2.7-.5-1.1-2.3c-.1-.5-.4-1-.9-1.3-.1-.1-.3-.2-.4-.2-.1-1.1-.5-2.1-1.2-2.9-1.5 1.2-3.5 2.9-3.5 2.9l.8-4.5c-.9-.2-1.9-.1-2.8.2-.2-.3-.4-.5-.6-.7-.5-.3-1-.4-1.5-.3l-2.5-.1.5 3z"/><path opacity=".69" fill="#F6D86C" d="M292.1 81.9l-1.5-4.3 4-.8-4.1-.3 3.1-2.1-4.3 1.8-2.8-4.3 1.3 4.2-4.2-.2 4.1 2.1-.9 3.1s2-2.5 2.1-2.7l3.2 3.5z"/><path fill="#C1D862" d="M161 39c-.1-.5-.2-.9-.4-1.4v-.1c-.3-.6-.7-1.1-1.2-1.5 1.2.1 2.4-.3 3.4-1l.1-.1c.4-.3.7-.6 1-.9l5.2-4.7v-2.1l-5.7-1.3-.3-.3-.4-.2-.2-.1c-.7-.3-1.5-.4-2.2-.4.8-1.5 1-3 .8-4.5v-.1c0-.3-.1-.6-.2-.8l-1.3-5.9-5.6 1.6c-.5.1-1 .2-1.5.4-1.3.5-2.5 1.5-3.4 2.8-.3-.8-.9-1.5-1.6-2.1l-6.7-4-1.5 6.7c-.3.7-.5 1.4-.5 2.1v.1c0 1.1.3 2.1.9 3h-.7999999999999999c-.5 0-.9.1-1.4.3l-6-.7v2.1l2.6 4.9c.3 1.1 1 2.2 2 2.8.3.2.7.3 1 .4.3 2.4 1.3 4.5 2.8 6.3 3.2-2.9 7.5-6.8 7.5-6.8l-1.8 10c2 .3 4.5.1 6.4-.7.4.6.8 1.1 1.5 1.5 1 .6 2.3.7 3.4.4h5.6v-2.1l-1.5-3.6z"/><path fill="#6BC6B5" d="M161 36.9c-.1-.5-.2-.9-.4-1.4v-.1c-.3-.6-.7-1.1-1.2-1.5 1.2.1 2.4-.3 3.4-1l.1-.1c.4-.3.7-.6 1-.9l5.2-4.7-5.7-3.4-.3-.3-.4-.2-.2-.1c-.7-.3-1.5-.4-2.2-.4.8-1.5 1-3 .8-4.5v-.1c0-.3-.1-.6-.2-.8l-1.3-5.9-5.6 1.6c-.5.1-1 .2-1.5.4-1.3.5-2.5 1.5-3.4 2.8-.3-.8-.9-1.5-1.6-2.1l-6.7-4-1.5 6.7c-.3.7-.5 1.4-.5 2.1v.1c0 1.1.3 2.1.9 3h-.7999999999999999c-.5 0-.9.1-1.4.3l-6 1.3 2.6 4.9c.3 1.1 1 2.2 2 2.8.3.2.7.3 1 .4.3 2.4 1.3 4.5 2.8 6.3 3.2-2.9 7.5-6.8 7.5-6.8l-1.4 10c2 .3 4.1.1 6-.7.4.6.8 1.1 1.5 1.5 1 .6 2.3.7 3.4.4h5.6l-1.5-5.6z"/><path opacity=".69" fill="#F6D86C" d="M143.5 15.9l3.7 9.3-8.7 2.1 9.1.2-6.7 5 9.2-4.3 6.6 9.2-3.3-9.1 9.3-.1-9.2-4.2 1.7-6.9s-4.1 5.8-4.4 6.1l-7.3-7.3z"/><path fill="#C1D862" d="M181.5 55.1c.3.1.7.2 1.1.2.5 0 1-.1 1.4-.3-.4.8-.6 1.7-.5 2.7v.1l.3 1 1.5 5.1 1.4.7 2.8-3.5.3-.1c.1-.1.2-.2.3-.2l.1-.1c.4-.4.8-.9 1-1.4.7 1 1.7 1.7 2.8 2h.1l.6.2 4.5 1.1.8-4.4c.1-.4.2-.8.2-1.2.1-1.1-.2-2.2-.8-3.2.7.1 1.3-.1 2-.4l5-3.2-4.1-3.3c-.4-.4-.8-.8-1.3-1-.7-.4-1.6-.5-2.4-.4.1-.2.2-.3.2-.5l.3-1 2.5-3.8-1.4-.7-4.3.1c-.9-.2-1.8-.1-2.6.4l-.6.5c-1.7-.6-3.5-.7-5.2-.1.9 3.1 2.1 7.4 2.1 7.4l-6.3-4.6c-.9 1.3-1.5 3-1.6 4.6-.5 0-1.1.2-1.5.5-.8.5-1.3 1.3-1.4 2.2l-1.9 3.8 1.4.7 3.2.1z"/><path fill="#6BC6B5" d="M182.9 55.8c.3.1.7.2 1.1.2.5 0 1-.1 1.4-.3-.4.8-.6 1.7-.5 2.7v.1l.3 1 1.5 5.1 4.2-2.8.3-.1c.1-.1.2-.2.3-.2l.1-.1c.4-.4.8-.9 1-1.4.7 1 1.7 1.7 2.8 2h.1l.6.2 4.5 1.1.8-4.4c.1-.4.2-.8.2-1.2.1-1.1-.2-2.2-.8-3.2.7.1 1.3-.1 2-.4l5-3.2-4.1-3.3c-.4-.4-.8-.8-1.3-1-.7-.4-1.6-.5-2.4-.4.1-.2.2-.3.2-.5l.3-1 1.1-4.5-4.3.1c-.9-.2-1.8-.1-2.6.4l-.6.5c-1.7-.6-3.5-.7-5.2-.1.9 3.1 2.1 7.4 2.1 7.4l-6.4-4.3c-.9 1.3-1.4 2.8-1.5 4.4-.5 0-1.1.2-1.5.5-.8.5-1.3 1.3-1.4 2.2l-1.9 3.8 4.6.7z"/><path opacity=".69" fill="#F6D86C" d="M203.2 50.9l-7.6-.6 1.4-6.7-3.2 6.2-1.2-6.3-.1 7.8-8.5 1.4 7.4.8-3.1 6.4 5.9-4.9 4.1 3.5s-2.6-4.7-2.7-5.1l7.6-2.5z"/><path fill="#C1D862" d="M268.2 47.4c-.1-.8-.3-1.5-.6-2.2v-.1c-.5-1-1.1-1.8-1.9-2.5 2 .1 4-.5 5.7-1.7l.1-.1c.6-.4 1.2-1 1.7-1.6l8.5-7.8v-3.4l-9.5-2.2-.5-.4-.7-.3-.3-.2c-1.2-.5-2.4-.7-3.7-.6 1.2-2.4 1.6-5 1.3-7.5v-.2l-.3-1.4-2.2-9.8-9.3 2.7c-.8.1-1.7.4-2.5.7-2.2.9-4.1 2.5-5.6 4.7-.5-1.4-1.4-2.6-2.6-3.5l.1-.1-11.1-6.6-2.4 11.1c-.5 1.2-.8 2.4-.8 3.6v.1c0 1.8.5 3.6 1.4 5h-1.3c-.8 0-1.5.2-2.3.5l-9.9-1.2v3.4l4.4 8.2c.5 1.9 1.6 3.6 3.3 4.6.5.3 1.1.5 1.7.7.5 3.9 2.1 7.5 4.7 10.4 5.3-4.7 12.5-11.2 12.5-11.2l-2.9 16.6c3.3.5 7.4.1 10.6-1.2.6 1 1.4 1.9 2.5 2.5 1.7 1 3.8 1.2 5.6.7l9.3-.1v-3.4l-3-6.2z"/><path fill="#6BC6B5" d="M268.2 44c-.1-.8-.3-1.5-.6-2.2v-.1c-.5-1-1.1-1.8-1.9-2.5 2 .1 4-.5 5.7-1.7l.1-.1c.6-.4 1.2-1 1.7-1.6l8.5-7.8-9.5-5.6-.5-.4-.7-.3-.3-.2c-1.2-.5-2.4-.7-3.7-.6 1.2-2.4 1.6-5 1.3-7.5v-.2l-.3-1.4-2.2-9.8-9.3 2.7c-.8.1-1.7.4-2.5.7-2.2.9-4.1 2.5-5.6 4.7-.5-1.4-1.4-2.6-2.6-3.5l.1-.1-11.3-6.5-2.4 11.1c-.5 1.2-.8 2.4-.8 3.6v.1c0 1.8.5 3.6 1.4 5h-1.3c-.8 0-1.5.2-2.3.5l-9.9 2.2 4.4 8.2c.5 1.9 1.6 3.6 3.3 4.6.5.3 1.1.5 1.7.7.5 3.9 2.1 7.5 4.7 10.4 5.3-4.7 12.5-11.2 12.5-11.2l-2.3 16.6c3.3.5 6.8.1 10-1.2.6 1 1.4 1.9 2.5 2.5 1.7 1 3.8 1.2 5.6.7l9.3-.1-2.8-9.7z"/><path opacity=".69" fill="#F6D86C" d="M239.1 9.1l6.2 15.4-14.4 3.5 15.1.3-11.1 8.3 15.3-7.2 10.9 15.2-5.5-15.2 15.5-.1-15.2-7 2.9-11.4s-6.7 9.6-7.4 10.2l-12.3-12z"/><path fill="#C1D862" d="M25.8 73.9c-.4-.4-.8-.8-1.1-1.2-.4-.6-.7-1.3-.7-2.1-.7 1.2-1.8 2.2-3.1 2.7h-.1c-.5.2-1 .3-1.6.4l-7.8 2.1-2-1.3 2.3-6.4v-.5c0-.2.1-.4.1-.5v-.3c.2-.9.5-1.7 1-2.4-1.9-.2-3.6-.9-4.9-2l-.1-.1c-.3-.2-.5-.5-.7-.7l-5-5 5.1-4.5c.4-.4.8-.8 1.3-1.2 1.4-.9 3-1.5 4.9-1.5-.6-.8-1-1.8-1.1-2.9h-.1l.2-9.1 7.5 2.7c.9.1 1.7.4 2.4.9h.1c1.1.7 1.9 1.6 2.4 2.7l.4-.7c.3-.4.7-.8 1.2-1.2l3-6.3 2 1.3 3.2 5.6c.9 1 1.5 2.3 1.5 3.7 0 .4-.1.8-.2 1.2 2.1 1.8 3.7 4.1 4.4 6.7-4.8 1.6-11.3 3.4-11.3 3.4l10.9 4.5c-.9 2.2-2.7 4.4-4.7 5.8.4.7.6 1.5.6 2.4 0 1.4-.7 2.7-1.7 3.6l-3.5 5.5-2-1.3-2.8-4z"/><path fill="#6BC6B5" d="M23.8 72.6c-.4-.4-.8-.8-1.1-1.2-.4-.7-.7-1.4-.7-2.1-.7 1.2-1.8 2.2-3.1 2.7h-.1c-.5.2-1 .3-1.6.4l-7.8 2.1.3-7.7v-.5c0-.2.1-.4.1-.5v-.3c.2-.9.5-1.7 1-2.4-1.9-.2-3.6-.9-4.9-2l-.1-.1c-.3-.2-.5-.5-.7-.7l-5-5 5.1-4.5c.4-.4.8-.8 1.3-1.2 1.4-.9 3-1.5 4.9-1.5-.6-.8-1-1.8-1.1-2.9h-.1l.2-9.1 7.5 2.7c.9.1 1.7.4 2.4.9h.1c1.1.7 1.9 1.6 2.4 2.7l.4-.7c.3-.4.7-.8 1.2-1.2l5-5 3.2 5.6c.9 1 1.5 2.3 1.5 3.7 0 .4-.1.8-.2 1.2 2.1 1.8 3.7 4.1 4.4 6.7-4.8 1.4-11.3 3.2-11.3 3.2l10.7 5.1c-.9 2.2-2.5 4.1-4.5 5.5.4.7.6 1.5.6 2.4 0 1.4-.7 2.7-1.7 3.6l-3.5 5.5-4.8-5.4z"/><path opacity=".69" fill="#F6D86C" d="M14 42.4l6.8 9.4 7.5-7.2-5.5 9.1 9.1-3.5-10 6.4 4.9 12.2-6.8-9.1-5.9 9.1 1.6-11.6-7.8-2.6s8.2-.4 8.8-.5l-2.7-11.7z"/><path fill="#C1D862" d="M58.9 78.7l-.6.3h-.9c.4.4.6.9.7 1.5v.7999999999999999l-.1 3.2-.7.6-2.3-1.6h-.2l-.2-.1h-.1c-.3-.2-.6-.4-.8-.7-.3.7-.8 1.3-1.4 1.6-.1.1-.2.1-.4.2l-2.5 1.3-1.1-2.5c-.1-.2-.2-.4-.3-.7-.2-.6-.2-1.3 0-2.1-.4.1-.8.2-1.2.1l-3.5-1.2 1.9-2.6c.2-.3.4-.6.6-.8.4-.3.9-.6 1.3-.6-.1-.1-.2-.2-.2-.3l-.3-.6-2.1-1.9.7-.6 2.6-.6c.5-.2 1.1-.3 1.6-.1l.5.2c.9-.6 2-.9 3.1-.9-.1 2-.1 4.7-.1 4.7l3-3.7c.7.6 1.4 1.6 1.7 2.5.3-.1.7 0 1 .1.5.2.9.6 1.2 1.1l1.7 2-.7.6-1.9.8z"/><path fill="#6BC6B5" d="M58.2 79.3l-.6.3c-.3.1-.6.1-.9 0 .4.4.6.9.7 1.5v.7999999999999999l-.1 3.3-2.9-1h-.2c-.2-.2-.2-.2-.3-.2h-.1c-.3-.2-.6-.4-.8-.7-.3.7-.8 1.3-1.4 1.6-.1.1-.2.1-.4.2l-2.5 1.3-1.1-2.5c-.1-.2-.2-.4-.3-.7-.2-.6-.2-1.3 0-2.1-.4.1-.8.2-1.2.1l-3.5-1.2 1.9-2.6c.2-.3.4-.6.6-.8.4-.3.9-.6 1.3-.6-.1-.1-.2-.2-.2-.3l-.3-.6-1.3-2.5 2.6-.6c.5-.2 1.1-.3 1.6-.1l.5.2c.9-.6 2-.9 3.1-.9-.1 2-.1 4.7-.1 4.7l3.2-3.5c.7.6 1.3 1.5 1.6 2.4.3-.1.7 0 1 .1.5.2.9.6 1.2 1.1l1.7 2-2.8 1.3z"/><path opacity=".69" fill="#F6D86C" d="M45.4 79.4l4.4-1.5-1.9-3.8 2.8 3.2-.2-3.9 1.2 4.6 5.3-.4-4.3 1.6 2.8 3.4-4.3-2-1.9 2.7s.8-3.2.8-3.4l-4.7-.5z"/><path fill="#EDE0B7" d="M221.8 37.1c-.3-.2-.6-.4-.9-.5-.4-.2-.9-.2-1.4-.2.7-.6 1.1-1.4 1.3-2.3v-.1c.1-.3.1-.7.1-1l.3-5.1-1.1-1.1-3.7 2.3h-.3l-.3.1h-.2c-.5.2-1 .5-1.3.9-.3-1.1-1-2.1-1.9-2.8h-.1l-.5-.3-3.7-2.4-2.1 3.7c-.2.3-.4.6-.6 1-.4 1-.5 2.1-.3 3.2-.6-.3-1.2-.4-1.9-.3l-5.6 1.3 2.7 4.3c.2.5.5 1 .9 1.4.6.6 1.2 1 2 1.1-.1.1-.3.2-.4.4-.2.3-.4.5-.6.9l-3.5 2.7 1.1 1.1 3.9 1.2c.7.5 1.6.6 2.5.4.3-.1.5-.2.7-.3 1.4 1.1 3 1.7 4.7 1.8.2-3.1.5-7.4.5-7.4l4.2 6.2c1.2-.9 2.4-2.3 3-3.7.5.1 1 .2 1.6 0 .9-.2 1.6-.8 2-1.5l2.9-2.9-1.1-1.1-2.9-1z"/><path stroke="#9A6C3D" stroke-width="1.147" stroke-linecap="round" stroke-linejoin="round" stroke-miterlimit="10" d="M283.6 62.5s-22.5-5.5-32.4 3.2-25.8 22-21.6 37.5c4.2 15.5 20.5 11.7 19.6 7.5-.9-4.2-4.9-2.5-4.9-2.5" fill="none"/><path fill="#C1D862" d="M246.5 93.1c-.5.1-1 .2-1.5.1h-.1c-.7-.1-1.4-.3-2-.6.5 1.2.6 2.6.3 3.9v.1c-.1.5-.3 1-.6 1.4l-2.9 7.1-2.1.8-3.6-5.4-.4-.2-.4-.4-.2-.2c-.6-.6-1-1.3-1.2-2.1-1.2 1.3-2.7 2.2-4.3 2.5h-.1c-.3.1-.6.1-.9.1l-6.6.9-.5-6.4c-.1-.5-.2-1.1-.1-1.7.1-1.6.6-3.1 1.6-4.5-1 0-1.9-.3-2.8-.8v.1l-6.7-5.3 6.3-4.1c.6-.6 1.3-1 2-1.3h.1c1.1-.4 2.3-.5 3.4-.3l-.3-.7v-.1c-.1-.5-.2-1-.2-1.5l-3.1-5.8 2.1-.8 6.1.8c1.3-.2 2.6.2 3.6 1 .3.3.6.6.8.9 2.5-.6 5.2-.4 7.5.5-1.7 4.4-4.1 10.3-4.1 10.3l9.6-5.7c1.1 2 1.8 4.6 1.7 6.9.8.1 1.5.4 2.1.9 1 .8 1.6 2 1.8 3.3l2.1 5.8-2.1.8-4.3-.3z"/><path fill="#6BC6B5" d="M244.4 93.9c-.5.1-1 .2-1.5.1h-.1c-.7-.1-1.4-.3-2-.6.5 1.2.6 2.6.3 3.9v.1c-.1.5-.3 1-.6 1.4l-2.9 7.1-5.7-4.6-.4-.2-.4-.4-.2-.2c-.6-.6-1-1.3-1.2-2.1-1.2 1.3-2.7 2.2-4.3 2.5h-.1c-.3.1-.6.1-.9.1l-6.6.9-.5-6.4c-.1-.5-.2-1.1-.1-1.7.1-1.6.6-3.1 1.6-4.5-1 0-1.9-.3-2.8-.8v.1l-6.7-5.3 6.3-4.1c.6-.6 1.3-1 2-1.3h.1c1.1-.4 2.3-.5 3.4-.3l-.3-.7v-.1c-.1-.5-.2-1-.2-1.5l-.9-6.6 6.1.8c1.3-.2 2.6.2 3.6 1 .3.3.6.6.8.9 2.5-.6 5.2-.4 7.5.5-1.7 4.4-4.1 10.3-4.1 10.3l9.8-5.3c1.1 2 1.6 4.2 1.6 6.5.8.1 1.5.4 2.1.9 1 .8 1.6 2 1.8 3.3l2.1 5.8-6.6.5z"/><path opacity=".69" fill="#F6D86C" d="M216 84l11 .2-1.2-9.8 3.7 9.3 2.6-8.8-.9 11.1 12 3.2-10.7.1 3.5 9.6-7.8-7.8-6.4 4.4s4.4-6.4 4.6-6.9l-10.4-4.6z"/><path fill="#C1D862" d="M163.3 75.9l-.3.9c-.2.4-.5.7-.9 1 .8 0 1.7.3 2.4.8l.1.1c.3.2.5.4.7.7l3.5 3.5-.1 1.4-4.1.7c-.1.1-.2.1-.2.2-.1.1-.2.1-.3.1l-.1.1c-.5.2-1 .2-1.6.2.5 1 .6 2.2.4 3.2v.1c0 .2-.1.4-.2.6l-1.1 4.1-3.9-1.3-1-.3c-.9-.4-1.7-1.1-2.3-2.1-.3.6-.7 1-1.2 1.4l-4.8 2.6-.8-4.7c-.2-.5-.3-1-.3-1.5v-.1c0-.8.3-1.5.7-2.1h-.5c-.3 0-.6-.1-.9-.3l-4.2.3.1-1.4 2-3.4c.2-.8.7-1.5 1.5-1.9l.7-.3c.3-1.6 1-3.1 2.2-4.3l5 5-.9-7.1c1.4-.2 3.1.1 4.5.7.3-.4.6-.8 1.1-1 .8-.4 1.6-.4 2.4-.2l3.9.2-.1 1.4-1.4 2.7z"/><path fill="#6BC6B5" d="M163.3 77.4l-.3.9c-.2.4-.5.7-.9 1 .8 0 1.7.3 2.4.8l.1.1c.3.2.5.4.7.7l3.5 3.5-4.1 2.2c-.1.1-.2.1-.2.2-.1.1-.2.1-.3.1l-.1.1c-.5.2-1 .2-1.6.2.5 1 .6 2.2.4 3.2v.1c0 .2-.1.4-.2.6l-1.1 4.1-3.9-1.3-1-.3c-.9-.4-1.7-1.1-2.3-2.1-.3.6-.7 1-1.2 1.4l-4.8 2.6-.8-4.7c-.2-.5-.3-1-.3-1.5v-.1c0-.8.3-1.5.7-2.1h-.5c-.3 0-.6-.1-.9-.3l-4.1-1.1 2-3.4c.2-.8.7-1.5 1.5-1.9l.7-.3c.3-1.6 1-3.1 2.2-4.3l5 5-.7-7.1c1.4-.2 2.9.1 4.2.7.3-.4.6-.8 1.1-1 .8-.4 1.6-.4 2.4-.2l3.9.2-1.5 4z"/><path opacity=".69" fill="#F6D86C" d="M150.4 91.5l2.9-6.4-6-1.8 6.4.1-4.5-3.7 6.3 3.3 4.9-6.2-2.6 6.3 6.5.3-6.5 2.6 1 4.9s-2.6-4.2-2.9-4.4l-5.5 5z"/></svg>