<svg xmlns="http://www.w3.org/2000/svg" xmlns:xlink="http://www.w3.org/1999/xlink" viewBox="0 0 133.8 300" enable-background="new 0 0 133.8 300"><path fill="#1693A7" d="M36.1 130h60v80h-60z"/><path fill="none" d="M25.9 207.9l1.9-.5 3.4-.9zM29.1 212.4l-1.3-5zM9.2 212.3l3.7-1 4.4-1.1zM17.9 210l5.2 19.9-2-7.4z"/><path fill="#1693A7" d="M17.9 210zM9.2 212.3l8.1-2.1.6-.1 5-1.3 3.1-.8 5.3-1.4 1.5-.4-6.5-24.9c-.9-3.4-.3-6.9 1.3-9.8 1.7-2.8 4.4-5.1 7.8-6l12.5-3.3-6.5-24.9-12.5 3.3c-10.3 2.7-18.5 9.3-23.5 17.9-5 8.5-6.7 19-4 29.3l6.5 24.9h.1l1.2-.4z"/><path fill="#EEE0B7" d="M27.8 207.4l1.3 5 .5-.1 1.3 4.9-.5.2 5-1.3-2.6-10h-.1l-1.5.4zM29.1 212.4l-1.3-5-1.9.5-3.1.8-5 1.3 3.3 12.5-2-7.5.5-.1 3.9 14.9-.5.1 1.3 5 5-1.3-1.3-5 5-1.3-2.9-11.1-1-3.8zm-1 16.2l-3.9-14.9.5-.1 3.9 14.9-.5.1zM17.9 210l-.6.2-4.4 1.1 5.2 20-3.9-15 .5-.1 3.9 14.9-.5.2 5-1.4-5.2-19.9zM7.9 212.6l3.9 15 5-1.3-3.9-15-3.7 1z"/><path fill="#B2A58E" d="M30.9 217.2l-1.3-4.9-.5.1 1 3.8.3 1.2zM28.029 228.666l-3.912-14.895.484-.127 3.912 14.895zM19.7 214.9l-.5.1 1.9 7.5 2 7.4.5-.1zM14.154 216.325l.484-.127 3.937 14.992-.484.127z"/><path fill="none" d="M104.8 207.1l1.2.3.4.1zM123.4 212l-6.9-1.8 4.4 1.1z"/><path fill="#1693A7" d="M111 208.7zM128.5 158.5c-5-8.5-13.2-15.2-23.5-17.9l-12.5-3.3-6.5 24.9 12.5 3.3c3.4.9 6.2 3.1 7.8 6s2.2 6.3 1.3 9.8l-6.5 24.9 3.7 1 1.6.4 4.6 1.2 5 1.3.6.1 6.9 1.8 2.5.7h.1l6.5-24.9c2.6-10.3.9-20.8-4.1-29.3z"/><path fill="#EEE0B7" d="M101.1 206.1h-.1l-2.6 10 5 1.3-.5-.2 1.3-4.9.5.1 1.3-5-1.2-.3zM106.4 207.5l-.4-.1-5.2 19.9 4.9 1.3-.5-.1 4-14.9.5.1-4 14.9 5.3-19.9zM123.4 212l-2.5-.6-4.4-1.2-.5-.2-5-1.3-6.5 24.9 5 1.3 1.3-5 5 1.3-.5-.1 3.9-14.9.5.1-2.6 10 5 1.3 3.9-14.9-2.6-.7zm-13.2 17.8l3.9-14.9.5.1-3.9 14.9-.5-.1z"/><path fill="#B2A58E" d="M103.405 217.407l-.484-.127 1.295-4.933.484.127zM105.2 228.538l3.912-14.895.484.127-3.912 14.895zM110.179 229.826l3.937-14.992.484.127-3.937 14.992zM119.1 216.2l-3.9 14.9.5.2 1.3-5 2.6-10z"/><circle fill="#EEE0B7" cx="66.1" cy="100" r="50"/><path fill="#B2A58E" d="M70.1 112h-8l4-12z"/><circle fill="#FF6179" cx="65.6" cy="118" r="4"/><path fill="#fff" d="M65.6 114c-2.2 0-4 1.8-4 4h8c0-2.2-1.8-4-4-4z"/><path fill="#B2A58E" d="M73.6 106c0-.4.1-.8.2-1.2.2-.4.4-.7.6-1 .3-.3.6-.5 1-.6.4-.2.8-.2 1.2-.2s.8.1 1.2.2c.4.2.7.4 1 .6.3.3.5.6.6 1 .2.4.2.8.2 1.2v2h1v-2c0-.5-.1-1.1-.3-1.6-.2-.5-.5-.9-.9-1.3s-.8-.7-1.3-.9c-.5-.2-1-.3-1.6-.3s-1.1.1-1.6.3c-.5.2-.9.5-1.3.9s-.7.8-.9 1.3c-.2.5-.3 1-.3 1.6v2h1v-2zM52.6 106l.2-1.2.6-.9 1-.7 1.2-.2 1.1.2 1 .7.6.9.3 1.2v2h1v-2l-.4-1.6-.8-1.2-1.3-.9-1.5-.3-1.6.3-1.3.9-.8 1.2-.3 1.6v2h1v-2z"/><circle fill="#FF99AD" cx="49.6" cy="118" r="6"/><circle fill="#FF99AD" cx="82.6" cy="118" r="6"/><defs><circle id="a" cx="66.1" cy="100" r="50"/></defs><clipPath><use xlink:href="#a" overflow="visible"/></clipPath><path fill="#E6781E" d="M115.1 90c-4.6-22.8-24.8-40-49-40s-44.4 17.2-49 40h36.5l12.5-10 12.5 10h36.5z"/><path fill="#1693A7" d="M29 66.7v-7.4c0-20.4 16.7-37 37-37 20.4 0 37 16.7 37 37v7.4h-74z"/><path fill="#fff" d="M62.1 29.6l-6.9-3.9-4-6.9v-8l4-6.8 6.9-4h7.9l6.9 4 4 6.8v8l-4 6.9-6.9 3.9z"/><path fill="#F8FCC1" d="M66.1 160.3c-11 0-20 9-20 20s9 20 20 20 20-9 20-20-9-20-20-20zm-2 35.9c-3.1-.4-5.9-1.7-8.2-3.6l8.2-8.2v11.8zm4-11.8l8.2 8.2c-2.3 1.9-5.1 3.2-8.2 3.6v-11.8zm-4-19.9v14.3l-10.9 10.9c-1.9-2.6-3.1-5.9-3.1-9.4 0-8.1 6.1-14.8 14-15.8zm14.9 25.2l-10.9-10.9v-14.3c7.9 1 14 7.7 14 15.9 0 3.4-1.2 6.7-3.1 9.3z"/><path fill="#CC0C39" d="M56.1 270h-30l10-60h30zM66.1 210h30v60h-30z"/><path fill="#3E4147" d="M96.1 292.5v-22.5h-30v30h37.5zM25.9 292.5v-22.5h30v30h-37.5z"/></svg>