<svg xmlns="http://www.w3.org/2000/svg" viewBox="0 0 34.3 26.8" enable-background="new 0 0 34.3 26.8"><path fill="#B2A58E" d="M8.3 23.7c-.3 0-.6-.3-.6-.6v-2.5c0-.3.3-.6.6-.6s.6.3.6.6v2.5c0 .3-.3.6-.6.6zM10.8 23.7c-.3 0-.6-.3-.6-.6v-2.5c0-.3.3-.6.6-.6s.6.3.6.6v2.5c0 .3-.3.6-.6.6zM7 21.8l-4.3-2.5-2.5-4.3v-5l2.5-4.4 4.3-2.5h5l4.4 2.5 2.5 4.4v5l-2.5 4.3-4.4 2.5z"/><path fill="#fff" d="M7.6 19.7l-3.3-2-2-3.3v-3.8l2-3.4 3.3-1.9h3.8l3.4 1.9 1.9 3.4v3.8l-1.9 3.3-3.4 2z"/><path fill="#E32345" d="M8.1 17.8l-2.5-1.4-1.4-2.5v-2.8l1.4-2.5 2.5-1.4h2.8l2.5 1.4 1.5 2.5v2.8l-1.5 2.5-2.5 1.4z"/><path fill="#B2A58E" d="M7.8 12.5l-2.8-1.7-1.7-2.9v-3.3l1.7-2.9 2.8-1.7h3.4l2.9 1.7 1.7 2.9v3.3l-1.7 2.9-2.9 1.7z"/><path fill="#F1627A" d="M11.2 12.5l2.9-1.7.3-.5-1-1.7-2.5-1.4h-2.8l-2.5 1.4-1 1.7.4.5 2.8 1.7z"/><circle fill="#fff" cx="7.8" cy="5.6" r=".6"/><circle fill="#1D1D1B" cx="7.8" cy="5.6" r=".3"/><circle fill="#fff" cx="11.2" cy="5.6" r=".6"/><circle fill="#1D1D1B" cx="11.2" cy="5.6" r=".3"/><path fill="#1D1D1B" d="M8.4 7.2l1.1 2.1.9-2.1z"/><path stroke="#7C6B50" stroke-width=".312" stroke-linecap="round" stroke-linejoin="round" stroke-miterlimit="10" fill="none" d="M2.7 5.9l-.3 4.5-.1 3.7-2.1.9M16.4 5.9l.2 4.5.1 3.7 2.2.9"/><path fill="#B2A58E" d="M27.5 24.9c-.2 0-.4-.2-.4-.4v-1.5c0-.2.2-.4.4-.4s.4.2.4.4v1.6c0 .2-.1.3-.4.3zM29.1 24.9c-.2 0-.4-.2-.4-.4v-1.5c0-.2.2-.4.4-.4s.4.2.4.4v1.6c0 .2-.1.3-.4.3zM26.8 23.8l-2.8-1.6-1.6-2.8v-3.1l1.6-2.8 2.8-1.6h3.1l2.8 1.6 1.5 2.8v3.1l-1.5 2.8-2.8 1.6z"/><path fill="#fff" d="M27.1 22.4l-2.1-1.2-1.2-2.1v-2.5l1.2-2.1 2.1-1.2h2.5l2.1 1.2 1.2 2.1v2.5l-1.2 2.1-2.1 1.2z"/><path fill="#E32345" d="M27.4 21.2l-1.5-.9-.9-1.5v-1.8l.9-1.6 1.5-.9h1.8l1.6.9.9 1.6v1.8l-.9 1.5-1.6.9z"/><path fill="#B2A58E" d="M27.3 17.9l-1.8-1.1-1.1-1.8v-2.1l1.1-1.9 1.8-1h2.1l1.8 1 1.1 1.9v2.1l-1.1 1.8-1.8 1.1z"/><path fill="#F1627A" d="M29.4 17.9l1.8-1.1.2-.3-.6-1.1-1.6-.9h-1.8l-1.5.9-.6 1.1.2.3 1.8 1.1z"/><circle fill="#fff" cx="27.3" cy="13.5" r=".4"/><circle fill="#1D1D1B" cx="27.3" cy="13.5" r=".2"/><circle fill="#fff" cx="29.4" cy="13.5" r=".4"/><circle fill="#1D1D1B" cx="29.4" cy="13.5" r=".2"/><path fill="#1D1D1B" d="M27.7 14.5l.6 1.4.6-1.4z"/><path fill="#7C6B50" d="M22.4 19.5c-.1-.1-.1-.2 0-.2l1.3-.5.1-2.3.1-2.8c0-.1 0-.1.1-.1s.1 0 .1.1l-.1 2.8-.1 2.3s0 .1-.1.1l-1.4.6zM34.2 19.5l-1.4-.5s-.1 0-.1-.1l-.1-2.3-.1-2.8c0-.1 0-.1.1-.1s.1 0 .1.1l.1 2.8.1 2.3 1.3.5c.1 0 .2 0 0 .1z"/><path fill="#fff" d="M10.7 24.7c-.3-1.1-1.6-1.9-3.2-1.9s-2.9.8-3.2 1.9h6.4zM17.2 25.7c-.4-1.6-2.3-2.8-4.6-2.8s-4.2 1.2-4.6 2.8h9.2zM31.5 26.8c-.3-1.3-1.9-2.3-3.9-2.3-1.9 0-3.5 1-3.9 2.3h7.8z"/></svg>