<svg xmlns="http://www.w3.org/2000/svg" viewBox="0 0 319.2 333" enable-background="new 0 0 319.2 333"><path fill="#C62246" d="M319.2 313l-40-10-40 10v-110l40-10 40 10v55z"/><path fill="#AD1E3D" d="M279.2 193l-40 10v110l40-10z"/><path fill="#FC284F" d="M279.2 213l-40-10v110l40 10 40-10v-110l-40 10zm30 12.5l-20 5v-10l20-5v10z"/><path fill="#E0274F" d="M279.2 213l-40-10v110l40 10z"/><path fill="#01595B" d="M239.2 313l-40-10-40 10v-110l40-10 40 10v55z"/><path fill="#014042" d="M199.2 193l-40 10v110l40-10z"/><path fill="#018790" d="M199.2 213l-40-10v110l40 10 40-10v-110l-40 10zm30 12.5l-20 5v-10l20-5v10z"/><path fill="#017275" d="M199.2 213l-40-10v110l40 10z"/><path fill="#FF6179" d="M136 313v-30h-40v40h50zM44 313v-30h40v40h-50z"/><path fill="#7A8C89" d="M0 198h180v90h-180zM180.2 198c0 12.4-2.5 24.3-7.1 35s-11.1 20.5-19.3 28.6c-8.1 8.1-17.8 14.7-28.6 19.3-10.8 4.6-22.6 7.1-35 7.1s-24.3-2.5-35-7.1c-10.8-4.6-20.5-11.1-28.6-19.3s-14.7-17.8-19.3-28.6-7.1-22.6-7.1-35 2.5-24.3 7.1-35c4.6-10.8 11.1-20.5 19.3-28.6s17.8-14.7 28.6-19.3c10.8-4.6 22.6-7.1 35-7.1s24.3 2.5 35 7.1c10.8 4.6 20.5 11.1 28.6 19.3 8.1 8.1 14.7 17.8 19.3 28.6 4.6 10.7 7.1 22.6 7.1 35z"/><path fill="#E55A75" d="M158.4 179l-10-10-10 10v-40h20v20z"/><path fill="#FF6179" d="M90.2 183c30.3 0 56.3-17.9 68.2-43.7-1.5-1.7-3-3.3-4.5-4.9-8.1-8.1-17.8-14.7-28.6-19.3s-22.6-7.1-35-7.1-24.3 2.5-35 7.1-20.5 11.1-28.6 19.3c-1.6 1.6-3.1 3.2-4.5 4.9 11.7 25.8 37.8 43.7 68 43.7z"/><circle fill="#EEE0B7" cx="90.2" cy="108" r="60"/><g fill="#B2A58E"><path d="M97.8 114c0-.4.1-.8.2-1.2.2-.4.4-.7.6-1 .3-.3.6-.5 1-.6.4-.2.8-.2 1.2-.2s.8.1 1.2.2c.4.2.7.4 1 .6.3.3.5.6.6 1 .2.4.2.8.2 1.2v2h1v-2c0-.5-.1-1.1-.3-1.6-.2-.5-.5-.9-.9-1.3s-.8-.7-1.3-.9c-.5-.2-1-.3-1.6-.3s-1.1.1-1.6.3c-.5.2-.9.5-1.3.9s-.7.8-.9 1.3c-.2.5-.3 1-.3 1.6v2h1v-2zM76.8 114c0-.4.1-.8.2-1.2.2-.4.4-.7.6-1 .3-.3.6-.5 1-.6.4-.2.8-.2 1.2-.2s.8.1 1.2.2c.4.2.7.4 1 .6.3.3.5.6.6 1 .2.4.2.8.2 1.2v2h1v-2c0-.5-.1-1.1-.3-1.6-.2-.5-.5-.9-.9-1.3s-.8-.7-1.3-.9c-.5-.2-1-.3-1.6-.3s-1.1.1-1.6.3c-.5.2-.9.5-1.3.9s-.7.8-.9 1.3c-.2.5-.3 1-.3 1.6v2h1v-2z"/></g><path fill="#B2A58E" d="M94.2 120h-8l4-12z"/><g fill="#FF99AD"><circle cx="73.8" cy="126" r="6"/><circle cx="106.8" cy="126" r="6"/></g><circle fill="#FF6179" cx="90.2" cy="126" r="4"/><path fill="#7A8C89" d="M30.2 108v-12c0-33 27-60 60-60s60 27 60 60v12h-120z"/><path fill="#fff" d="M83.8 48l-11.2-6.4-6.4-11.2v-12.8l6.4-11.2 11.2-6.4h12.8l11.2 6.4 6.4 11.2v12.8l-6.4 11.2-11.2 6.4zM113.3 259.2l-10 10v30h20v-30l-10-10zm0 13c-1.7 0-3-1.3-3-3s1.3-3 3-3 3 1.3 3 3-1.3 3-3 3z"/><path fill="#5D4157" d="M112.8 227.3h1v40h-1z"/><path fill="#FF6179" d="M110.4 280.5v1.2h2.4v-1.2h1.2v1.2h.9c1.4 0 2.8 1 2.8 3 0 .9-.2 1.8-.8 2.5l-1.3-1.2c.3-.3.5-.8.5-1.1 0-1.1-.8-1.4-1.5-1.4h-.6v1.9h-1.2v-1.9h-2.4v3h-1.4v-6h1.4z"/><path fill="#E5CFA5" d="M150.2 238.8l-60-20-60 20v-120l60-20 60 20v60z"/><path fill="#CDBB93" d="M150.2 238.8l-60 20-60-20v-120l60 20 60-20v60z"/><path fill="#B2A180" d="M90.2 138.8l-60-20v120l60 20z"/><path fill="#EEE0B7" d="M45.6 211h5.6v2.8h-5.6zM45.6 213.8h11.2v2.8h-11.2zM45.6 219.4h11.2v2.8h-11.2zM45.6 222.2h8.4v2.8h-8.4zM45.6 216.6h14v2.8h-14z"/><path fill="#B2A58E" d="M48.4 213.5h2.8v.3h-2.8zM48.4 216.3h8.4v.3h-8.4zM48.4 219.1h8.4v.3h-8.4zM48.4 221.9h8.4v.3h-8.4z"/><linearGradient id="a" gradientUnits="userSpaceOnUse" x1="45.625" y1="218" x2="10.25" y2="218"><stop offset="0" stop-color="#80A8A8"/><stop offset="1" stop-color="#7A8C89"/></linearGradient><path fill="url(#a)" d="M10.2 211h35.4v14h-35.4z"/><path fill="#EEE0B7" d="M129.3 211h5.6v2.8h-5.6zM123.7 213.8h11.2v2.8h-11.2zM123.7 219.4h11.2v2.8h-11.2zM126.5 222.2h8.4v2.8h-8.4zM120.9 216.6h14v2.8h-14z"/><path fill="#B2A58E" d="M129.3 213.5h2.8v.3h-2.8zM123.7 216.3h8.4v.3h-8.4zM123.7 219.1h8.4v.3h-8.4zM123.7 221.9h8.4v.3h-8.4z"/><linearGradient id="b" gradientUnits="userSpaceOnUse" x1="134.875" y1="218" x2="170.25" y2="218"><stop offset="0" stop-color="#80A8A8"/><stop offset="1" stop-color="#7A8C89"/></linearGradient><path fill="url(#b)" d="M134.9 211h35.4v14h-35.4z"/><path fill="#CC663E" d="M279.2 323l-40-10-40 10v-110l40-10 40 10v55z"/><path fill="#B25936" d="M239.2 203l-40 10v110l40-10z"/><path fill="#FF824A" d="M239.2 223l-40-10v110l40 10 40-10v-110l-40 10zm30 12.5l-20 5v-10l20-5v10z"/><path fill="#E57245" d="M239.2 223l-40-10v110l40 10z"/></svg>