<svg xmlns="http://www.w3.org/2000/svg" xmlns:xlink="http://www.w3.org/1999/xlink" viewBox="0 0 379.5 191.4" enable-background="new 0 0 379.5 191.4"><g><path fill="#fff" d="M379.5 191.4c-11.3-33.8-47.4-58.4-127.3-58.4-2.7 0-32.1-11.6-32.1-11.6-27.5-12.5-64.2-22-69.3-5.3l-8.6 22c-13.5-3.9-28.9-6.2-45.2-6.2-48.2 0-88.4 19.5-97 45.3h126.8s-5.6 13.6-5.8 14.2h258.5z"/><path fill="#4189BA" d="M301.9 102.2c1.1 1.7 1.6 3.9 1.2 6.1l-3.2 15.9 15.9 3.2 3.2-15.9c1.3-6.6-.2-13.1-3.6-18.2-3.4-5.2-8.9-9-15.4-10.4l-7.9-1.6-3.2 15.9 7.9 1.6c2.2.4 4 1.7 5.1 3.4z"/><path fill="#E35B76" d="M316.6 123.4l2.4-11.9-15.9-3.2-3.2 15.9 19.9 3.9z"/><path fill="#FDCB88" d="M327.7 109.1l-1.6 7.9c6.6 1.3 10.8 7.7 9.5 14.3-1.3 6.6-7.7 10.8-14.3 9.5l-51.6-10.4 4.8-23.8 15.9 3.2 1.6-7.9-71.4-14.4-1.6 7.9 15.9 3.2-4.8 23.8-15.9-3.2-1.6 7.9 107.2 21.5c11 2.2 21.6-4.9 23.8-15.9 2.2-10.7-4.9-21.4-15.9-23.6zm-84.9-8.8l23.8 4.8-4.8 23.8-23.8-4.8 4.8-23.8z"/><path fill="#4C94D0" d="M310.6 96.4c-7.5-11.3 21.9-2.9-15.5-10.3l-23.8-4.7c-1.7 8.8 4 17.3 12.7 19l7.9 1.6c2.2.4 4 1.7 5.1 3.4s1.7 3.9 1.2 6.1l-3.2 15.9 19-12.7c1.6-6.7.1-13.2-3.4-18.3z"/><path fill="#F0617A" d="M311.9 126.6l2.3-12-15.8-3.1-3.2 15.8 19.8 4z"/><path fill="#A8BC53" d="M308.7 64c1.1-.7 1.9-1.9 2.2-3.3l2.1-10.2 10.2 2.1-2.1 10.2c-.8 4.2-3.3 7.7-6.7 9.9-3.3 2.2-7.5 3.2-11.7 2.3l-5.1-1 2.1-10.2 5.1 1c1.4.2 2.8-.1 3.9-.8z"/><path fill="#BDD562" d="M277.8 49.5l-1.9 9.4-5.1-1c-1.4-.3-2.6-1.1-3.3-2.2-.7-1.1-1.1-2.5-.8-3.9l2.1-10.2-10.2-2.1-2.1 10.2c-.8 4.2.1 8.4 2.3 11.7 2.2 3.3 5.7 5.8 9.9 6.7l5.1 1-2.4 12.1 23.8 4.8 6.4-31.7-23.8-4.8z"/><path fill="#EBDCB5" d="M269.59 37.483l-.827 4.118-2.059-.414.827-4.118zM268.409 33.011l-1.635 8.137-2.059-.414 1.635-8.137zM264.302 32.173l-1.635 8.137-2.059-.414 1.635-8.137zM261.857 33.815l-1.241 6.177-2.059-.414 1.241-6.177zM266.747 30.531l-2.049 10.196-2.059-.414 2.049-10.196z"/><path fill="#AFA28B" d="M267.787 37.092l-.414 2.059-.196-.039.414-2.059zM266.508 32.6l-1.241 6.177-.196-.039 1.241-6.177zM264.543 32.25l-1.241 6.177-.196-.039 1.241-6.177zM262.499 31.782l-1.241 6.177-.196-.039 1.241-6.177z"/><path fill="#EBDCB5" d="M315.769 46.77l-.827 4.118-2.059-.414.827-4.118zM318.694 43.135l-1.635 8.137-2.059-.414 1.635-8.137zM322.821 43.875l-1.635 8.137-2.059-.414 1.635-8.137zM324.384 46.335l-1.241 6.177-2.059-.414 1.241-6.177zM321.139 41.493l-2.049 10.196-2.059-.414 2.049-10.196z"/><path fill="#AFA28B" d="M315.764 46.802l-.414 2.059-.196-.039.414-2.059zM318.709 43.069l-1.241 6.177-.196-.039 1.241-6.177zM320.752 43.537l-1.241 6.177-.196-.039 1.241-6.177zM322.815 43.907l-1.241 6.177-.196-.039 1.241-6.177z"/><path fill="#E35B76" d="M282.4 78.1l-3.2-4.8-4.8 3.2 1.6-7.9 1.6-8 4 .8 4 .8-1.6 8z"/><path fill="#F0617A" d="M286.5 67.8c6.5 1.3 12.9-.7 17.5-4.7l1.6-7.9-31.7-6.4-1.6 7.9c2.6 5.5 7.7 9.8 14.2 11.1z"/><circle fill="#EBDCB5" cx="292.1" cy="40" r="20.2"/><path fill="#AFA28B" d="M292.7 45.1l-1.6-.3-1.6-.4 2.6-4.4z"/><circle fill="#F0617A" cx="290.5" cy="47.1" r="1.6"/><path fill="#fff" d="M290.8 45.5c-.9-.2-1.7.4-1.9 1.3l3.2.6c.1-.9-.5-1.7-1.3-1.9z"/><path fill="#AFA28B" d="M294.6 43l.2-.5.3-.3.4-.2h.5l.5.2.3.3.2.5v.5l-.2.8h.4l.2-.8v-.6l-.3-.6-.4-.4-.6-.3h-.6l-.6.3-.5.4-.2.6-.2.8.4.1.2-.8zM286.2 41.3l.2-.4.4-.4.4-.1h.5l.4.1.3.4.2.4v.5l-.1.8.4.1.1-.8v-.7l-.2-.5-.4-.5-.6-.2h-.7l-.6.2-.4.4-.2.6-.2.8.4.1.1-.8z"/><circle fill="#F495AB" cx="284.1" cy="45.8" r="2.4"/><circle fill="#F495AB" cx="297.2" cy="48.5" r="2.4"/><defs><circle id="a" cx="292.1" cy="40" r="20.2"/></defs><clipPath id="b"><use xlink:href="#a" overflow="visible"/></clipPath><path clip-path="url(#b)" fill="#F4DE05" d="M296.1 20.2c-9.6-1.9-19 3.3-22.6 12l19.4 3.9 10.7-2 8.7 5.7c-.1-9.4-6.7-17.7-16.2-19.6z"/><path fill="#E35B76" d="M280 23.8l.6-2.9c1.6-8.1 9.6-13.4 17.7-11.7 8.1 1.6 13.4 9.6 11.7 17.7l-.6 2.9-29.4-6z"/><path fill="#fff" d="M296.1 11.8l-2.4-2.2-1-3 .6-3.2 2.1-2.4 3.1-1 3.1.6 2.4 2.2 1.1 3-.7 3.2-2.1 2.4-3 1z"/></g></svg>