<svg xmlns="http://www.w3.org/2000/svg" xmlns:xlink="http://www.w3.org/1999/xlink" viewBox="0 0 1151.5 320.4" enable-background="new 0 0 1151.5 320.4"><path fill="#08564D" d="M687.7 88.9c2.8 0 5.8 3.8 8.1 10.1 2.6 7.2 4.1 16.8 4.1 27.1s-1.4 19.9-4.1 27.1c-2.3 6.3-5.3 10.1-8.1 10.1s-5.8-3.8-8.1-10.1c-2.6-7.2-4.1-16.8-4.1-27.1s1.4-19.9 4.1-27.1c2.3-6.4 5.3-10.1 8.1-10.1m0-2.2c-7.9 0-14.3 17.6-14.3 39.3 0 21.7 6.4 39.3 14.3 39.3s14.3-17.6 14.3-39.3c0-21.7-6.4-39.3-14.3-39.3z" /><path fill="#7F5733" d="M700.6 219.1v-65.8h28.6l-14.3 64.4-.1.2 34.4 48.2-2.5 2.5-45.5-45.5zM737.9 153.3h28.6v56.5l3.4 5.3 37.9 53.1-2.5 2.5-45.5-45.4-7.7-7.7.1-.1zM782.5 157.2l13.8-8.3.1 2.1 3.5-2.1.1 4.9-3.4 3.4h-10.5z" /><path fill="#fff" d="M793 152v1l1.8-1v2.4l-1.7 1.7h-7z" /><path fill="#7F5733" d="M698.2 58.4v9.5h4.8v-9.5l4.7-4.8v19.1h-4.7v9.5h-4.8v-9.5h-4.8v-9.6z" /><path fill="#a74" d="M672 82.2h32.1l3.6-3.6v74.7h68.2l6.6 3.9 3.8 6.6v118.2h-3.5l-10.8-64.3-4.9-22.3-20 11.5h-28.7l-20-11.5-5 22.3v.2l34.4 48.2-2.6 2.5-45.5-45.5-.6-4v-65.8l11.2-55.7-18.3-10.6z" /><path fill="#5D4157" d="M672 85.2v-3h4.4z" /><path fill="#097168" d="M682.7 87v-4.8h7.1v4.8l-4.4 7.7-5.4-3.1zM743.5 153.3h-28.7l8.6 16c-3.5-.7-8.1-3.7-12.9-8.5-5.9-5.9-11.9-14.3-16.8-23.6-11.8-22.2-13.6-41.2-8.1-45.1l-.4-2.2c-.1 0-.1 0-.2.1-8.1 4.3-5.1 25.9 6.8 48.3 10.4 19.5 24.1 33.2 32.8 33.4l18.9 35.3v-53.7z" /><path fill="#F6D86B" d="M694.3 88.2c-1.6 0-2.9-1.3-2.9-2.9h5.7c.1 1.6-1.2 2.9-2.8 2.9z" /><path fill="#2920E2" d="M694.3 86.7c-.8 0-1.4-.6-1.4-1.4h2.9c-.1.8-.7 1.4-1.5 1.4z" /><path fill="#08564D" d="M727 113.9c2.8 0 5.8 3.8 8.1 10.1 2.6 7.2 4.1 16.8 4.1 27.1s-1.4 19.9-4.1 27.1c-2.3 6.3-5.3 10.1-8.1 10.1s-5.8-3.8-8.1-10.1c-2.6-7.2-4.1-16.8-4.1-27.1s1.4-19.9 4.1-27.1c2.3-6.3 5.3-10.1 8.1-10.1m0-2.2c-7.9 0-14.3 17.6-14.3 39.3 0 21.7 6.4 39.3 14.3 39.3s14.3-17.6 14.3-39.3c0-21.7-6.4-39.3-14.3-39.3z" /><path fill="#996B3D" d="M739.9 244.1v-65.8h28.6l-14.3 64.4-.1.3 34.4 48.1-2.5 2.5-45.5-45.5zM777.2 178.3h28.6v56.5l3.4 5.4 37.9 53-2.5 2.6-45.5-45.5-7.7-7.7.1-.1z" /><path fill="#C68D4E" d="M711.3 107.2h32.2l3.5-3.6v74.7h68.2l6.6 3.9 3.8 6.6v118.2h-3.5l-10.7-64.3-5-22.3-20 11.5h-28.7l-20-11.5-5 22.3v.3l34.4 48.1-2.6 2.5-45.4-45.5-.7-4v-65.8l11.2-55.7-18.3-10.6z" /><path fill="#996B3D" d="M821.8 182.2l13.9-8.2v2.1l3.5-2.1.1 4.8-3.4 3.4h-10.5z" /><path fill="#fff" d="M832.3 177v1l1.8-1v2.4l-1.6 1.7h-7.1z" /><path fill="#F6D86B" d="M733.6 113.2c-1.6 0-2.9-1.3-2.9-2.9h5.7c.1 1.6-1.2 2.9-2.8 2.9z" /><path fill="#2920E2" d="M733.6 111.8c-.8 0-1.4-.6-1.4-1.4h2.9c0 .7-.7 1.4-1.5 1.4z" /><path fill="#996B3D" d="M737.5 83.4v9.5h4.8v-9.5l4.7-4.8v19.1h-4.7v9.5h-4.8v-9.5h-4.8v-9.5z" /><path fill="#5D4157" d="M711.3 110.2v-3h4.5z" /><path fill="#097168" d="M722 112v-4.8h7.2v4.8l-4.5 7.7-5.4-3.1zM782.8 178.3h-28.7l8.6 16c-3.5-.7-8.1-3.7-12.9-8.5-5.9-5.9-11.9-14.3-16.8-23.6-11.8-22.2-13.6-41.2-8.1-45.1l-.4-2.2c-.1 0-.1 0-.2.1-8.1 4.3-5.1 25.9 6.8 48.3 10.4 19.5 24.1 33.2 32.8 33.4l18.9 35.3v-53.7z" /><path fill="#08564D" d="M512.6 71c2.8 0 5.8 3.8 8.1 10.1 2.6 7.2 4.1 16.8 4.1 27.1s-1.4 19.9-4.1 27.1c-2.3 6.3-5.3 10.1-8.1 10.1s-5.8-3.8-8.1-10.1c-2.6-7.2-4.1-16.8-4.1-27.1s1.4-19.9 4.1-27.1c2.3-6.3 5.3-10.1 8.1-10.1m0-2.2c-7.9 0-14.3 17.6-14.3 39.3 0 21.7 6.4 39.3 14.3 39.3s14.3-17.6 14.3-39.3c0-21.7-6.4-39.3-14.3-39.3z" /><path fill="#7F5733" d="M525.5 201.2v-65.7h28.5l-14.2 64.3-.1.3 34.4 48.1-2.5 2.5-45.5-45.5zM562.8 135.5h28.6v56.4l3.4 5.4 37.9 53-2.6 2.6-45.4-45.5-7.7-7.7zM607.4 139.3l13.8-8.2.1 2.1 3.5-2.1.1 4.8-3.4 3.4h-10.5z" /><path fill="#fff" d="M617.9 134.1v1.1l1.8-1.1v2.4l-1.7 1.7h-7z" /><path fill="#7F5733" d="M523.1 40.5v9.5h4.7v-9.5l4.8-4.8v19.1h-4.8v9.5h-4.7v-9.5h-4.8v-9.5z" /><path fill="#a74" d="M496.9 64.3h32.1l3.6-3.5v74.7h68.2l6.6 3.8 3.8 6.6v118.2h-3.5l-10.8-64.3-4.9-22.3-20 11.6h-28.7l-20-11.6-5 22.3v.3l34.3 48.1-2.5 2.5-45.5-45.5-.6-4v-65.7l11.2-55.8-18.3-10.6z" /><path fill="#5D4157" d="M496.9 67.3v-3h4.4z" /><path fill="#097168" d="M539.7 135.5h28.7v53.6zM507.6 69.1v-4.8h7.1v4.8l-4.4 7.8-5.4-3.1zM510 72.1l.2-.1.4 2.2c-5.5 3.9-3.7 22.9 8.1 45.1 4.9 9.3 10.9 17.7 16.8 23.6 5.5 5.5 10.7 8.7 14.3 8.7.8 0 1.6-.2 2.2-.5l.3-.2 1.4 1.6-.7.5c-1 .5-2 .8-3.2.8-8.7 0-22.5-13.7-33-33.4-11.9-22.3-15-44-6.8-48.3z" /><path fill="#F6D86B" d="M519.2 70.3c-1.6 0-2.9-1.3-2.9-2.9h5.7c.1 1.6-1.2 2.9-2.8 2.9z" /><path fill="#E41F44" d="M519.2 68.9c-.8 0-1.4-.6-1.4-1.4h2.9c-.1.7-.7 1.4-1.5 1.4z" /><path fill="#08564D" d="M551.9 96c2.8 0 5.8 3.8 8.1 10.1 2.6 7.2 4.1 16.8 4.1 27.1s-1.4 19.9-4.1 27.1c-2.3 6.3-5.3 10.1-8.1 10.1s-5.8-3.8-8.1-10.1c-2.6-7.2-4.1-16.8-4.1-27.1s1.4-19.9 4.1-27.1c2.3-6.3 5.3-10.1 8.1-10.1m0-2.1c-7.9 0-14.3 17.6-14.3 39.3s6.4 39.3 14.3 39.3 14.3-17.6 14.3-39.3-6.4-39.3-14.3-39.3z" /><path fill="#996B3D" d="M564.8 226.2v-65.7h28.6l-14.3 64.3-.1.3 34.4 48.1-2.5 2.5-45.5-45.4zM602.1 160.5h28.6v56.5l3.4 5.3 37.9 53.1-2.5 2.5-45.5-45.5-7.7-7.6.1-.1z" /><path fill="#C68D4E" d="M536.2 89.3h32.1l3.6-3.5v74.7h68.2l6.6 3.8 3.8 6.6v118.2h-3.5l-10.8-64.3-4.9-22.3-20 11.6h-28.7l-20-11.6-5 22.3v.3l34.4 48.1-2.6 2.5-45.5-45.4-.6-4.1v-65.7l11.2-55.8-18.3-10.6z" /><path fill="#996B3D" d="M646.7 164.3l13.8-8.2.1 2.1 3.5-2.1.1 4.9-3.4 3.3h-10.5z" /><path fill="#fff" d="M657.2 159.1v1.1l1.8-1.1v2.5l-1.7 1.6h-7z" /><path fill="#F6D86B" d="M558.5 95.3c-1.6 0-2.9-1.3-2.9-2.9h5.7c.1 1.6-1.2 2.9-2.8 2.9z" /><path fill="#E41F44" d="M558.5 93.9c-.8 0-1.4-.6-1.4-1.4h2.9c-.1.7-.7 1.4-1.5 1.4z" /><path fill="#996B3D" d="M562.4 65.5v9.5h4.8v-9.5l4.7-4.7v19h-4.7v9.5h-4.8v-9.5h-4.8v-9.5z" /><path fill="#5D4157" d="M536.2 92.3v-3h4.4z" /><path fill="#097168" d="M579 160.5h28.7v53.6zM546.9 94.1v-4.8h7.1v4.8l-4.4 7.8-5.4-3.1zM549.3 97.1l.2-.1.4 2.2c-5.5 3.9-3.7 22.9 8.1 45.1 4.9 9.3 10.9 17.7 16.8 23.6 5.5 5.5 10.7 8.7 14.3 8.7.8 0 1.6-.2 2.2-.5l.3-.2 1.4 1.6-.7.5c-1 .5-2 .8-3.2.8-8.7 0-22.5-13.7-33-33.4-11.9-22.3-15-43.9-6.8-48.3z" /><path fill="#08564D" d="M337.5 53.1c2.8 0 5.8 3.8 8.1 10.1 2.6 7.2 4.1 16.8 4.1 27.1s-1.4 19.9-4.1 27.1c-2.3 6.3-5.3 10.1-8.1 10.1s-5.8-3.8-8.1-10.1c-2.6-7.2-4.1-16.8-4.1-27.1s1.4-19.9 4.1-27.1c2.3-6.3 5.3-10.1 8.1-10.1m0-2.1c-7.9 0-14.3 17.6-14.3 39.3 0 21.7 6.4 39.3 14.3 39.3s14.3-17.6 14.3-39.3c0-21.7-6.4-39.3-14.3-39.3z" /><path fill="#7F5733" d="M350.3 183.3v-65.7h28.6l-14.3 64.3v.3l34.4 48.1-2.6 2.6-45.4-45.5zM387.7 117.6h28.6v56.5l3.4 5.3 37.9 53.1-2.6 2.5-45.5-45.5-7.6-7.6v-.1zM432.3 121.4l13.8-8.2v2.1l3.6-2.1.1 4.9-3.4 3.3h-10.5z" /><path fill="#fff" d="M442.8 116.2v1.1l1.8-1.1v2.5l-1.7 1.6h-7z" /><path fill="#7F5733" d="M348 22.6v9.6h4.7v-9.6l4.8-4.7v19h-4.8v9.6h-4.7v-9.6h-4.8v-9.5z" /><path fill="#a74" d="M321.8 46.5h32.1l3.6-3.6v74.7h68.2l6.6 3.8 3.8 6.7v118.1h-3.6l-10.7-64.3-4.9-22.3-20 11.6h-28.8l-20-11.6-4.9 22.3v.3l34.3 48.1-2.5 2.6-45.5-45.5-.6-4.1v-65.7l11.2-55.8-18.3-10.6z" /><path fill="#5D4157" d="M321.8 49.5v-3h4.4z" /><path fill="#097168" d="M364.6 117.6h28.7v53.6zM332.5 51.2v-4.7h7.1v4.7l-4.4 7.8-5.4-3.1zM334.8 54.3l.2-.1.4 2.2c-5.5 3.9-3.7 22.9 8.1 45.1 4.9 9.3 10.9 17.7 16.8 23.6 5.5 5.5 10.7 8.7 14.3 8.7.8 0 1.6-.2 2.2-.5l.3-.2 1.4 1.6-.7.5c-1 .5-2 .8-3.2.8-8.7 0-22.5-13.7-33-33.4-11.8-22.4-14.9-44-6.8-48.3z" /><path fill="#F6D86B" d="M344.1 52.4c-1.6 0-2.9-1.3-2.9-2.9h5.7c.1 1.6-1.2 2.9-2.8 2.9z" /><path fill="#960" d="M344.1 51c-.8 0-1.4-.6-1.4-1.4h2.9c-.1.8-.7 1.4-1.5 1.4z" /><path fill="#08564D" d="M376.8 78.1c2.8 0 5.8 3.8 8.1 10.1 2.6 7.2 4.1 16.8 4.1 27.1s-1.4 19.9-4.1 27.1c-2.3 6.3-5.3 10.1-8.1 10.1s-5.8-3.8-8.1-10.1c-2.6-7.2-4.1-16.8-4.1-27.1s1.4-19.9 4.1-27.1c2.3-6.3 5.3-10.1 8.1-10.1m0-2.1c-7.9 0-14.3 17.6-14.3 39.3s6.4 39.3 14.3 39.3 14.3-17.6 14.3-39.3-6.4-39.3-14.3-39.3z" /><path fill="#996B3D" d="M389.7 208.4v-65.8h28.5l-14.2 64.3-.1.3 34.4 48.2-2.5 2.5-45.5-45.5zM427 142.6h28.6v56.5l3.4 5.3 37.9 53.1-2.6 2.5-45.4-45.5-7.7-7.6v-.1z" /><path fill="#C68D4E" d="M361.1 71.5h32.1l3.6-3.6v74.7h68.2l6.6 3.8 3.8 6.7v118.2h-3.5l-10.8-64.4-4.9-22.2-20 11.5h-28.7l-20-11.5-5 22.2v.3l34.3 48.2-2.5 2.5-45.5-45.5-.6-4v-65.8l11.2-55.7-18.3-10.6z" /><path fill="#996B3D" d="M471.6 146.4l13.8-8.2.1 2.1 3.5-2.1.1 4.9-3.4 3.3h-10.5z" /><path fill="#fff" d="M482.1 141.3v1l1.8-1v2.4l-1.7 1.7h-7z" /><path fill="#F6D86B" d="M383.4 77.4c-1.6 0-2.9-1.3-2.9-2.9h5.7c.1 1.7-1.2 2.9-2.8 2.9z" /><path fill="#960" d="M383.4 76c-.8 0-1.4-.6-1.4-1.4h2.9c-.1.8-.7 1.4-1.5 1.4z" /><path fill="#996B3D" d="M387.3 47.6v9.6h4.7v-9.6l4.8-4.7v19h-4.8v9.6h-4.7v-9.6h-4.8v-9.5z" /><path fill="#5D4157" d="M361.1 74.5v-3h4.4z" /><path fill="#097168" d="M403.9 142.6h28.7v53.6zM371.8 76.3v-4.8h7.1v4.8l-4.4 7.7-5.4-3.1zM374.2 79.3l.2-.1.4 2.2c-5.5 3.9-3.7 22.9 8.1 45.1 4.9 9.3 10.9 17.7 16.8 23.6 5.5 5.5 10.7 8.7 14.3 8.7.8 0 1.6-.2 2.2-.5l.3-.2 1.4 1.6-.7.5c-1 .5-2 .8-3.2.8-8.7 0-22.5-13.7-33-33.4-11.9-22.4-15-44-6.8-48.3z" /><path fill="#08564D" d="M162.4 35.3c2.8 0 5.8 3.8 8.1 10.1 2.6 7.2 4.1 16.8 4.1 27.1s-1.4 19.9-4.1 27.1c-2.3 6.3-5.3 10.1-8.1 10.1s-5.8-3.8-8.1-10.1c-2.6-7.2-4.1-16.8-4.1-27.1s1.4-19.9 4.1-27.1c2.3-6.4 5.3-10.1 8.1-10.1m0-2.2c-7.9 0-14.3 17.6-14.3 39.3s6.4 39.3 14.3 39.3 14.3-17.6 14.3-39.3-6.4-39.3-14.3-39.3z" /><path fill="#7F5733" d="M175.2 165.5v-65.8h28.6l-14.3 64.3v.3l34.4 48.2-2.6 2.5-45.5-45.5zM212.6 99.7h28.5v56.5l3.4 5.3 37.9 53.1-2.5 2.5-45.5-45.4-7.6-7.7v-.1zM257.2 103.5l13.8-8.2v2.1l3.6-2.1v4.9l-3.3 3.3h-10.6z" /><path fill="#fff" d="M267.7 98.4v1l1.8-1v2.4l-1.7 1.7h-7.1z" /><path fill="#7F5733" d="M172.9 4.8v9.5h4.7v-9.5l4.8-4.8v19.1h-4.8v9.5h-4.7v-9.5h-4.8v-9.6z" /><path fill="#a74" d="M146.6 28.6h32.2l3.6-3.6v74.7h68.1l6.7 3.8 3.8 6.7v118.2h-3.6l-10.7-64.4-4.9-22.2-20 11.5h-28.8l-20-11.5-4.9 22.2-.1.3 34.4 48.2-2.5 2.5-45.5-45.5-.6-4v-65.8l11.2-55.7-18.4-10.6z" /><path fill="#5D4157" d="M146.6 31.6v-3h4.5z" /><path fill="#097168" d="M189.5 99.7h28.7v53.6zM157.4 33.4v-4.8h7.1v4.8l-4.5 7.7-5.3-3.1zM159.7 36.4l.2-.1.4 2.2c-5.5 3.9-3.7 22.9 8.1 45.1 4.9 9.3 10.9 17.7 16.8 23.6 5.5 5.5 10.7 8.7 14.3 8.7.8 0 1.6-.2 2.2-.5l.3-.2 1.4 1.6-.7.5c-1 .5-2 .8-3.2.8-8.7 0-22.5-13.7-33-33.4-11.9-22.4-14.9-44-6.8-48.3z" /><path fill="#F6D86B" d="M169 34.6c-1.6 0-2.9-1.3-2.9-2.9h5.7c0 1.6-1.2 2.9-2.8 2.9z" /><path fill="#090" d="M169 33.1c-.8 0-1.4-.6-1.4-1.4h2.9c-.1.8-.7 1.4-1.5 1.4z" /><path fill="#08564D" d="M201.7 60.3c2.8 0 5.8 3.8 8.1 10.1 2.6 7.2 4.1 16.8 4.1 27.1s-1.4 19.9-4.1 27.1c-2.3 6.3-5.3 10.1-8.1 10.1s-5.8-3.8-8.1-10.1c-2.6-7.2-4.1-16.8-4.1-27.1s1.4-19.9 4.1-27.1c2.3-6.4 5.3-10.1 8.1-10.1m0-2.2c-7.9 0-14.3 17.6-14.3 39.3s6.4 39.3 14.3 39.3 14.3-17.6 14.3-39.3-6.4-39.3-14.3-39.3z" /><path fill="#996B3D" d="M214.5 190.5v-65.8h28.6l-14.3 64.4v.3l34.4 48.1-2.6 2.5-45.4-45.5zM251.9 124.7h28.6v56.5l3.4 5.4 37.9 53-2.6 2.6-45.5-45.5-7.6-7.7v-.1z" /><path fill="#C68D4E" d="M186 53.6h32.1l3.6-3.6v74.7h68.1l6.7 3.9 3.8 6.6v118.2h-3.6l-10.7-64.3-4.9-22.3-20 11.5h-28.8l-20-11.5-4.9 22.3-.1.3 34.4 48.1-2.5 2.5-45.5-45.5-.6-4v-65.8l11.2-55.7-18.3-10.6z" /><path fill="#996B3D" d="M296.5 128.6l13.8-8.2v2.1l3.6-2.1.1 4.8-3.4 3.4h-10.5z" /><path fill="#fff" d="M307 123.4v1l1.8-1v2.4l-1.7 1.7h-7z" /><path fill="#F6D86B" d="M208.3 59.6c-1.6 0-2.9-1.3-2.9-2.9h5.7c.1 1.6-1.2 2.9-2.8 2.9z" /><path fill="#090" d="M208.3 58.1c-.8 0-1.4-.6-1.4-1.4h2.9c-.1.8-.7 1.4-1.5 1.4z" /><path fill="#996B3D" d="M212.2 29.8v9.5h4.7v-9.5l4.8-4.8v19.1h-4.8v9.5h-4.7v-9.5h-4.8v-9.6z" /><path fill="#5D4157" d="M186 56.6v-3h4.4z" /><path fill="#097168" d="M228.8 124.7h28.7v53.6zM196.7 58.4v-4.8h7.1v4.8l-4.4 7.7-5.4-3.1zM199 61.4l.2-.1.4 2.2c-5.5 3.9-3.7 22.9 8.1 45.1 4.9 9.3 10.9 17.7 16.8 23.6 5.5 5.5 10.7 8.7 14.3 8.7.8 0 1.6-.2 2.2-.5l.3-.2 1.4 1.6-.7.5c-1 .5-2 .8-3.2.8-8.7 0-22.5-13.7-33-33.4-11.8-22.4-14.9-44-6.8-48.3z" /><path fill="#08564D" d="M26.6 42.4c2.8 0 5.8 3.8 8.1 10.1 2.6 7.2 4.1 16.8 4.1 27.1s-1.4 19.9-4.1 27.1c-2.3 6.3-5.3 10.1-8.1 10.1s-5.8-3.8-8.1-10.1c-2.6-7.2-4.1-16.8-4.1-27.1s1.4-19.9 4.1-27.1c2.3-6.3 5.3-10.1 8.1-10.1m0-2.1c-7.9 0-14.3 17.6-14.3 39.3 0 21.7 6.4 39.3 14.3 39.3s14.3-17.6 14.3-39.3c0-21.7-6.4-39.3-14.3-39.3z" /><path fill="#996B3D" d="M39.4 172.6v-65.7h28.6l-14.3 64.3v.3l34.4 48.1-2.6 2.5-45.5-45.4zM76.8 106.9h28.5v56.5l3.4 5.3 37.9 53.1-2.5 2.5-45.5-45.5-7.6-7.6v-.1z" /><path fill="#C68D4E" d="M10.8 35.7h32.2l3.6-3.5v74.7h68.1l6.7 3.8 3.8 6.6v118.2h-3.6l-10.7-64.3-4.9-22.3-20 11.6h-28.8l-20-11.6-4.9 22.3-.1.3 34.4 48.1-2.5 2.5-45.5-45.4-.6-4.1v-65.7l11.2-55.8-18.4-10.6z" /><path fill="#996B3D" d="M121.4 110.7l13.8-8.2v2.1l3.6-2.1v4.8l-3.3 3.4h-10.6z" /><path fill="#fff" d="M131.9 105.5v1.1l1.8-1.1v2.5l-1.7 1.6h-7.1z" /><path fill="#996B3D" d="M37.1 11.9v9.5h4.7v-9.5l4.8-4.8v19.1h-4.8v9.5h-4.7v-9.5h-4.8v-9.5z" /><path fill="#E41F44" d="M10.8 38.7v-3h4.5z" /><path fill="#097168" d="M53.7 106.9h28.7v53.6zM21.6 40.5v-4.8h7.1v4.8l-4.5 7.8-5.3-3.1zM23.9 43.5l.2-.1.4 2.2c-5.5 3.9-3.7 22.9 8.1 45.1 4.9 9.3 10.9 17.7 16.8 23.6 5.5 5.5 10.7 8.7 14.3 8.7.8 0 1.6-.2 2.2-.5l.3-.2 1.4 1.6-.7.5c-1 .5-2 .8-3.2.8-8.7 0-22.5-13.7-33-33.4-11.9-22.3-14.9-44-6.8-48.3z" /><path fill="#7F5733" d="M35.3 41.7c0-.3-.1-.6-.2-.8-.1-.3-.3-.5-.5-.7-.2-.2-.4-.4-.7-.5-.3-.1-.5-.2-.8-.2-.3 0-.6.1-.8.2-.3.1-.5.3-.7.5-.2.2-.4.4-.5.7-.1.3-.2.5-.2.8v1.4h-.7v-1.4c0-.4.1-.8.2-1.1.1-.3.4-.7.6-.9.3-.3.6-.5.9-.6.3-.1.7-.2 1.1-.2.4 0 .8.1 1.1.2.3.1.7.4.9.6.3.3.5.6.6.9.1.3.2.7.2 1.1v1.4h-.7v-1.4z" /><g fill="#FF6179"><path d="M10.7 24.3h1.4v4.3h-1.4zM10.7 42.9h1.4v4.3h-1.4z" /></g><g fill="#FF6179"><path d="M15.577 29.928l-1.212-.7 2.15-3.724 1.212.7zM6.296 46.021l-1.212-.7 2.15-3.724 1.212.7z" /></g><g fill="#FF6179"><path d="M17.926 32.778l-.7-1.212 3.724-2.15.7 1.212zM1.842 42.071l-.7-1.212 3.724-2.15.7 1.212z" /></g><path fill="#FF6179" d="M0 35h4.3v1.4h-4.3zM1.146 30.592l.7-1.212 3.724 2.15-.7 1.212zM5.097 26.138l1.212-.7 2.15 3.724-1.212.7z" /><path fill="#CC5068" d="M1130.9 174.3l-10.6 9.3-18.5 5.5h-21.5l-18.6-5.5-10.5-9.3-4.9 9v11.8l12 10.3 20.8 5.9h23.9l20.8-5.9 12-10.3v-11.8z" /><path fill="#F25F7B" d="M1080.3 189.1h21.5l18.5-5.5 10.6-9.3.2-.1v-10.9l-4.2-7.8-7.4 7.9-15.8 5.5-18.8.7-17-4.4-10.5-8.3-.6-4.5-5.8 10.9v10.9l.2.1 10.5 9.3z" /><path fill="#BF4B61" d="M1089.9 112.6l-10.2-3.3 3.7 6.2 2.5.6 1-1.7z" /><path fill="#CC5068" d="M1100 118.6v-.7l-.7-1.1 2.9-.8 3-5-8.4 2.7-2.4-1.4h-4l-.5.3-3 1.8-1 1.7-.9 1.4 12.2-.4z" /><path fill="#FF6179" d="M1067.9 165.2l17 4.4 18.8-.7 15.8-5.5 7.4-7.9.9-1-1.2-9.9-11.8-18.2-14.8-7.8-2.8-1.5-12.2.4-6.6.3-15.2 10.4-7.1 18.8.7 5.4.6 4.5z" /><path fill="#CC5068" d="M1091.6 136.8l7.3-5 5 7.2-2-.4-1.1 6.1-8.2-1.4 1.1-6.1zM1077.9 134.4l7.2-5.1 5 7.3-2-.4-1.1 6.1-8.2-1.5 1.1-6z" /><g fill="#CB5068"><path d="M1078 143.8l-.8-.1.1-.5 2.1.4-.1.5-.8-.1-.4 2.2-.6-.1.5-2.3zM1079.7 143.5l.6.1-.2 1 1.1.2.2-1 .6.1-.5 2.7-.6-.1.2-1.2-1.1-.2-.2 1.2-.6-.1.5-2.7zM1082.6 144l.6.1-.5 2.7-.6-.1.5-2.7zM1084.9 145.1l-.4-.3c-.2 0-.4 0-.4.2-.1.5 1.2.4 1 1.3-.1.6-.6.8-1.2.7-.3-.1-.6-.2-.8-.5l.5-.4c.1.2.3.3.5.3s.4 0 .5-.2c.1-.5-1.2-.4-1.1-1.3.1-.6.6-.8 1.2-.7.3.1.6.2.8.4l-.6.5zM1086.7 144.7l.6.1.1 1.8.9-1.6.5.1.3 1.9.7-1.7.6.1-1.2 2.5-.5-.1-.3-2-.9 1.8-.5-.1-.3-2.8zM1091.6 145.6l.5.1.7 2.9-.7-.1-.1-.6-1-.2-.3.5-.7-.1 1.6-2.5zm.1.8l-.5.8.7.1-.2-.9zM1093.6 147.5l-.7-1.7.7.1.4 1.1.8-.9.7.1-1.3 1.4-.2 1.1-.6-.1.2-1.1zM1098.7 148.5c-.1.6-.6 1-1.3.9-.7-.1-1.1-.7-.9-1.3l.3-1.6.6.1-.3 1.6c-.1.3.1.6.4.7.3.1.6-.2.6-.5l.3-1.6.6.1-.3 1.6zM1099.5 146.9l1 .2c.6.1 1 .4.9 1-.1.6-.6.7-1.1.7l-.4-.1-.2 1-.6-.1.4-2.7zm.4 1.2l.4.1c.2 0 .4 0 .5-.3 0-.3-.2-.4-.5-.4l-.3-.1-.1.7z" /></g><path fill="#C0D860" d="M1102.4 202.4c0 1.4 1.1 2.5 2.5 2.5s2.5-1.1 2.5-2.5v-4.9h-4.9v4.9zM1109.8 202.4c0 1.4 1.1 2.5 2.5 2.5s2.5-1.1 2.5-2.5v-4.9h-4.9v4.9zM1102.4 178.7v18.8h12.3v-18.8z" /><path fill="#EFDE11" d="M1090.7 145.9h.1v.1h-.1z" /><circle fill="#EEE0B7" cx="1108.6" cy="172.9" r="10.2" /><path fill="#B2A58E" d="M1107.8 175.4h1.6l-.8-2.5z" /><circle fill="#FF6179" cx="1108.7" cy="176.6" r=".8" /><path fill="#fff" d="M1108.7 175.8c.5 0 .8.4.8.8h-1.6c0-.5.3-.8.8-.8z" /><path fill="#B2A58E" d="M1107 174.1v-.2l-.1-.2c-.1-.1-.1-.1-.2-.1h-.4l-.2.1s-.1.1-.1.2v.6000000000000001h-.2v-.4c0-.1 0-.2.1-.3 0-.1.1-.2.2-.3l.3-.2.3-.1s.2 0 .3.1c.1 0 .2.1.3.2s.1.2.2.3l.1.3v.4h-.2v-.4zM1111.3 174.1v-.2l-.1-.2c-.1-.1-.1-.1-.2-.1h-.4l-.2.1s-.1.1-.1.2v.6000000000000001h-.2v-.4c0-.1 0-.2.1-.3 0-.1.1-.2.2-.3l.3-.2.3-.1s.2 0 .3.1c.1 0 .2.1.3.2s.1.2.2.3l.1.3v.4h-.2v-.4z" /><circle fill="#FF99AD" cx="1112" cy="176.6" r="1.2" /><circle fill="#FF99AD" cx="1105.2" cy="176.6" r="1.2" /><circle cx="1108.6" cy="172.9" r="10.2" fill="none" /><defs><circle id="sleighd" cx="1108.6" cy="172.9" r="10.2" /></defs><clipPath id="sleighe"><use xlink:href="#sleighd" overflow="visible" /></clipPath><path clip-path="url(#sleighe)" fill="#B2A58E" d="M1098.3 170.9l5.2-2.1 5.1 2.1h10.2v-9.399999999999999h-20.5v6.999999999999999z" /><path fill="#EEE0B7" d="M1122.3 184.9h-1.7v-.1l1.7.1v-.6h-1.1v-.6h-1.1v3h1.7v-.6h-1.1v-.1h1.7v-.5h-1.7v-.1h1.7v.1h.6v-.6h-.7zm-1.7-.6h.6v.1l-.6-.1z" /><path fill="#B2A58E" d="M1120.6 184.3h.6v.1h-.6zM1120.6 184.9h1.7v.1h-1.7zM1120.6 185.4h1.7v.1h-1.7zM1120.6 186.1h1.7v-.1h-1.7z" /><path fill="#C0D860" d="M1112.8 183.8h7.2v2.9h-7.2z" /><path fill="#EEE0B7" d="M1096 183.8v.5h.5-.5-1.2v.6h1.7-1.7-.6v.6h.6v-.1h1.7v.1h-1.7v.5h1.7v.1h-1.1v.5h1.7v-2.8000000000000003z" /><path fill="#B2A58E" d="M1096 184.3h.6v.1h-.6zM1094.8 184.9h1.7v.1h-1.7zM1094.8 185.4h1.7v.1h-1.7zM1096.5 186h-1.7v.1h1.7000000000000002z" /><path fill="#C0D860" d="M1097.1 183.8h7.2v2.9h-7.2zM1096.1 171.5l14.3-22.5 10.3 20.5z" /><path fill="#fff" d="M1097.5 167.3l-1.4 2.2 24.6-2.1-1-1.9z" /><path fill="#C0D860" d="M1069.4 202.4c0 1.4 1.1 2.5 2.5 2.5s2.5-1.1 2.5-2.5v-4.9h-4.9v4.9zM1076.8 202.4c0 1.4 1.1 2.5 2.5 2.5s2.5-1.1 2.5-2.5v-4.9h-4.9v4.9zM1069.4 178.7v18.8h12.3v-18.8z" /><path fill="#EFDE11" d="M1057.7 145.9h.1v.1h-.1z" /><circle fill="#EEE0B7" cx="1075.6" cy="172.9" r="10.2" /><path fill="#B2A58E" d="M1074.7 175.4h1.7000000000000002l-.8-2.5z" /><circle fill="#FF6179" cx="1075.7" cy="176.6" r=".8" /><path fill="#fff" d="M1075.7 175.8c.5 0 .8.4.8.8h-1.6c-.1-.5.3-.8.8-.8z" /><path fill="#B2A58E" d="M1074 174.1v-.2l-.1-.2s-.1-.1-.2-.1h-.4l-.2.1c-.1.1-.1.1-.1.2v.6000000000000001h-.2v-.4c0-.1 0-.2.1-.3 0-.1.1-.2.2-.3s.2-.1.3-.2l.3-.1s.2 0 .3.1c.1 0 .2.1.3.2l.2.3.1.3v.4h-.2v-.4zM1078.3 174.1v-.2l-.1-.2s-.1-.1-.2-.1h-.4l-.2.1c-.1.1-.1.1-.1.2v.6000000000000001h-.2v-.4c0-.1 0-.2.1-.3 0-.1.1-.2.2-.3s.2-.1.3-.2l.3-.1s.2 0 .3.1c.1 0 .2.1.3.2l.2.3.1.3v.4h-.2v-.4z" /><circle fill="#FF99AD" cx="1078.9" cy="176.6" r="1.2" /><circle fill="#FF99AD" cx="1072.2" cy="176.6" r="1.2" /><circle cx="1075.6" cy="172.9" r="10.2" fill="none" /><path fill="#EEE0B7" d="M1089.3 184.9v-.6h-1.7000000000000002v-.1h.6v-.5h-1.1v3h1.7v-.6h-1.1v-.1h1.7v.1-.6h.6v-.6h-.7zm0 .6h-1.7v-.1l1.7.1zm0-.6h-1.7v-.1l1.7.1z" /><path fill="#B2A58E" d="M1087.6 184.3h.6v.1h-.6zM1087.6 184.9h1.7v.1h-1.7zM1087.6 185.4h1.7v.1h-1.7zM1087.6 186v.1h1.7000000000000002v-.1z" /><path fill="#C0D860" d="M1079.8 183.8h7.2v2.9h-7.2z" /><path fill="#EEE0B7" d="M1062.9 183.8v.5h.6-.6-1.1v.6h1.7-1.7-.6v.6h.6v-.1h1.7v.1h-1.7v.5h1.7v.1h-1.1v.5h1.7v-2.8000000000000003z" /><path fill="#B2A58E" d="M1062.9 184.3h.6v.1h-.6zM1061.8 184.9h1.7v.1h-1.7zM1061.8 185.4h1.7v.1h-1.7zM1063.5 186h-1.7v.1h1.7000000000000002z" /><path fill="#C0D860" d="M1064.1 183.8h7.2v2.9h-7.2z" /><path fill="#B2A58E" d="M1075.6 170.9h10l-.3-1.2-10.5.9.8.3z" /><path fill="#C0D860" d="M1074.8 170.6l10.5-.9 2.3-.2-10.2-20.5-14.3 22.5z" /><path fill="#fff" d="M1064.5 167.3l-1.4 2.2 24.5-2.1-.9-1.9z" /><circle fill="#66C9B6" cx="979.4" cy="184.1" r="10.7" /><path fill="#FF6179" d="M1041.3 228.7v-32.2h-.1c0-4.4-.9-8.7-2.5-12.5s-4-7.3-6.9-10.2c-2.9-2.9-6.4-5.3-10.2-6.9s-8.1-2.5-12.5-2.5-8.7.9-12.5 2.5-7.3 4-10.2 6.9c-2.9 2.9-5.3 6.4-6.9 10.2s-2.5 8.1-2.5 12.5c0 .8 0 1.5.1 2.3v29.9h22.9v1.8h-3.6v3.6h-3.6v3.6h-3.6v3.6h17.9v-12.5h4.3v12.5h17.9v-3.6h-3.6v-3.6h-3.6v-3.6h-3.6v-1.8h22.8z" /><circle fill="#EEE0B7" cx="1009" cy="164.4" r="21.4" /><path fill="#fff" d="M1009 175.1c10 0 18.4-6.8 20.8-16.1.4 1.7.7 3.5.7 5.4 0 11.8-9.6 21.4-21.4 21.4-11.8 0-21.4-9.6-21.4-21.4 0-1.9.2-3.6.7-5.4 2.3 9.3 10.6 16.1 20.6 16.1z" /><path fill="#B2A58E" d="M1007.6 168.7h2.9l-1.5-4.3z" /><circle fill="#FF6179" cx="1009" cy="170.9" r="1.4" /><path fill="#E2F7F6" d="M1009 169.4c.8 0 1.4.6 1.4 1.4h-2.9c.1-.7.8-1.4 1.5-1.4z" /><g fill="#B2A58E"><path d="M1006.2 166.6c0-.1 0-.3-.1-.4l-.2-.3c-.1-.1-.2-.2-.3-.2-.1-.1-.3-.1-.4-.1s-.3 0-.4.1l-.3.2c-.1.1-.2.2-.2.3-.1.1-.1.3-.1.4v.7h-.4v-.7c0-.2 0-.4.1-.6l.3-.5c.1-.1.3-.2.5-.3.2-.1.4-.1.6-.1s.4 0 .6.1l.5.3c.1.1.2.3.3.5.1.2.1.4.1.6v.7h-.4v-.7zM1013.7 166.6c0-.1 0-.3-.1-.4l-.2-.3c-.1-.1-.2-.2-.3-.2-.1-.1-.3-.1-.4-.1s-.3 0-.4.1l-.3.2c-.1.1-.2.2-.2.3-.1.1-.1.3-.1.4v.7h-.4v-.7c0-.2 0-.4.1-.6l.3-.5c.1-.1.3-.2.5-.3.2-.1.4-.1.6-.1s.4 0 .6.1.3.2.5.3c.1.1.2.3.3.5.1.2.1.4.1.6v.7h-.4v-.7z" /></g><g fill="#fff"><circle cx="1009" cy="203.7" r=".7" /><circle cx="1009" cy="210.9" r=".7" /><circle cx="1009" cy="196.6" r=".7" /></g><g fill="#FF99AD"><circle cx="1014.9" cy="170.9" r="2.1" /><circle cx="1003.1" cy="170.9" r="2.1" /></g><path fill="#EEE0B7" d="M1023 194.1h2v1h-2zM1021 195.1h4v1h-4zM1021 197.1h4v1h-4zM1022 198.1h3v1h-3zM1020 196.1h5v1h-5z" /><path fill="#B2A58E" d="M1023 195h1v.1h-1zM1021 196h3v.1h-3zM1021 197h3v.1h-3zM1021 198h3v.1h-3z" /><linearGradient id="sleighf" gradientUnits="userSpaceOnUse" x1="2156.533" y1="196.583" x2="2169.175" y2="196.583" gradientTransform="matrix(-1 0 0 1 3194.163 0)"><stop offset="0" stop-color="#FF6179" /><stop offset="1" stop-color="#E55C7D" /></linearGradient><path fill="url(#sleighf)" d="M1025 194.1h12.6v5h-12.6z" /><path fill="#FF6179" d="M1037.6 164.4l-28.6-71.5-28.5 71.5z" /><path fill="#fff" d="M1034.8 153.7l2.8 7.1h-57.1l2.8-7.1z" /><circle fill="#fff" cx="1009" cy="92.9" r="3.6" /><path fill="#66C9B6" d="M985.2 175.1l10.4 21.5-19.4-14.8z" /><path fill="#EEE0B7" d="M993.1 194.1h2v1h-2zM993.1 195.1h4v1h-4zM993.1 197.1h4v1h-4zM993.1 198.1h3v1h-3zM993.1 196.1h5v1h-5z" /><path fill="#B2A58E" d="M994.1 195h1v.1h-1zM994.1 196h3v.1h-3zM994.1 197h3v.1h-3zM994.1 198h3v.1h-3z" /><linearGradient id="sleighg" gradientUnits="userSpaceOnUse" x1="1627.643" y1="2161.492" x2="1640.285" y2="2161.492" gradientTransform="matrix(1 0 0 -1 -647.192 2358.074)"><stop offset="0" stop-color="#FF6179" /><stop offset="1" stop-color="#E55C7D" /></linearGradient><path fill="url(#sleighg)" d="M980.5 194.1h12.6v5h-12.6z" /><path fill="#B28C62" d="M859.8 224.5c2.9-7.1 7.1-13.4 12.5-18.9 4.4-4.4 9.6-7.9 15.4-10.2 5.6-2.3 11.5-3.4 17.5-3.4s11.9 1.1 17.5 3.4c5.8 2.3 11 5.8 15.4 10.2 3.6 3.6 6.4 7.9 8.4 12.6 1.9 4.6 2.8 9.4 2.8 14.3s-.9 9.8-2.8 14.3c-1.9 4.7-4.7 9-8.4 12.6-5.9 5.9-13.8 9.2-22.1 9.2-8.4 0-16.2-3.3-22.1-9.2-4.9-4.9-7.6-11.4-7.6-18.3s2.7-13.4 7.6-18.3c4.1-4.1 9.5-6.3 15.3-6.3s11.2 2.2 15.3 6.3c3.4 3.4 5.3 8 5.3 12.8 0 4.8-1.9 9.4-5.3 12.8-2.9 2.9-6.8 4.5-10.8 4.5-4.1 0-8-1.6-10.8-4.5-2.5-2.5-3.8-5.8-3.8-9.3 0-3.5 1.4-6.8 3.8-9.3 1.7-1.7 4.4-1.7 6 0 1.7 1.7 1.7 4.4 0 6-.9.9-1.3 2-1.3 3.3 0 1.2.5 2.4 1.3 3.3 1.3 1.3 3 2 4.8 2 1.8 0 3.5-.7 4.8-2 1.8-1.8 2.8-4.2 2.8-6.8 0-2.6-1-5-2.8-6.8-2.5-2.5-5.7-3.8-9.2-3.8-3.5 0-6.8 1.4-9.2 3.8-3.3 3.3-5.1 7.7-5.1 12.3s1.8 9 5.1 12.3c4.3 4.3 10 6.7 16.1 6.7s11.8-2.4 16.1-6.7c5.6-5.6 8.7-13 8.7-20.9 0-7.9-3.1-15.3-8.7-20.9-7.2-7.2-16.7-11.1-26.9-11.1s-19.7 4-26.9 11.1c-4.6 4.6-8.2 10-10.7 16.1-2.4 5.8-3.6 12-3.6 18.3s1.2 12.5 3.6 18.3c2.4 6 6 11.4 10.7 16.1 5.9 5.9 12.8 10.5 20.4 13.6 7.4 3 15.2 4.5 23.3 4.5h53.6l21.3-21.3 21.3 21.3 21.3-21.3 21.3 21.3 21.3-21.3 21.3 21.3h43.9c2.4 0 4.3 1.9 4.3 4.3s-1.9 4.3-4.3 4.3h-225.5c-9.1 0-18-1.7-26.5-5.1-8.7-3.5-16.6-8.7-23.3-15.4-5.4-5.4-9.7-11.8-12.5-18.9-2.8-6.8-4.2-14.1-4.2-21.5.1-7.6 1.5-14.8 4.3-21.7z" /><path fill="#fc8" d="M859.8 221.3c2.9-7.1 7.1-13.4 12.5-18.9 4.4-4.4 9.6-7.9 15.4-10.2 5.6-2.3 11.5-3.4 17.5-3.4s11.9 1.1 17.5 3.4c5.8 2.3 11 5.8 15.4 10.2 3.6 3.6 6.4 7.9 8.4 12.6 1.9 4.6 2.8 9.4 2.8 14.3s-.9 9.8-2.8 14.3c-1.9 4.7-4.7 9-8.4 12.6-5.9 5.9-13.8 9.2-22.1 9.2-8.4 0-16.2-3.3-22.1-9.2-4.9-4.9-7.6-11.4-7.6-18.3s2.7-13.4 7.6-18.3c4.1-4.1 9.5-6.3 15.3-6.3s11.2 2.2 15.3 6.3c3.4 3.4 5.3 8 5.3 12.8 0 4.8-1.9 9.4-5.3 12.8-2.9 2.9-6.8 4.5-10.8 4.5-4.1 0-8-1.6-10.8-4.5-2.5-2.5-3.8-5.8-3.8-9.3 0-3.5 1.4-6.8 3.8-9.3 1.7-1.7 4.4-1.7 6 0 1.7 1.7 1.7 4.4 0 6-.9.9-1.3 2-1.3 3.3 0 1.2.5 2.4 1.3 3.3 1.3 1.3 3 2 4.8 2 1.8 0 3.5-.7 4.8-2 1.8-1.8 2.8-4.2 2.8-6.8 0-2.6-1-5-2.8-6.8-2.5-2.5-5.7-3.8-9.2-3.8-3.5 0-6.8 1.4-9.2 3.8-3.3 3.3-5.1 7.7-5.1 12.3 0 4.6 1.8 9 5.1 12.3 4.3 4.3 10 6.7 16.1 6.7s11.8-2.4 16.1-6.7c5.6-5.6 8.7-13 8.7-20.9 0-7.9-3.1-15.3-8.7-20.9-7.2-7.2-16.7-11.1-26.9-11.1s-19.7 4-26.9 11.1c-4.6 4.6-8.2 10-10.7 16.1-2.4 5.8-3.6 12-3.6 18.3s1.2 12.5 3.6 18.3c2.4 6 6 11.4 10.7 16.1 5.9 5.9 12.8 10.5 20.4 13.6 7.4 3 15.2 4.5 23.3 4.5h53.6l21.3-21.3 16.3 12.3h12l14.3-12.3 15.3 12.3h11l16.3-12.3 21.3 17.3 43.9 4c2.4 0 4.3 1.9 4.3 4.3s-1.9 4.3-4.3 4.3h-225.5c-9.1 0-18-1.7-26.5-5.1-8.7-3.5-16.6-8.7-23.3-15.4-5.4-5.4-9.7-11.8-12.5-18.9-2.8-6.8-4.2-14.1-4.2-21.5.1-7.6 1.5-14.8 4.3-21.7z" /><linearGradient id="sleighh" gradientUnits="userSpaceOnUse" x1="2140.455" y1="273.99" x2="2140.455" y2="188.819" gradientTransform="matrix(-1 0 0 1 3194.163 0)"><stop offset="0" stop-color="#043227" /><stop offset="1" stop-color="#097168" /></linearGradient><path fill="url(#sleighh)" d="M990.1 199.5c4.7 0 8.5 3.8 8.5 8.5v4.3c0 4.7 3.8 8.5 8.5 8.5h14.9c4.7 0 8.5-3.8 8.5-8.5v-14.9c0-4.7 3.8-8.5 8.5-8.5h93.1c4.7 0 8.5 3.8 8.5 8.5v68.1c0 4.7-3.8 8.5-8.5 8.5h-157c-4.7 0-8.5-3.8-8.5-8.5v-57.5c0-4.7 3.8-8.5 8.5-8.5h15z" /><path fill="#fc8" d="M985.4 206.6h-18.6c.7-4 4.2-7.1 8.4-7.1h14.9c4.7 0 8.5 3.8 8.5 8.5v4.3c0 4.7 3.8 8.5 8.5 8.5h14.9c4.7 0 8.5-3.8 8.5-8.5v-14.9c0-4.7 3.8-8.5 8.5-8.5h93.1c4.2 0 7.7 3.1 8.4 7.1h-101.60000000000001c-.7 0-1.4.6-1.4 1.4v14.9c0 8.6-7 15.7-15.7 15.7h-14.9c-8.6 0-15.7-7-15.7-15.7v-4.3c0-.7-.6-1.4-1.4-1.4h-4.4z" /><circle fill="#fff" cx="895.7" cy="104.7" r="51.5" /><path fill="#CC5068" d="M917.8 76.3l-5.9-5.6h-18.7v6l-6.2-6h-6.2v6l-6.3-6h-6.2v61.8l6.2 6h6.3v-6l6.2 6h6.2v-6l6.3 6h18.3z" /><path fill="#FF6179" d="M880.8 76.9h-6.2v-6.2h-6.2v18.7h6.2v-6.2h6.2v6.2h6.2v-18.7h-6.2v6.2zm12.4 12.5h18.7v-18.7h-18.7v18.7zm6.3-12.5h6.2v6.2h-6.2v-6.2z" /><path fill="#B24761" d="M905.7 83.2l-6.2-6.3h6.2z" /><g fill="#FF6179"><path d="M880.8 98.7h-6.3v-6.2h-6.2v18.7h6.2v-6.2h6.3v6.2h6.2v-18.7h-6.2zM893.2 92.5v18.7h18.7v-18.7h-18.7zm12.5 12.5h-6.2v-6.2h6.2v6.2z" /></g><path fill="#FF6179" d="M880.8 119.9h-6.3v-6.3h-6.2v18.7h6.2v-6.2h6.3v6.2h6.2v-18.7h-6.2zM893.2 113.6v18.7h18.7v-18.7h-18.7zm12.5 12.5h-6.2v-6.2h6.2v6.2z" /><path fill="#fff" d="M924.9 141.9l42.1 14.3s-9.8-3.2-19.7-15.8l-11.4-20.7-11 22.2z" /><path fill="#C0D860" d="M1142.7 292.7v18.9c0 .3.2.5.3.6.1.1.3.3.6.3.2 0 .3 0 .4-.1l.1.4 1.6 4.3c-.6.2-1.3.4-2 .4-1.6 0-3-.6-4.2-1.7-1.1-1.1-1.7-2.6-1.7-4.2v-.2h-2.3v3.1c0 .3.2.5.3.6.1.1.3.3.6.3.2 0 .3 0 .4-.1l.1.4 1.6 4.3c-.6.2-1.3.4-2 .4-1.6 0-3-.6-4.2-1.7-1.1-1.1-1.7-2.6-1.7-4.2v-21.8h12.1z" /><circle fill="#EEE0B7" cx="1136.5" cy="286.9" r="10.2" /><path fill="#B2A58E" d="M1142.8 291.9c0-5.7-4.6-10.2-10.2-10.2-2.1 0-4 .6-5.6 1.7 1.5-3.9 5.2-6.7 9.6-6.7 5.7 0 10.2 4.6 10.2 10.2 0 3.6-1.9 6.7-4.7 8.6.4-1.2.7-2.4.7-3.6zM1128.3 289.5l-.8-.2-.8-.2 1.4-2.2z" /><path fill="#EEE0B7" d="M1125.8 291.2l-.4.4.5.4h-.1l-.4-.3-.9-.7-.3.4 1.3 1v.1l-1.4-1.1-.4-.3-.4.4.5.4v-.1l1.4 1.1h-.1l-1.3-1-.3.4 1.3 1v.1l-.9-.7-.4.4 1.4 1.1.3-.5.4-.4.3-.5.4-.4.4-.4z" /><path fill="#B2A58E" d="M1125.433 291.642l.468.375-.063.078-.468-.375zM1124.157 291.368l1.327 1.063-.063.078-1.327-1.063zM1123.795 291.752l1.327 1.063-.063.078-1.327-1.063zM1124.8 293.3l-1.3-1h-.1l.5.4.9.7z" /><path fill="#C0D860" d="M1126.638 291.959l5.62 4.501-1.813 2.263-5.62-4.501zM1137.6 286.9l-10-3.2-2.3-.7 14.6-17.6 8.8 25.1z" /><path fill="#fff" d="M1148.3 286.1l.9 2.4-23.5-7.5 1.4-1.7z" /><circle fill="#fff" cx="1129.7" cy="288.1" r=".8" /><circle fill="#1D1D1B" cx="1129.7" cy="288.1" r=".4" /><defs><circle id="sleighi" cx="1136.5" cy="286.9" r="10.2" /></defs><clipPath id="sleighj"><use xlink:href="#sleighi" overflow="visible" /></clipPath><circle fill="#FF6179" cx="1128.3" cy="292.2" r="2.1" clip-path="url(#sleighj)" /><path fill="#3E4147" d="M1148.9 316l-3.6 1.2-1.6-4.7 4.7-1.7 2.1 6zM1141.6 318.9l-3.5 1.2-1.7-4.8 4.8-1.6 2 5.9z" /><g fill="#FF6179"><path d="M1127 277.2h1v2h-1zM1127 297.2h1v2h-1zM1132.524 280.69l-.866-.5 1-1.732.866.5zM1122.514 298.029l-.866-.5 1-1.732.866.5zM1135.591 284.14l-.5-.866 1.732-1 .5.866zM1118.259 294.122l-.5-.866 1.732-1 .5.866zM1136.5 287.7h2v1h-2zM1116.5 287.7h2v1h-2zM1135.09 293.155l.5-.866 1.732 1-.5.866zM1117.78 283.137l.5-.866 1.732 1-.5.866zM1131.521 296.203l.866-.5 1 1.732-.866.5zM1121.531 278.901l.866-.5 1 1.732-.866.5z" /></g><path fill="#097168" d="M1125.8 238.7h-142.6c0 2.1-1.7 3.7-3.7 3.7h-.1v18.7h.1c2.1 0 3.7 1.7 3.7 3.7h142.5c0-2.1 1.7-3.7 3.7-3.7v-18.7c-2 0-3.6-1.7-3.6-3.7z" /></svg>
