<svg xmlns="http://www.w3.org/2000/svg" xmlns:xlink="http://www.w3.org/1999/xlink" viewBox="0 0 356.9 366.5" enable-background="new 0 0 356.9 366.5"><path fill="#fff" d="M61.5 307.4h3.7c-35.5-31.7-59.8-77.8-59.8-129 0-95.4 77.6-173 173-173s173 77.6 173 173c0 51.2-24.9 98.4-60.4 130.1h3.3l9.7-2.8c32.3-32.3 52.9-78.1 52.9-127.3 0-98.3-80.1-178.4-178.5-178.4-98.3 0-178.4 80.1-178.4 178.4 0 46.1 17.6 88.2 46.4 119.9l15.1 9.1z"/><path d="M2.4 131.3" fill="none"/><path stroke="#fff" stroke-width="2" stroke-linecap="round" stroke-linejoin="round" stroke-miterlimit="10" d="M114.1 30.7c-46.1 16.9-80.5 57.8-88.1 107.5" fill="none"/><path fill="#C58D4D" d="M320 346.5h3.1l-17.3-21.2v-6.7h-.4s4.3 0 4.3-6.3c0-2.3-.5-3.8-1.1-4.8l-13.3 3.9h-235l-11.3-6.8c-1.2 1.5-2.4 3.7-2.4 6 0 4.1 2.4 8.1 2.4 8.1h-.3v6.7l-17 21.2c-5.5 0-10 4.5-10 10s4.5 10 10 10h288.3c5.5 0 10-4.5 10-10 .1-5.6-4.5-10.1-10-10.1z"/><defs><path id="a" d="M320 346.5h3.1l-17.3-21.2v-6.7h-.4s4.3 0 4.3-6.3-3.5-6.7-3.5-6.7l-11.8 3.1h-236.3l-7.2-6.3s-4.3 3.9-4.3 8.1l2.4 8.1h-.3v6.7l-17 21.2c-5.5 0-10 4.5-10 10s4.5 10 10 10h288.3c5.5 0 10-4.5 10-10 .1-5.5-4.5-10-10-10z"/></defs><clipPath id="b"><use xlink:href="#a" overflow="visible"/></clipPath><g clip-path="url(#b)" fill-rule="evenodd" clip-rule="evenodd" fill="#9A6C3D"><path d="M90.4 403.1c-.1.1-.4 0-.5 0 0-.1.3 0 .5 0zM65.8 404.7h-.7l-.4-.1 1.1.1zM73.4 403.3c.1.1-.4 0-.7 0 0 0 .5.1.7 0zM71.5 403.3c.1.1-.4 0-.7 0h.7zM62.4 403.2c-.4.1-.8 0-1.3 0 .1 0 .9.1 1.3 0z"/></g><defs><path id="c" d="M320 346.5h3.1l-17.3-21.2v-6.7h-.4s4.3 0 4.3-6.3-3.5-6.7-3.5-6.7l-11.8 3.1h-236.3l-7.2-6.3s-4.3 3.9-4.3 8.1l2.4 8.1h-.3v6.7l-17 21.2c-5.5 0-10 4.5-10 10s4.5 10 10 10h288.3c5.5 0 10-4.5 10-10 .1-5.5-4.5-10-10-10z"/></defs><clipPath id="d"><use xlink:href="#c" overflow="visible"/></clipPath><g opacity=".58" clip-path="url(#d)"><path fill="#9A6C3D" d="M-28.9 331.4s46.3 1 67.3-2.3 49.8-10.2 70.9-7.2 41.1 5.8 70.3 5.5l169.9-5.5-1.1 4.5s-115.8 1.8-144.2 2.8-54.1 2.1-64.5 0-31.3-6.3-43.2-5.6-38 5.4-54.2 7.3l-69.9 2.9-1.3-2.4zM56.9 321.1s-16.5 6-39.9 6.3c-23.4.3-47.1 0-47.1 0l.5-1.7s20.9 1.4 30.9 1.1c10.1-.3 25.4.1 35.4-2.5l20.2-3.2zM-26.7 318.1s25.7 2.5 33.9 3.1l35.1-3.1s-19.4 7.1-30.1 6.2l-39.4-4.6.5-1.6zM101.9 327.4s-1.3 0-3.5.1c-1.1.1-2.4.1-4 .3-1.5.2-3.2.3-5.1.6-1.9.3-3.9.6-5.9 1.2-.9.3-1.8.8-2.5 1.6-.7.7-1.3 1.6-1.5 2.5-.2.9 0 1.5.7 2s1.7.9 2.8 1.1c1.1.2 2.3.3 3.5.4l1.9.1h1.8c2.4 0 4.9-.1 7.3-.2 2.4-.2 4.8-.5 7.1-.8 2.3-.4 4.5-.9 6.5-1.5 1-.4 1.9-.7 2.6-1.3l.1-.1.1-.1c.1-.1.1-.1.1-.2.1-.1.1-.3.1-.5 0-.3-.3-.7-.6-1-1.3-1.2-3-1.9-4.4-2.5-1.4-.6-2.7-.9-3.8-1.2-1.1-.2-1.9-.4-2.5-.4-.5-.1-.8-.1-.8-.1zm0 0s1.3 0 3.4.4c1.1.2 2.4.5 3.9 1s3.1 1 4.7 2.2c.4.3.8.7 1 1.3.1.3.1.7 0 1l-.3.4-.1.1-.1.1-.1.1c-.8.8-1.8 1.3-2.8 1.9-2 1-4.2 1.8-6.5 2.4-2.3.6-4.8 1.2-7.3 1.5-2.5.4-5.1.5-7.7.5l-2-.1-1.9-.1c-1.3-.1-2.6-.3-3.9-.7-1.3-.4-2.6-.9-3.8-1.9-.6-.6-1.1-1.3-1.2-2.2-.2-.8 0-1.7.2-2.4.5-1.4 1.4-2.4 2.4-3.1 1-.8 2.1-1.4 3.3-1.6 2.2-.4 4.3-.5 6.2-.6 1.9-.1 3.6-.1 5.2-.2 1.5 0 2.9-.1 4-.1 2.1.1 3.4.1 3.4.1zM99.6 332s-8.8-1.8-9.4 0c-.6 1.8 3.8 1.2 3.8 1.2 5.4 1 5.6-1.2 5.6-1.2zM-30.1 339s50.6-2.5 62.8-3.2c12.2-.6 24.8-1.4 31.1-3.9l12-4.4s-8.7 2.2-8.2 6.2 17.5 8.5 17.5 8.5-11.5-.6-18-3.5c-6.5-3-15.6-1.5-24.8-1.5l-71.4 5-1-3.2zM-29.3 345.7s33.2-4.3 47.7-5.1 33.3-4.1 42-1.2 20 6.9 34.5 5.4 23.7-9.7 29-11 25.8-.3 36.8-.3 74.2-2.6 86.7-2.3c12.5.3 36.3 2.2 49.5 2 13.2-.2 52.6-3.4 52.6-3.4l1.3 2.6s-46.8 3.4-55.9 3.9-33.9-2.1-43.1-2.8c-9.2-.7-26 .1-41.2.3s-61.9 2.4-68.4 2.1c-6.6-.4-13.1-.4-18.3 1.9s-17.7 11.7-32.5 10.5c-14.8-1.2-27.8-6.7-35.8-7.6s-52.2 3.9-65.9 5.1l-20 1.3 1-1.4zM286.1 329.7s16.7 1 22.8 0h7.6s-23.2 2.9-26.8 1.4l-3.6-1.4zM-31.9 349.6s66.7-4.1 75.3-5c8.7-.8 15-.3 20.7.8 5.7 1.2 9.3 2.7 9.3 2.7s-41.2-.6-53.8.1l-48.5 3.9-3-2.5zM71 319.3c3-.2 43.5-3.5 58.7 0s39.3 4.8 47.8 4.2c8.5-.7 81.7-4.5 98.4-5 16.7-.5 50.4.5 58.6-.8l14.2-1.7-1 3s-33 .8-43.5.8-66.3 2.3-76.7 2.3c-10.3 0-50 3.3-59 2.2s-36.2-2.8-43.8-4.1-37.5 1.1-44.8 0l-8.9-.9zM154 318s20.9 2.9 34.4 2.3c13.5-.6 34.5-3.5 34.5-3.5s-26.3 1.7-35.7 1.3c-9.4-.3-33.2-.1-33.2-.1zM238.3 316s34.5-1.6 47-1c12.5.5 34.3.5 40.7 0 6.3-.5 18.4-2.2 18.4-2.2v1.6s-37.7 2.8-52.1 1.6c-14.3-1.1-32.2.3-38.5.8-6.3.5-15.5-.8-15.5-.8zM123.3 344.2c4.3-3.1 6.3-6.3 19.2-6.6 12.8-.3 55.3 1.2 63.8 0s27.8-4.2 38-2.3c10.2 1.8 26.7 3.7 30.3 3.7h5.3s-4.5.3-17.5.5-16.5-2.3-26.8-2.5c-10.3-.2-26.2 3.4-40.8 3.6-14.7.2-34.5-1.6-40.8-1.1-6.3.5-10 .3-18.5 2.7-8.5 2.4-12.2 2-12.2 2zM-30.1 356.8s28.3-6.1 42.3-6.1 36-.8 43.8 0 48.2 3 57.3 1 19-6.3 37.8-8.2c18.8-1.8 44.2.2 53.5.8 9.3.6 17.2 1.1 33.7 0 16.5-1.1 44-2.4 54.8-2.8 10.8-.3 55.5-.9 55.5-.9v2.6s-35.2.7-52.7 1.1c-17.5.4-46.3.9-56.5 1.9-10.2 1-37 4.3-50.2 2-13.2-2.2-10.3-4.5-28.2-2.2-17.8 2.3-32.8 7.7-53 8.5-20.2.8-38.2-.1-50.3-1.4s-29.3-.4-39.4 0-23.9 1.2-31.9 2.2l-15.3 2.7-1.2-1.2zM226.5 340.6s6-2.6 11-1.6 2.2.6-1 1.6-7.9 1.8-10 0zM-28.9 360.8s14.3-2 27.2-2.8c12.8-.8 33.7-3.5 45.2-2.7s25.5 3.5 38.2 4c12.7.5 41.8-1.4 42.5-1.4s-24 3.2-35.3 2.8-28.5-2.1-39.7-2.8c-11.2-.7-17.8-.8-30.7.7l-48.5 4 1.1-1.8zM-6.4 363.5s21.2-2.3 33.2-3.2 31.7 1.2 40 1.6l13.7.8s-33.8-1-44.8-.8-33.2 1.4-42.1 1.6zM130.5 355.2s18.1-7.5 28.8-6.9c10.7.7 23.4 4.7 34 4.8 10.7.1 36.5-1.1 43-2.4s18.3-5.5 33.5-1.7 41.3 2.1 52.1.3l24.3-1.9v1.9s-15.3 1.3-26.4 2c-11 .7-33.8 1.7-43.9 1s-7.4-5-24.3-1.7-46.2 5.7-59.2 4.5c-13-1.2-26.8-5.4-35.4-4.5l-26.5 4.6zM127.8 360.1c.7-.3 19.2-5.1 33.5-5 14.3.2 48.5 3.7 71.5 3.7s44.5-.1 55.3-1.3c10.8-1.2 40-1.8 46.8-2.5h15.9v1.7s-13.9-.8-20.4 0-19.8.5-26.3 1.2-33.5 2.3-43.8 2.1c-10.3-.1-28.3.8-42.2 0s-40.6-4.4-57.8-3.4l-32.5 3.5zM154 359.3s5.8-1.2 15.2-.4c9.3.7 11.2 1.5 11.2 1.5s-18.9-1.4-26.4-1.1z"/></g><g clip-path="url(#d)" fill-rule="evenodd" clip-rule="evenodd" fill="#9A6C3D"><path d="M90.4 403.1c-.1.1-.4 0-.5 0 0-.1.3 0 .5 0zM65.8 404.7h-.7l-.4-.1 1.1.1zM73.4 403.3c.1.1-.4 0-.7 0 0 0 .5.1.7 0zM71.5 403.3c.1.1-.4 0-.7 0h.7zM62.4 403.2c-.4.1-.8 0-1.3 0 .1 0 .9.1 1.3 0z"/></g><path fill="#F6D86C" d="M80.4 357.2l-2.5-2.3-6.9-15.5 6.5-16.6 200.8-1 2.1 1 6.4 16.6-6.5 18z"/><path fill="#EDE0B7" d="M77.4 354.4l-6.4-16.3 6.4-16.3h199.8l6.3 16.3-6.3 16.3z"/></svg>