<svg xmlns="http://www.w3.org/2000/svg" viewBox="0 0 247.4 93.6" enable-background="new 0 0 247.4 93.6"><path fill="#FEE96E" d="M232.5 28.6l-7.5 13-5.7-13.9-14.6-3.1 11.4-9.7-1.5-14.9 12.7 7.8 13.7-6-3.5 14.5 9.9 11.2z"/><path fill="#F6E002" d="M241 1.8l-13.4 5.9-2.2 9.6-10.8-17.3 1.5 14.9-11.4 9.7 14.6 3.1 5.7 13.9 7.5-13 14.9-1.1-9.9-11.2z"/><path fill="#FEE96E" d="M237.5 16.4v-.1l3.5-14.5-15.6 15.5zM232.5 28.6l14.9-1.1v-.1l-22-10.1zM219.4 27.9l5.6 13.7v-.1l.4-24.2zM225.4 17.3l-9.3-2.5v.1l-11.2 9.5zM201.6 58.1h-7.6l4.6-6-2.3-7.2 7.1 2.5 6.1-4.4-.2 7.6 6.2 4.4-7.3 2.2-2.3 7.2z"/><path fill="#F6E002" d="M215.5 55l-6-4.4-4.8 1.5 4.8-9.1-6.1 4.4-7.1-2.5 2.3 7.2-4.6 6h7.6l4.3 6.3 2.3-7.2z"/><path fill="#FEE96E" d="M208.2 57.2l7.3-2.2-10.8-2.9zM201.6 58.1l4.3 6.3v-.1l-1.2-12.2zM198.6 52.2l-4.6 5.9 10.7-6zM204.7 52.1l-1.3-4.7-7-2.4zM95 63.5l-20 3.4 9.5-17.9-9.4-18 20 3.5 14.2-14.5 2.8 20.1 18.2 9-18.2 8.9-3 20.1z"/><path fill="#F6E002" d="M130.3 49.1l-17.8-8.8-11.8 6 8.6-26.3-14.2 14.5-20-3.5 9.4 18-9.5 17.9 20-3.4 14.1 14.6 3-20.1z"/><path fill="#FEE96E" d="M112.1 58.1v-.1l18.2-8.9-29.6-2.8zM95 63.5l14.1 14.6v-.1l-8.4-31.7zM84.4 49.1l-9.4 17.8 25.7-20.6zM100.7 46.3l-5.5-11.9-.1.1-19.6-3.5zM43 69l-8.6 2.9 2.8-8.6-5.4-7.3 9.1.1 5.2-7.5 2.8 8.7 8.7 2.7-7.4 5.3.1 9.1z"/><path fill="#F6E002" d="M57.6 60l-8.6-2.6-4.8 3.5 1.9-12.3-5.2 7.5-9.1-.1 5.4 7.3-2.8 8.6 8.6-2.9 7.3 5.4-.1-9.1z"/><path fill="#FEE96E" d="M50.2 65.3l7.4-5.3-13.4.9zM43 69l7.3 5.4-6.1-13.5zM37.2 63.4l-2.8 8.5 9.8-11zM44.2 60.9l-3.3-4.9v.1l-9-.1zM12.6 88.4l-4.9 5.2-1.2-7-6.5-3 6.3-3.3.9-7.1 5.1 5 7-1.4-3.2 6.4 3.5 6.2z"/><path fill="#F6E002" d="M19.3 76.8l-6.9 1.3-2 4.3-3.2-9.2-.9 7.1-6.3 3.3 6.5 3 1.2 7 4.9-5.2 7 1-3.5-6.2z"/><path fill="#FEE96E" d="M16.1 83.2l3.2-6.4-8.9 5.6zM12.6 88.4l7 1-9.2-7zM6.5 86.7l1.2 6.9 2.7-11.2zM10.4 82.4l-4.1-2.2v.1l-6.2 3.2zM157.3 64l-4.6 5.5-1.5-7-6.6-2.8 6.2-3.5.6-7.2 5.3 4.8 7-1.6-3 6.5 3.8 6.1z"/><path fill="#F6E002" d="M163.7 52.2l-6.9 1.6-1.8 4.3-3.6-9.1-.6 7.2-6.2 3.5 6.6 2.8 1.5 7 4.6-5.5 7.2.8-3.8-6.1z"/><path fill="#FEE96E" d="M160.7 58.7l3-6.5-8.7 5.9zM157.3 64l7.2.8h-.1l-9.4-6.7zM151.2 62.5l1.5 7 2.3-11.4zM155 58.1l-4.2-2v.1l-6.1 3.5z"/></svg>